<?xml version="1.0" standalone="no"?>
<!DOCTYPE svg PUBLIC "-//W3C//DTD SVG 1.1//EN" "http://www.w3.org/Graphics/SVG/1.1/DTD/svg11.dtd" >
<svg xmlns="http://www.w3.org/2000/svg">
<metadata></metadata>
<defs>
<font id="gothic_winterregular" horiz-adv-x="1014" >
<font-face units-per-em="2048" ascent="1638" descent="-410" />
<missing-glyph horiz-adv-x="508" />
<glyph horiz-adv-x="2048" />
<glyph horiz-adv-x="2048" />
<glyph unicode="&#xd;" horiz-adv-x="508" />
<glyph unicode=" "  horiz-adv-x="508" />
<glyph unicode="&#x09;" horiz-adv-x="508" />
<glyph unicode="&#xa0;" horiz-adv-x="508" />
<glyph unicode="!" horiz-adv-x="692" d="M55 -131q176 -209 257 -251q38 40 251 233q1 26 19 79q15 46 11 77q-10 66 -60 101q-24 17 -130 23q-100 5 -151 -5q-74 -14 -95 -155q-14 -19 -52 -50q-37 -30 -50 -52zM79 1429q170 -630 203 -1189q16 -14 72 -12q109 857 197 1154q30 20 46 62q15 42 8 81 q-4 23 -53 74q-51 54 -79 58q-172 22 -258 -11q-108 -42 -94 -175q-12 -3 -23 -19q-11 -18 -19 -23zM175 1507q-1 -1 41 90q102 27 207 6q122 -24 134 -102q7 -43 -42 -125q-45 -5 -42 59q-41 17 -53 96q-64 15 -84 30q-4 -16 -2 -47q3 -41 2 -51q-2 -55 -60 -52 q-32 102 -24 96q-57 -20 -77 0zM204 -23q7 81 96 92q26 3 88 1q64 -1 97 2q37 -15 50 -69q14 -57 -20 -86q-13 2 -27 24q-13 19 -32 18q-4 -8 -11 -25q-7 -15 -10 -22q-13 -22 -33 -19q-20 2 -31 42q-10 38 -41 36q0 1 -13 -85q-8 -46 -35 -47q-26 -1 -34 35q-10 39 -38 43 q3 15 -2 32q-4 18 -4 28z" />
<glyph unicode="&#x22;" horiz-adv-x="1147" d="M176 1105q13 -30 54 -59q251 145 344 408q0 8 -9 14q-9 7 -11 10q16 82 -17 148q-33 68 -96 73q-26 3 -78 -15q-55 -19 -84 -19q-43 -70 -39 -147q-6 -12 -32 -33q-22 -18 -27 -36q10 -18 60 -72q40 -43 48 -80q12 -56 -29 -109q1 2 -84 -83zM284 1537q5 63 29 94 q-6 0 128 24q46 -14 63 -73q11 -40 11 -118q0 -7 2 -24q3 -18 3 -26q1 -29 -25 -34q-17 -1 -22 20q-5 26 -12 29q-34 -29 -62 -31q-37 -4 -41 51q-3 4 -7 4q-2 -1 -8 -5q-13 -9 -25 -4q-12 7 -14 49q-2 40 -20 44zM642 1100q19 -58 71 -43q34 9 87 53q63 53 126 138 q65 87 90 157q30 10 46 46q15 32 13 73q-2 42 -18 72q-18 33 -46 40q-8 1 -24 0q-17 -2 -25 0q-8 1 -29 10q-19 8 -30 9q-28 2 -72 -18q-42 -18 -76 -11q-29 -24 -40 -44q-19 -30 -9 -64q-8 -11 -32 -31q-23 -19 -32 -33q4 -7 77 -96q48 -58 36 -115q-7 -35 -49 -74 q-52 -48 -64 -69zM750 1518q-8 43 20 64q30 -10 65 7q43 22 48 22q10 1 55 -13q46 -13 73 -12q14 -11 15 -48q0 -8 -1 -33v-31q-12 4 -39 34q-8 -6 -29 -12q-22 -7 -30 -13q-3 -8 -1 -40q2 -27 -9 -38h-29q-5 42 -38 61q-35 20 -65 -7q-28 18 -35 59z" />
<glyph unicode="#" horiz-adv-x="1733" d="M249 346q1 74 8 102q13 52 54 64q14 4 45 1q34 -3 48 -1q20 3 59 12q40 10 58 13q67 11 101 -15q17 62 31 135q-39 5 -129 -2q-88 -7 -120 -3q45 113 47 207q28 0 124 -8q76 -6 130 -2q18 59 62 285q3 17 35 138q22 83 22 131q0 6 -4 26q-3 18 -1 26q9 44 75 72 q64 28 106 11q17 -6 55 -52q36 -45 44 -67q7 -22 3 -61q-5 -47 -3 -63q1 -11 13 -38q10 -22 8 -40q-5 -40 -83 -88q-24 -2 -63 5q-30 -95 -31 -109q21 -6 94 36q134 -2 160 -10q3 9 13 75q8 46 18 70q-54 67 -66 164q-14 114 61 152q3 88 61 133q62 48 152 18q5 -35 70 -119 q56 -72 44 -135q-11 -58 -88 -140q-10 -34 -41 -121q-26 -74 -37 -123q16 -7 46 -16q31 -10 43 -15q49 -19 72 -52q33 -47 63 -153q32 -117 25 -194q-12 -118 -52 -130q-53 -15 -94 55q-40 68 -20 132q-30 7 -90 6q-80 -2 -97 -1q-6 -26 -31 -126q-20 -78 -31 -128 q47 -11 123 -2q91 10 126 7q-31 -65 -47 -207q-36 3 -128 4q-84 1 -126 7q-105 -470 -119 -586q-125 8 -254 0q176 536 187 580q-33 15 -140 10q-106 -6 -119 1q-21 -102 -62 -292q-43 -204 -63 -299q-91 7 -249 0q135 357 192 580q-3 1 -238 -5q0 5 21 62q-8 19 -37 42 t-36 41zM294 401q1 -33 22 -60q22 -27 52 -30q34 -4 62 25q12 -7 18 -45q5 -34 24 -38q28 8 37 75q8 65 41 70q25 -2 46 5q-4 19 5 40t6 38q-61 15 -146 -3q-91 -20 -139 -13q-28 -26 -28 -64zM767 398q108 -18 270 0q47 205 67 264q-97 16 -269 0q-21 -117 -68 -264z M871 1445q-2 -41 27 -66q30 -25 82 -22q3 -19 2 -95q-2 -60 13 -87q58 -3 78 52q-21 24 -20 76q1 9 3 47q2 30 1 48q-6 5 -42 57q-27 39 -56 42q-56 4 -88 -52zM876 854q9 -9 22 -40q12 -28 25 -38q29 6 62 21q7 -2 20 -18q11 -14 26 -13t23 19q9 24 14 28q15 -41 41 -58 q32 -20 57 21q-2 35 15 117q14 69 1 106q-52 25 -116 10q-18 -4 -54 -15q-35 -12 -53 -15q-59 -70 -83 -125zM1203 1403q-6 -50 36 -129q-19 -1 57 83q5 -3 62 0q1 -15 -2 -43q-3 -36 -4 -45q-1 -50 32 -57q24 6 29 46q7 69 7 68q37 -5 47 0q40 65 36 140q-99 147 -104 160 q-25 3 -93 -15q-15 -18 -22 -56q-9 -44 -19 -63q-8 -15 -37 -44q-23 -22 -25 -45zM1336 853q-7 -75 43 -103q11 5 31 32q15 21 41 15q18 -4 39 -49q20 -44 23 -86q1 -11 2 -49q0 -29 3 -45q8 -46 47 -51q34 73 6 214q-24 122 -63 180q-20 30 -65 45q-13 5 -40 12 q-28 7 -40 11q-27 -129 -27 -126z" />
<glyph unicode="$" horiz-adv-x="1345" d="M199 22q-1 18 54 144q5 10 7 36q1 25 8 38q4 9 23 23q20 14 27 27q9 18 12 57q3 36 13 47q28 33 94 26q69 -6 85 -50q47 3 83 -19q10 -6 56 -46q7 63 5 173q-1 149 0 180q-107 -77 -244 -144q-146 82 -200 291q-54 207 16 390q8 21 43 71q32 46 37 68q1 5 10 88 q5 41 30 61q15 13 48 16q41 3 56 9q6 2 81 63q57 45 118 36q6 7 5 33t5 32h139q3 -8 5 -70q59 -4 114 -44q90 40 150 -24q20 -21 45 -63q32 -53 39 -62q7 16 -85 -204q5 -1 -258 54q-7 -66 -6 -183q2 -156 1 -189q4 2 63 42q46 31 81 52q66 39 75 40q9 0 24 -8 q19 -10 30 -12q13 -3 45 -3q24 0 35 -7q29 -18 40 -67q12 -51 -10 -82q51 -60 94 -244q6 -272 -140 -451q-100 -122 -337 -255q-1 -23 1 -137q1 -85 -6 -131h-144v283q-60 14 -233 58q-158 40 -234 57zM308 230q-16 -44 25 -119q38 30 83 36q54 6 86 -31q-9 -12 -5 -31 q4 -17 15 -24q33 -2 48 29q3 7 10 29q6 18 11 27q66 -36 100 -25q24 23 0 124q-22 6 -73 49q-41 35 -91 31q-18 31 -57 44q-42 14 -83 -4q-6 -15 -9 -51q-3 -31 -15 -49q-7 -9 -25 -17q-16 -7 -20 -18zM363 1377q-4 -50 19 -73q15 -8 36 0q22 8 29 5q-9 -18 -2 -36 q7 -16 22 -24q60 11 60 120q17 -1 36 15t38 15q59 -112 30 -110q31 15 31 67q-2 90 -1 92q2 13 21 50q14 29 9 50q-63 32 -118 -10q-93 -73 -86 -70q-16 -6 -47 -8t-53 -12q-20 -24 -24 -71zM770 1518q11 -19 3 -48t2 -47q79 -12 119 -64q43 26 84 3q12 -7 61 -53 q23 6 43 34q23 33 36 41q7 22 -12 47q-6 8 -19 22q-14 14 -19 20q-2 3 -15 26q-11 18 -19 24q-21 13 -55 0q-42 -16 -55 -15q11 -1 -79 42q-54 26 -75 -32zM820 817q0 -52 48 -31q13 6 39 23q24 15 32 18q56 -133 35 -129q27 -5 36 45q4 26 4 94q11 5 56 18q36 11 53 22 q26 -19 22 -17q15 -8 28 2q49 101 -144 109q-10 -12 -117 -69q-92 -48 -92 -85z" />
<glyph unicode="%" horiz-adv-x="1739" d="M155 868q-19 -277 348 -422q176 151 223 215q107 147 81 338q-2 14 -17 43q28 93 -11 182q-34 77 -102 123q-3 53 -57 73q-53 20 -109 -8q-8 -4 -23 -22q-19 -22 -29 -30q-14 -12 -51 -27q-37 -16 -49 -25q-52 -41 -83 -153q-110 -118 -121 -287zM337 1199q3 43 47 71 q13 9 41 23q30 15 43 23q13 9 36 29q23 22 34 29q42 27 91 -5q6 -60 69 -83q5 -20 29 -56q26 -39 32 -57q10 -29 10 -54q0 -31 -18 -38q-13 -4 -22 6q-15 17 -22 21l-18 9q-11 6 -17 10q-17 12 -21 33q-26 3 -32 -30q-6 -39 -16 -44q-30 -1 -40 25q-4 13 -8 57 q-54 71 -118 61q-9 -1 -49 -24q-30 -17 -51 -6zM437 -115h127q62 106 65 109q1 -15 2 -47q1 -30 2 -43q6 -46 39 -50q71 -7 85 121q5 40 5 110q0 78 2 96q4 63 82 200q79 139 536 922q-4 35 -29 56q-22 19 -52 21q-31 2 -55 -14q-27 -17 -34 -50q-80 6 -109 -85 q-27 -87 17 -150q-56 -91 -173 -296q-111 -195 -175 -295q-61 9 -108 -35q2 2 -48 -105q4 9 -70 -98q-40 -60 -26 -119q5 -20 31 -39q-113 -206 -114 -209zM564 115q-21 64 22 128q6 9 38 50q23 30 31 49q33 78 34 79q25 38 79 38q25 -21 19 -40q2 6 -23 -38 q-28 -49 -31 -252q-2 -184 -56 -231q-20 150 -113 217zM1026 397q-36 -129 3 -260q87 -179 335 -252q161 131 197 173q97 111 112 258q-37 190 -43 200q21 59 -5 109q-8 14 -26 39q-19 26 -26 39q-43 79 -48 83q-30 -9 -64 21q-42 37 -53 39q-62 16 -124 -32 q-60 -47 -59 -102q-5 -9 -47 -58q-29 -34 -36 -69q-82 -68 -116 -188zM1134 1116q-12 57 26 144q9 8 38 11q30 4 40 11q5 3 20 34q14 28 28 31q22 5 40 -13q17 -17 16 -35q0 -25 -69 -70q-7 -4 -21 -23q-7 -11 -27 -7q-8 -5 -21 -27q-12 -18 -27 -21q1 1 -15 -25 q-9 -14 -28 -10zM1208 616q0 15 16 31q22 21 27 30q8 13 16 48q8 31 19 43q13 15 43 28q31 13 53 11q19 -1 53 -32q31 -28 68 -24q10 -27 53 -89q36 -53 43 -98q-23 21 -87 40q-68 21 -91 38q-31 -11 -39 -88q-5 -36 -10 -50q-9 -22 -30 -23q-31 -1 -28 42q5 64 2 71 q-52 10 -61 31q-7 0 -22 -7q-12 -5 -25 -2z" />
<glyph unicode="&#x26;" horiz-adv-x="2007" d="M188 206q45 28 113 84q81 67 109 88q-16 42 -4 123q20 133 20 137q1 17 -4 58q-4 36 -1 53q7 37 46 62q51 33 59 44q15 146 -61 210q-25 48 3 110q7 14 28 51q18 32 25 50q8 22 16 74q7 46 17 65q26 48 139 116q24 15 183 72q-11 -4 99 51q57 29 122 21q34 -3 90 -29 q60 -27 82 -32q43 -71 54 -102q24 -68 -4 -120q88 -196 -38 -380q-65 -94 -261 -252q15 -33 46 -86q36 -62 48 -86q155 60 194 61q14 1 48 -3q30 -4 46 -2q24 2 70 20q43 17 69 19q295 16 349 -45q24 -26 39 -99q15 -74 0 -100q-67 -118 -199 -153q-147 -39 -244 75 q-28 -24 -80 -64q-58 -44 -81 -64q23 -57 105 -183q42 54 61 70q47 37 106 30q26 -3 57 -29q32 -27 53 -32q15 -3 42 4q31 8 42 7q77 -1 128 -56q54 -58 -6 -99q-99 -319 -461 -277q-122 14 -230 140q-37 43 -152 226q-51 -40 -256 -209q-157 -130 -254 -196 q-16 25 -189 286q-114 172 -183 291zM463 551q-19 -129 8 -184q17 -4 31 4q18 11 24 12q3 -2 10 -11q6 -8 10 -12q13 -12 25 -5q9 2 24 23q13 17 37 11q2 -3 8 -25q4 -16 19 -14q39 20 41 90q1 17 -1 63q-2 41 -1 63q55 10 50 122q-8 14 -36 33q-28 18 -36 34q13 25 11 33 q-17 13 -46 79q-23 54 -65 60q14 -73 -21 -115q-11 -13 -79 -57q8 -52 -13 -204zM568 1299q-13 -79 25 -106q22 -3 28 18q14 43 11 37q50 9 149 61q36 -14 64 7q8 6 22 20q13 13 20 18q74 48 144 83q5 -79 8 -92q10 -46 42 -58q36 16 26 100q-12 86 13 100q87 -14 105 -45 q60 -100 39 -94q44 34 23 112q-5 19 -45 110q-21 2 -71 27q-48 25 -79 28q-54 6 -104 -19q-96 -49 -90 -47q-233 -87 -277 -139q-41 -47 -53 -121zM1114 500q20 -15 34 -74q14 -57 38 -71q-5 -5 -5 -38q21 -21 22 -116q1 -83 33 -90q37 -7 43 59q2 21 2 59q-1 44 -1 54 q27 9 67 56q36 42 78 44q15 33 63 62q62 36 75 49q16 -19 37 -12q38 12 46 12q35 -107 45 -116q32 -2 45 38q15 44 32 50q17 0 26 -21q10 -22 24 -23q15 4 38 23q21 18 40 21q-3 33 -19 73q-23 57 -25 66q-34 23 -178 17q-21 -1 -81 5q-52 5 -80 0q-17 -3 -50 -17 q-32 -14 -49 -16q-18 -2 -51 2q-37 4 -55 3q-64 -2 -119 -28q-60 -29 -75 -71zM1463 -60q4 -28 40 -41q7 -3 33 -9q21 -6 33 -11q-5 -76 40 -76q46 1 54 64q10 8 134 57q84 33 88 88q-13 40 -71 35q-106 -8 -112 -8q-21 3 -59 32q-38 28 -52 29q-60 7 -99 -49 q-35 -52 -29 -111z" />
<glyph unicode="'" horiz-adv-x="577" d="M147 1189q0 11 2 36t2 38q-2 51 4 79q9 40 35 69q7 7 33 25q24 15 33 30q9 13 13 37q2 7 4 22t4 22q10 56 44 73q21 9 49 5q7 -2 23 -5q15 -4 22 -5q4 -6 16 -14q11 -7 15 -16q16 8 39 7q24 -2 39 6q-9 -88 -83 -203q-43 -104 -178 -266q-74 -1 -90 -8q-25 26 -26 68z M186 1261q1 -25 10 -103q37 24 67 81q3 8 43 101q22 14 42 47q23 38 35 50q-9 20 -3 39q5 13 20 33q16 21 20 31q7 18 -2 34q-8 13 -35 16q-22 2 -35 -2q-36 -13 -44 -70q-1 -8 -3 -22q-1 -16 -2 -22q-3 -23 -10 -33q-11 -15 -43 -37q-31 -22 -43 -40q-20 -32 -17 -103z" />
<glyph unicode="(" horiz-adv-x="977" d="M367 592q12 130 38 224q-2 15 -13 61q-10 42 -12 69q-1 15 4 42q5 29 4 42q0 11 -9 34q-8 22 -8 34q3 61 54 101q53 41 123 29q22 34 17 30q-31 140 -13 197q-2 -6 55 76q8 11 26 42q16 28 27 42q34 44 82 51q43 6 83 -3q47 -12 47 -39q0 -7 -38 -55q-40 -51 -42 -55 q-210 -326 -248 -728q-19 -201 63 -480q99 7 160 -76q13 -18 21 -52q9 -43 17 -61q6 -12 26 -29q22 -18 29 -30q15 -25 20 -68q6 -51 13 -71q-182 -259 -218 -299q-357 435 -308 972zM414 1098q-1 -11 5 -31q7 -22 7 -33q0 7 -5 -106q-2 -63 18 -96q11 2 32 8q16 4 31 5 q29 128 4 185q-5 -4 17 72q3 11 17 32q10 16 8 27q-3 23 -28 26q-17 2 -60 -5q-45 -59 -46 -84zM583 1317q-3 -26 12 -38q-11 -5 63 80q11 -2 33 4q12 94 101 164q4 11 -5 20q-8 8 -3 14q4 11 27 25q21 13 24 29q-72 33 -121 -6q-19 -15 -69 -90q-55 -84 -55 -80 q-3 -14 -1 -39q2 -29 1 -37q0 -8 -3 -23q-3 -16 -4 -23zM599 129q2 -5 13 -10q10 -5 12 -11q33 -81 42 -88q10 -20 2 -53q-9 -39 -6 -61q23 -28 43 -5q16 17 24 52q22 5 36 -17q16 -28 23 -30q17 -5 32 8q4 4 13 14q9 11 14 16q9 40 -20 82q-8 11 -26 31q-16 18 -21 26 q-11 17 -20 61q-10 43 -22 61q-48 67 -106 63q-45 -2 -32 -40q3 -8 15 -33q11 -21 13 -32q-2 -4 -18 -13q-13 -7 -11 -21z" />
<glyph unicode=")" horiz-adv-x="758" d="M175 1412q11 24 61 84q54 63 70 93q5 10 16 47q8 27 22 37q52 38 123 -6q61 -36 87 -91q37 -14 55 -25q41 -108 44 -124q19 -83 -23 -125q117 -268 51 -733q-16 -111 -80 -278q-42 -109 -43 -110q-50 -106 -50 -177q0 -212 -1 -219q-12 -141 -75 -143q-52 -2 -58 76 q-2 15 -1 65q0 38 -4 53q-25 -24 -62 -73q-42 -55 -60 -75q-10 2 -38 34q111 172 135 219q-55 69 -38 114q3 8 15 21q14 13 18 21q30 53 38 105q3 15 2 47q-1 27 2 38q11 29 44 47t62 12q21 90 21 88q65 538 -240 990q-13 -4 -30 -23q-16 -19 -29 -23q-30 13 -34 34zM344 30 q1 15 46 -89q15 -35 17 -121q3 -93 17 -136q34 23 44 77q2 14 6 104q2 32 -7 117q-7 75 -1 111q3 21 13 60q11 43 14 60q12 68 -19 99q-43 -4 -51 -41q-1 -10 -3 -38q-1 -27 -5 -43q-14 -62 -42 -114q-5 -9 -19 -24q-9 -10 -10 -22zM355 1614q-11 -47 26 -68q1 -10 -1 -33 q-2 -22 -1 -32q2 -34 32 -36q11 0 18 14q8 14 16 16q11 -3 16 -20q6 -23 9 -27q8 -5 18 0q11 4 16 0v-27q1 -18 2 -27q5 -28 27 -30q11 -1 17 13q5 14 17 12q10 0 16 -17q5 -17 18 -16q36 25 15 87q-32 96 -32 98q-74 28 -85 76q-13 0 -36 22q-26 25 -39 29q-59 14 -69 -34z " />
<glyph unicode="*" horiz-adv-x="1356" d="M304 825q21 31 68 109q42 70 68 108q132 -58 280 -37q-100 119 -255 155q2 7 -1 57q-2 36 14 42q-1 11 -12 22q-12 12 -13 21q15 164 12 155q19 60 73 86q32 15 126 32q36 7 108 54q59 39 115 33q-20 2 167 -112q10 -5 34 -10q23 -4 28 -8q25 -17 35 -51q-3 10 15 -73 q17 -78 14 -107q-6 -50 -57 -86q5 -44 0 -55q-129 -35 -267 -155q154 -20 304 31q132 -202 130 -199q-30 -33 -100 -64q-91 -41 -111 -54q-75 95 -223 193q16 -101 105 -286q-79 -96 -161 -167q-36 29 -83 93q-55 75 -78 99q69 90 149 285q-183 -79 -248 -217 q-215 92 -236 106zM515 1358q11 -9 34 -46q19 -32 40 -41q4 -28 12 -41q12 -17 38 -15q15 11 17 35q1 8 0 44q0 27 6 39q8 18 33 19q27 -28 37 -95q13 -95 19 -110q3 -10 23 -43q15 -25 14 -44q35 37 51 120q5 25 12 73q7 53 11 74q18 4 31 -9q14 -14 31 -10q7 28 27 46 q23 21 48 10q-3 -32 17 -69q22 -37 20 -67q88 -8 95 78q5 59 -27 158q-11 16 -36 22q-33 8 -45 15q-2 2 -72 67q-42 41 -89 38q-33 -2 -90 -40q-62 -41 -96 -47q-10 -1 -29 0t-27 0q-111 -15 -105 -161z" />
<glyph unicode="+" horiz-adv-x="1413" d="M130 567v189q23 14 51 54q27 39 49 51q65 36 191 9q187 -40 203 -41v168q-65 49 -90 179q-26 140 48 189q30 21 100 28t105 -7q19 -8 42 -41q24 -36 26 -64q1 -13 -6 -35q-8 -27 -10 -38q-8 -71 -1 -228q7 -160 1 -214q12 44 12 45q10 25 30 34q7 3 28 0q23 -3 35 0 q26 6 63 44q34 34 58 35q15 0 33 -13q22 -16 35 -19q14 -2 40 2q26 5 34 4q77 -15 110 -116q30 -93 11 -215h-483q-8 -80 -6 -258q3 -178 -5 -257h-210v515h-494zM207 764q-13 -36 12 -61q26 19 66 12q70 -12 66 -12t85 13q49 7 78 -18q15 10 57 15q37 5 53 22v58 q-49 -6 -202 27q-127 26 -176 -6q-28 -19 -39 -50zM580 1199q7 -67 39 -123q13 1 49 4q28 3 50 1q15 26 16 95q27 -4 63 16q28 120 -37 152q-82 -2 -152 -21q-37 -42 -28 -124zM889 726q7 -51 40 -60q15 -1 19 17q6 22 12 25q26 25 71 18l76 -12q12 0 35 10q22 10 33 11 q-3 0 52 -10q28 -6 38 20q6 56 -41 87q-49 32 -112 8q-24 32 -46 30q-15 -2 -42 -24q-32 -28 -50 -37q-34 -16 -72 -6q-19 -29 -13 -77z" />
<glyph unicode="," horiz-adv-x="639" d="M175 9q26 21 42 94q16 77 36 99q50 40 114 46q76 7 107 -46q34 3 56 -20q19 -20 26 -56q6 -33 -1 -67q-7 -35 -25 -55q-3 -41 0 -37q-100 -211 -304 -336q-43 34 -51 65q61 49 83 79q42 56 18 105q-28 57 -101 129zM253 78q17 -6 40 1q5 1 42 16q24 11 39 10q21 0 36 -18 q0 -42 18 -55q26 -4 34 18q2 6 6 21q3 14 6 21q8 -4 9 -28q1 -23 14 -23q24 10 26 44q2 29 -12 57l-56 23q-33 13 -41 37q-33 15 -71 -1q-10 -4 -31 -16q-20 -11 -31 -15q-27 -100 -28 -92z" />
<glyph unicode="-" horiz-adv-x="1716" d="M183 157q-5 79 7 112q12 31 44 49q27 15 74 24q27 5 92 12q63 7 97 14q29 5 104 37q60 25 104 23q21 -1 62 -18q42 -18 64 -20q30 -4 78 10q71 20 86 22q33 6 197 22q27 3 61 -16q49 -26 70 -33q25 -8 66 -11q40 -3 49 -5q51 -16 114 -71q82 -72 89 -77v-186h-1456 q4 24 -2 112zM196 198q4 -21 17 -30q11 -6 30 -5q11 1 39 7q26 5 40 6q11 1 34 -3q22 -3 31 -2q29 2 84 24t81 25q33 3 147 0q85 -3 137 16q6 -3 10 -12q1 -3 3 -8t3 -8q8 -19 28 -16q16 30 68 40q17 3 47 5q42 4 49 5q9 -12 8 -40q0 -9 -1 -25q-2 -18 -2 -25q-1 -30 5 -44 q9 -19 34 -20q18 6 21 43q3 48 6 56q71 -4 172 4q10 0 81 7q47 4 76 5q11 1 43 0q28 0 43 1q49 5 62 38q-5 19 -28 26q-3 1 -22 5q-13 3 -21 7q-14 6 -47 30q-29 20 -47 25q-14 4 -64 5q-46 2 -72 11q-12 4 -41 24q-25 18 -41 20q-58 8 -160 -18q-129 -33 -163 -37 q-38 -4 -95 16q-64 21 -86 23q-34 2 -88 -20q-72 -29 -98 -35q-39 -9 -116 -13q-71 -4 -103 -15q-38 -12 -70 -37q-39 -32 -34 -61z" />
<glyph unicode="." horiz-adv-x="716" d="M150 -31q15 20 48 50q37 32 50 48q-7 68 -6 75q8 36 47 55q27 13 97 25q24 5 68 19q45 14 64 18q70 14 105 -37q19 -27 23 -116q4 -97 -29 -120q0 -7 11 -15q9 -8 6 -20q-36 -38 -118 -110q-84 -73 -124 -114q-73 34 -137 104q-41 44 -105 138zM294 119q0 -25 19 -39 q17 -13 46 -17q61 -7 108 21q1 -4 4 -18q2 -11 4 -17q5 -20 15 -28q16 -5 26 6q11 11 20 11q1 -15 15 -20q9 -4 31 -3q14 24 10 82q-1 13 -6 48q-3 29 -4 43q-13 20 -36 22q-18 2 -47 -7q-103 -33 -101 -32q-58 -7 -73 -12q-30 -11 -31 -40z" />
<glyph unicode="/" horiz-adv-x="1076" d="M52 -325q-21 67 113 194q63 59 151 103q17 74 56 182q50 136 62 177l-47 89q-19 106 -5 175q5 23 31 50q30 30 35 40q9 17 17 46q10 33 14 42q17 43 63 48q13 2 57 -9q149 424 151 429q-49 159 -47 184q1 20 21 77q17 47 12 79q24 24 75 42q28 59 98 41q71 -17 72 -83 q-4 -10 7 -9q13 0 12 -5q-167 -502 -392 -1128q56 -352 -23 -438q5 5 -85 -52q-82 -52 -80 -52q-1 -20 -13 -44q-13 -29 -16 -41q20 -12 48 -13q30 0 42 -6q44 -20 40 -84q-4 -63 -45 -81q-33 -15 -160 5q-13 2 -160 -11q-85 -8 -104 53zM94 -311q11 -36 90 -25 q112 16 137 11q114 -21 146 0q23 24 5 71q-11 5 -47 13q-30 7 -43 15q-28 -19 -68 -23q-48 -5 -64 23q4 7 30 37q23 28 32 45q32 57 -34 74q-58 -59 -118 -128q-52 -60 -46 -51q-27 -37 -20 -62zM420 -32q38 -9 85 20q42 25 61 60q36 65 9 321q2 -15 0 250q0 7 -3 30 q-3 18 -1 26q2 12 26 39q21 23 16 41q-5 19 -33 26q-29 8 -52 -7q-13 -8 -23 -45q-13 -50 -19 -63q-10 -21 -35 -43q-22 -20 -27 -37q-10 -45 0 -142q3 -27 28 -58q28 -36 34 -55q50 -152 0 -255q-63 -127 -66 -108zM753 1434q-13 -72 21 -117q18 67 42 127q20 -46 15 -37 q11 -19 37 -15q11 22 14 180q62 10 57 4q-13 47 -57 52q-42 -46 -104 -66q-1 -26 -11 -65q-13 -53 -14 -63z" />
<glyph unicode="0" horiz-adv-x="1588" d="M140 779q32 227 204 483q5 19 11 89q4 56 21 83q7 11 37 29q38 22 45 28q22 17 59 55q40 40 59 56q74 62 156 61q16 0 48 -10q32 -9 47 -9t48 10q31 10 48 9q21 -2 51 -19q31 -18 44 -19q23 -3 62 5q41 9 59 7q52 -3 101 -26q54 -26 71 -63q8 -19 10 -64q2 -50 9 -69 q4 -15 27 -43q20 -26 23 -46q3 -14 -5 -38q-8 -27 -7 -39q2 -27 30 -74q34 -56 40 -72q117 -330 44 -636q-108 -454 -629 -852q-364 113 -558 395q-218 317 -155 769zM408 1352q-4 -41 19 -58q33 -5 60 16q32 26 48 28q32 -17 101 -12q27 -99 64 -39q11 18 28 61 q17 44 23 54q22 -2 46 11q26 14 43 15q1 -31 30 -50q43 -30 46 -33q-5 -36 26 -57q20 -2 40 10q23 14 36 15q1 -3 9 -203q6 -142 55 -140q26 1 34 33q17 64 16 62q26 13 41 -10q17 -29 36 -28q53 18 57 127q4 -1 16 -6q12 -4 18 -5q22 -6 36 5q11 100 9 127q-5 77 -60 95 q-14 22 -19 76q-7 65 -13 83q-35 48 -118 44q-133 -6 -136 -6q-13 2 -36 17q-22 14 -34 15q-18 3 -56 -5q-40 -8 -59 -7q-17 0 -53 10q-34 10 -48 9q-69 -6 -149 -87q-88 -90 -137 -104q-16 -30 -19 -63z" />
<glyph unicode="1" horiz-adv-x="1239" d="M276 1296q10 37 49 67q6 4 34 24q21 14 33 25q10 110 96 201q96 101 178 25q84 42 129 10q40 -27 66 -126q54 -207 0 -274v-1115q52 15 103 -12q60 56 104 6q42 -48 30 -134q57 -59 55 -55q-32 -42 -256 -238q-91 -79 -85 -79q-28 -2 -93 50q-18 15 -49 42q-27 24 -35 30 q-136 102 -164 134q81 75 91 146v555q0 27 5 238q3 141 -3 223q-16 234 -124 312q-21 -9 -66 -49q-38 -35 -74 -42q3 14 -8 22q-14 11 -16 14zM470 1501q-51 -96 50 -132q22 27 58 35q11 2 34 4q24 2 36 4q5 -14 5 -102q1 -57 37 -56q20 0 28 23q10 30 21 38q-1 -8 12 -7 q17 1 18 1q6 -10 11 -69q4 -45 32 -47q46 25 31 164q-19 169 -80 250q-62 -20 -93 -21q-53 -3 -77 33q-80 -37 -123 -118zM849 31q-40 -84 12 -154q-22 -81 36 -85q48 53 44 50q29 25 72 23q34 38 45 115q14 87 -33 110q-15 1 -27 -13q-13 -15 -21 -17q-44 29 -79 18 q-31 -10 -49 -47z" />
<glyph unicode="2" horiz-adv-x="1645" d="M234 -374q53 248 234 456q74 84 359 331q20 251 37 284q5 5 66 25q110 96 206 296q5 1 21 13q12 8 27 5q-2 104 -53 192q-17 31 -104 141q-412 -324 -533 -423q-33 21 -206 199q0 19 15 31q4 3 14 9q9 5 14 9q-14 17 -3 37q20 35 21 41q7 30 11 81q5 52 9 71q15 70 89 78 q11 96 112 151q105 58 166 -29q85 -9 159 -50l126 -84q40 11 90 47q45 34 79 38q70 10 170 -20q107 -31 133 -77q12 -21 15 -61q4 -47 9 -66q3 -9 18 -38q14 -29 20 -47q19 -61 -26 -96q20 -402 -248 -648q-90 -83 -259 -189q-227 -141 -273 -174q465 37 641 -43 q66 -123 73 -175q83 -41 91 -49q-43 -46 -116 -132q-80 -95 -114 -134q-430 138 -745 91q-61 -9 -172 -45q-115 -36 -173 -46zM403 1176q17 -6 134 0q-19 -11 30 139q34 4 56 29q36 40 41 43q79 58 91 103q70 -46 54 -48q17 7 20 41q4 57 4 56q-17 44 -115 36q-33 50 -92 42 q-56 -7 -89 -60q-7 -11 -12 -40q-5 -27 -13 -39q-13 -18 -45 -32q-39 -17 -45 -22q-12 -265 -19 -248zM440 -120q6 -24 26 -21q29 3 40 -3q7 -4 12 -25q3 -15 19 -11q112 53 103 42q63 -22 140 3q103 33 120 33q124 6 115 0q17 -8 33 -42q17 -34 33 -42h25q10 6 11 34 q1 31 7 38q29 7 31 -26q2 -42 11 -46q-38 8 67 84q7 -8 6 -42q-1 -33 6 -42q12 -4 12 -6q32 -8 43 20q14 36 24 40q9 -1 43 -14q24 -9 41 -4q42 92 -60 224q-27 13 -212 36q-6 1 -27 9q-20 8 -34 9q-15 2 -58 -6q-53 -10 -81 -12q-23 -1 -71 0q-45 2 -62 0q9 1 -139 -66 q-8 -4 -70 -29q-50 -20 -79 -35q-89 -48 -75 -100zM882 473q18 7 41 32q24 27 43 35q14 6 37 12q26 7 35 11q39 14 56 44q-2 -57 36 -61q23 9 33 58q11 52 27 63v115q10 -9 43 6q7 119 -18 206q-3 1 -37 0q-53 -151 -212 -321q-8 -5 -30 -9t-30 -9q-12 -24 -14 -89 q-2 -69 -10 -93zM1092 1443q-25 -67 44 -116q13 0 22 17q10 18 20 19q2 -7 21 -6t22 -6q-16 -31 13 -90q39 -77 41 -91q2 -10 -6 -100q-4 -54 30 -58q40 -4 49 75q2 14 5 67q3 41 7 58q7 -1 14 4t16 2q-1 3 12 -73q7 -44 37 -48q70 92 66 157q-1 15 -16 38q-18 27 -20 35 q-5 15 -15 79q-7 46 -21 60q-20 19 -98 39q-83 22 -133 16q-84 -11 -110 -78z" />
<glyph unicode="3" horiz-adv-x="1370" d="M149 293q26 40 84 94q68 64 89 90q-1 0 51 -36q9 4 21 12l21 14q27 14 60 10q19 -3 59 -25q40 -23 64 -26q11 -2 33 2q23 3 33 3q95 -4 179 -65q75 -53 102 -119q29 100 11 210q-16 99 -62 168q-114 169 -439 153q2 -3 -5 71q17 6 62 12q41 7 60 14q2 2 2 19q0 18 3 27 q-4 -5 77 40q19 11 44 32q34 28 42 34q52 38 118 36q69 105 43 251q-12 68 -48 93q-41 29 -107 -7q-43 -23 -117 -85q-98 -83 -113 -93q-89 -67 -102 -67q-15 0 -86 77l-77 81q53 41 56 41q72 234 184 276q71 26 155 5q81 -21 120 -72q-1 -28 0 -30q24 -4 51 -20 q38 -23 46 -26q8 2 105 59q61 35 109 -8q5 -4 18 -29q17 -31 28 -48q9 -13 24 -30q20 -22 22 -25q24 -29 26 -67q1 -37 -11 -143q-24 -223 -316 -372q195 -81 275 -160q128 -127 98 -330q-20 -128 -127 -215q-63 -52 -215 -122q-2 -26 2 -100q5 -87 5 -125q0 -155 -58 -172 q-83 -25 -114 118q-4 20 -24 234q-15 -5 -66 -8q-43 -3 -61 -13q-110 85 -434 362zM363 1385q20 -1 24 -45q4 -45 27 -47q31 -3 35 43q1 13 1 41q-1 28 0 38q34 -11 76 21q-3 -28 11 -41q33 3 62 37q33 38 55 45q4 -2 15 -16q8 -11 21 -10q16 7 21 40q5 44 9 52 q-25 36 -91 49q-61 12 -113 -3q-53 -15 -95 -86zM391 358q4 -20 19 -57q13 -34 14 -43q2 -10 0 -32q-2 -25 -2 -35q1 -41 33 -41q16 1 31 28q13 26 40 23q2 -2 11 -58q6 -35 30 -38q15 0 21 17q9 28 10 28q14 -1 22 -23q9 -22 24 -22q9 -1 24 6q11 5 22 -1q30 -11 39 -38 q4 -11 12 -64q2 -16 13 -59q11 -39 12 -64q1 -9 3 -73q2 -45 6 -71q11 -77 57 -96q33 61 25 220q-8 168 11 219q60 -10 51 -15q12 25 14 68q2 45 -9 64q-37 68 -103 119q-78 61 -162 65q-14 1 -34 -3q-20 -3 -32 -2q-24 3 -77 32q-48 26 -71 24q-69 -6 -54 -78zM618 895 q4 -6 5 -33q2 -23 11 -28q-13 -3 117 41q3 -27 36 -41q43 6 57 73q12 60 -6 111q-51 -16 -114 -57q-84 -55 -106 -66zM909 1446q6 -19 35 -33q34 -16 42 -28q-21 -43 -5 -90q16 -49 56 -28q11 -54 16 -65q16 -30 55 -26q24 24 20 86q1 -15 -15 97q8 2 15 -2q8 -5 16 -3 q-14 24 -52 76q-35 47 -50 77q-38 9 -75 -16q-12 -7 -30 -23q-20 -16 -28 -22z" />
<glyph unicode="4" horiz-adv-x="1466" d="M78 536q4 34 38 71q45 49 53 63q-31 47 5 107q55 91 56 94q3 13 2 51q-2 36 4 53q6 18 35 44q32 28 44 53q4 9 6 31q1 23 6 36q9 21 40 48q30 28 39 50q7 15 7 47q1 37 6 56q14 56 90 152q78 100 123 110q47 11 170 -55q19 39 79 55q27 54 82 66q50 11 101 -17 q53 -28 76 -84q26 -62 3 -136q73 -18 61 -114q-20 -165 -18 -178q-5 -7 -85 -73v-317q50 8 87 -21q33 -27 46 -76q64 -17 78 -24q37 -18 50 -55q5 -13 5 -40q-1 -32 1 -45q5 -32 37 -125q25 -72 18 -101q-75 -22 -322 -6v-146q112 -12 185 -64q87 -64 52 -155 q-5 -12 -146 -134q-27 -23 -76 -74q-42 -44 -64 -60q-42 9 -189 104q-145 92 -170 115q129 113 103 420h-645q-6 21 -18 67q-11 47 -19 73q-37 129 -36 134zM205 713q1 -70 53 -54q48 14 69 60q3 -3 8 -11q4 -9 6 -11q10 -13 29 -8q41 30 36 109q22 36 67 43q6 7 6 40 q-1 29 13 33q12 -58 20 -71q19 -33 65 -27q22 27 19 93q-6 120 -7 108q12 6 34 40q17 28 45 27q15 -68 58 -57q42 10 46 76q1 28 -9 108q-11 84 -10 129q2 41 7 98q5 62 6 72q-11 3 -56 21q-33 14 -60 16q-15 -17 -48 -47q-37 -34 -52 -50q-61 -62 -77 -122q-5 -21 -9 -70 q-4 -36 -15 -58q-7 -13 -32 -39t-35 -46q-7 -15 -18 -43q-12 -30 -17 -41q-22 -47 -56 -68q24 -50 -27 -133q-59 -95 -59 -117zM936 1590q-1 11 4 -100q2 -59 20 -83q15 -5 30 4q13 8 19 2q19 -21 9 -103q-9 -82 16 -110q8 -4 48 0q0 1 25 -67q35 18 42 102q1 16 2 68 q1 39 4 55q-49 12 -62 81q-4 23 -6 65q-3 53 -5 67q-72 41 -74 42q-49 18 -72 -23zM1021 7q5 -59 61 -134q-20 -32 -8 -71q12 -43 51 -39q19 4 23 35q5 45 7 50q44 -15 80 17q53 47 60 50q-1 88 -109 122q-107 34 -165 -30zM1052 548q1 -14 15 -37q14 -25 15 -36 q2 -11 1 -35q-2 -26 -1 -36q3 -38 43 -32q17 4 23 35q7 37 13 44q-1 0 43 6q4 -43 24 -67q-13 -5 92 -12q32 155 -31 201q-11 8 -42 12t-43 12q-16 12 -28 42q-14 36 -21 44q-54 5 -83 -39q-27 -41 -20 -102z" />
<glyph unicode="5" horiz-adv-x="1408" d="M142 -47q45 72 180 209q24 -7 69 -41q7 6 33 29q21 20 36 30q46 33 94 28q16 -1 51 -24q37 -24 53 -28q25 -5 67 -2q45 4 61 2q81 -11 127 -58q12 -11 22 -38q12 -29 19 -37q-1 1 51 -45q28 -25 24 -54q83 140 93 215q54 390 -441 585q-54 -32 -211 -139 q-129 -88 -218 -133q26 149 82 523q50 336 86 527h58q11 7 22 23q12 17 19 23q-2 -1 180 52q24 7 63 45q35 35 64 36q56 4 95 -39q-6 6 62 -88q35 4 62 28q26 22 54 24q59 4 127 -41q60 -38 70 -137q3 -28 0 -199q-2 -108 -8 -144q-15 -84 -62 -94q-65 -14 -95 60 q-26 64 -15 155q-120 8 -324 6q-272 -1 -331 0q-21 -165 -81 -575q41 22 134 88q95 66 144 92q26 96 122 163q219 19 302 -76q102 -7 181 -105q85 -104 27 -191q74 -136 35 -423q-18 -137 -162 -296q-130 -142 -319 -208q-143 -50 -168 -47q-11 1 -140 81q-60 38 -198 119 q-124 73 -196 119zM432 80q-31 -76 17 -144q22 -2 33 16q19 30 20 30l203 -116q4 -9 1 -56q-2 -36 22 -42q25 1 37 29q20 45 21 46q10 -6 19 -33q9 -25 21 -31q8 2 68 24q35 12 66 5q30 88 17 122q-4 10 -29 27q-28 20 -40 37q-8 10 -16 34q-8 23 -13 30q-32 35 -114 38 q-107 4 -136 14q-12 4 -47 27q-29 19 -46 19q-73 0 -104 -76zM531 1490q2 -10 6 -33q3 -22 6 -33q10 -36 34 -44q22 0 29 29q9 35 17 40q3 0 71 -9q37 -5 57 -25q16 -4 31 4q16 8 27 7q20 -12 31 -53q15 -52 21 -63q50 -10 65 45q17 62 45 65q3 21 -1 48q-5 31 -5 45 q-27 11 -44 43q-20 41 -31 50q-39 35 -81 5q-76 -55 -81 -57q-16 -6 -115 -20q-62 -9 -82 -44zM731 856q-9 -30 20 -62q15 1 30 13q18 14 28 16q-5 -48 35 -52q17 1 24 22l11 36q21 2 28 -13q5 -10 7 -36q3 -53 34 -50q21 3 27 37q7 42 14 50q31 -6 52 -37q6 -7 17 -28 q11 -18 18 -28q-4 -67 29 -69q15 0 23 14q1 4 5 14l6 12q34 0 43 -41q14 -66 15 -69q111 30 64 131q-43 92 -139 130q-11 5 -36 6q-23 1 -34 6q-22 10 -53 39q-28 26 -45 30q-103 24 -181 -22q-35 -21 -42 -49zM1047 1417q-5 -71 29 -107q-20 2 46 52q37 -9 46 -29 q1 -15 -3 -73q-3 -53 -2 -85q3 -103 52 -126q36 34 29 180q-1 28 2 77q4 60 4 77q2 87 -35 124q-24 25 -76 37q-58 13 -81 -13q1 -20 -4 -55q-6 -47 -7 -59z" />
<glyph unicode="6" horiz-adv-x="1547" d="M157 634q46 234 85 320q118 266 428 531q164 141 175 144q8 4 29 4q25 0 37 3q21 3 53 13q38 11 49 14q54 13 91 -3q13 -6 30 -32q18 -27 30 -35q13 -7 38 -9q27 -3 41 -9q48 -21 105 -108q58 -90 64 -157q6 -74 -6 -142q-15 -89 -55 -93q-46 -6 -68 57q-11 32 -22 118 q-14 -18 -61 -75q-38 -46 -60 -76q-11 4 -464 241q-272 -315 -241 -784q35 26 60 84q27 64 48 85q15 14 49 31q39 18 54 29q40 31 87 90q64 81 77 94q98 103 258 94q50 -4 83 -33q7 -5 30 -29q20 -21 38 -35q20 -16 81 -58q48 -33 72 -56q71 -67 82 -182q2 -20 18 -80 q14 -51 12 -76q-2 -23 -27 -65q-27 -47 -33 -68q-8 -26 -15 -84q-7 -54 -15 -79q-29 -79 -103 -175q-16 -20 -63 -77q-38 -46 -58 -74q-67 -55 -173 -137q-159 -120 -176 -134q-355 112 -531 356q-87 120 -126 282q-44 187 -7 375zM525 568q14 -1 30 9t30 9q12 -26 22 -145 q8 -94 45 -120q31 7 30 52q0 75 0 74q2 9 13 25q10 14 11 24q2 22 -11 77q-12 47 -1 73l72 -12q-1 -47 6 -64q11 -27 49 -20q17 16 8 73q-8 56 10 72q40 1 38 -53q-2 -60 22 -68q53 7 63 83q12 94 27 110q31 -69 37 -72q-25 2 54 78q15 -15 39 -9q7 2 20 7q14 6 19 8 q25 -18 19 -106q-5 -82 36 -93q19 1 32 37q12 33 40 29q18 -24 20 -124q2 -91 34 -111q23 2 28 32q1 5 4 27q1 17 4 26q21 -16 43 -12q29 39 6 105q-30 81 -24 118q-23 75 -89 128q-20 15 -62 43q-45 29 -67 46q-15 11 -31 29q-20 24 -24 27q-27 27 -77 28q-132 4 -215 -90 q-11 -12 -66 -86q-40 -54 -75 -83q-16 -14 -62 -35q-41 -19 -53 -31q-16 -18 -30 -57q-18 -47 -24 -58zM833 1539q-5 -30 21 -48q24 -17 69 -18q1 -14 2 -51q0 -34 2 -50q8 -54 50 -50q28 2 37 33q-2 -6 12 69q-41 -9 102 -90q24 -3 33 24q10 30 27 30q12 -2 13 -26 q2 -25 12 -28q9 -9 34 -14q30 -6 38 -10q-1 3 5 -103q3 -60 55 -60q18 134 6 193q-8 40 -50 102q-41 60 -70 79q-15 9 -47 13q-35 4 -50 11q-14 7 -31 32q-20 27 -29 34q-12 -2 -64 -7q-49 -6 -78 -11q-94 -17 -99 -54z" />
<glyph unicode="7" horiz-adv-x="1519" d="M190 1022q26 60 114 230q73 142 108 237q53 4 103 68q52 66 89 72q23 3 61 -11q39 -15 62 -13t63 28q43 27 65 31q71 12 154 -8q142 -34 138 -33q30 -4 103 3q65 7 96 -3q35 -12 66 -65t27 -93q-3 -24 -93 -140q-463 -591 -567 -1167q-12 -68 -19 -204q-8 -148 -16 -205 q-25 -8 -173 -66q-107 -43 -188 -62q-2 95 64 374q8 34 -9 99q-20 77 -20 105q-1 77 64 297q44 152 35 140q7 10 28 20q25 13 36 21q21 17 48 52q24 30 34 36q8 5 27 9t25 8q31 18 68 91q33 65 78 79h59q26 30 106 127q66 80 109 124q-141 1 -332 0q-318 -3 -310 0 q-36 -10 -145 -100q-21 -16 -62 -59q-38 -40 -61 -57q-4 9 -16 18q-15 12 -19 17zM482 1477q-8 -55 28 -97q38 -43 65 33q22 -1 42 16q22 18 40 19q39 -55 105 -33q95 32 128 27q103 -17 123 -12q5 -6 20 -65q10 -40 44 -40q24 10 15 68q-8 55 20 61q9 -6 18 -32 q9 -23 23 -27q19 4 50 41q26 30 67 23q12 -1 18 -25q6 -23 23 -21q54 18 68 29q32 25 19 70q-12 42 -74 50q-9 2 -113 2q-48 1 -175 37q-104 29 -181 10q-12 -3 -38 -24q-27 -22 -49 -28q-62 -17 -152 17q-17 -21 -67 -49t-67 -50zM488 76q23 1 44 -35q20 -32 43 -23 q20 7 18 58q21 -4 41 12q-2 -7 13 106q9 63 39 81q5 157 13 193q21 94 98 116q11 18 22 54q14 44 19 57q27 63 87 64q8 22 -5 128q-65 21 -98 -43q-48 -90 -78 -108q-10 -6 -33 -12q-22 -6 -31 -12q-8 -5 -28 -33q-20 -30 -36 -43q-12 -9 -35 -20q-19 -8 -23 -15 q-10 -14 -14 -56q-5 -51 -10 -66q-3 -11 -17 -36q-14 -24 -18 -40q-42 -181 -11 -327z" />
<glyph unicode="8" horiz-adv-x="1425" d="M149 357q-15 137 63 255q-41 31 -36 88q6 57 53 76q-10 234 152 430q-14 76 40 176q7 13 29 34q21 21 28 34q5 9 17 39q10 24 17 35q24 36 73 33q57 138 187 119q37 -5 80 -34q60 30 116 36q74 7 104 -36q16 -21 17 -68q1 -54 12 -79q23 -22 90 -40q60 -17 80 -45 q32 -47 16 -158q-17 -122 6 -176q-14 -53 -17 -102q-126 -176 -243 -226q164 -93 198 -125q78 -73 109 -190q33 -125 -1 -252q-65 -237 -374 -447q-144 -97 -170 -102q-16 -3 -38 3q-29 8 -36 8q-14 2 -42 0q-28 -1 -43 0q-190 20 -311 127q-131 117 -147 309q-22 34 -18 97 q6 106 6 107q0 13 -8 37q-7 25 -9 37zM200 368q2 -11 1 -40q-1 -30 0 -45q5 -55 39 -73q7 5 26 23q15 16 26 23q34 24 84 16q-2 -47 11 -57q35 -7 43 26q1 8 3 30q2 20 5 29q47 -22 45 -22q36 17 37 119q1 104 31 124q4 -72 3 -71q7 -35 37 -37q26 14 28 88q3 77 23 94 q-17 26 -61 41q-14 4 -40 11q-29 7 -41 10q-27 49 -76 57q-11 2 -116 0q-16 27 -47 16q-30 -10 -38 -39q56 -44 29 -110q-49 -117 -52 -156q-2 -36 0 -57zM415 1257q11 -5 33 -32q19 -22 41 -24q16 10 19 57q3 50 15 62q16 -7 57 2q38 8 56 -8q3 -7 5 -21q2 -17 3 -22 q6 -24 26 -25t25 20q11 40 9 37q27 1 89 26q51 21 81 13q43 -11 57 -91q15 -87 45 -107q31 9 39 71q10 68 29 82q17 -10 65 -6q41 4 60 -17q-10 -34 -4 -62q8 -33 38 -34q32 38 40 106q8 72 -23 104q-16 15 -78 29q-60 12 -81 38q-20 26 -20 78q-1 56 -20 87q-34 20 -80 -1 q-61 -27 -78 -28q-20 0 -50 15q-34 17 -46 19q-62 10 -94 -27q-6 -7 -28 -39q-19 -29 -37 -47q-50 -13 -57 -17q-13 -47 -68 -118q-54 -69 -68 -120z" />
<glyph unicode="9" horiz-adv-x="1353" d="M144 907q23 48 20 140q-3 103 11 147q3 12 19 33q17 22 22 34q3 9 5 28q2 20 5 28q28 80 115 181q89 103 161 137q48 22 116 34q81 14 120 -4q24 -10 110 -58q71 -39 115 -54q2 -5 12 -17q8 -9 9 -19q8 -1 22 -8t24 -7q-11 11 107 -139q14 -17 34 -38q21 -23 28 -31 q25 -31 31 -74q4 -32 -3 -85q-8 -67 -8 -99q0 -27 13 -85q15 -66 18 -95q6 -60 0 -123q-38 -421 -410 -753q0 -15 5 -102q3 -72 1 -115q-6 -133 -67 -136q-52 -3 -67 86q-4 25 -8 79q-3 51 -7 71q-10 0 -20 -11q-9 -11 -21 -10q-80 46 -211 111q-167 82 -209 104 q25 34 82 105q55 67 82 105q4 0 46 -20q28 41 116 42q86 1 120 -37q38 55 115 56q76 0 120 -51q117 235 77 476q-380 -262 -502 -343q-336 129 -328 487q1 8 -11 14q-11 6 -9 16zM205 948q-3 -145 52 -138q48 6 26 99q-23 101 -11 111q4 0 27 -11q16 -7 29 1q15 30 3 83 q-15 68 -13 91q30 -5 39 25q12 37 22 42q-1 4 12 -66q7 -38 35 -42q24 21 13 107q-5 36 1 53q9 24 42 30q59 -59 46 -57q19 0 29 30q10 29 32 27q3 -7 2 -47q-2 -32 14 -41q78 -8 76 82q-4 151 -5 149q31 19 44 -26q19 -60 28 -66q6 2 82 51q5 -12 32 -14q33 -2 40 -6 q-10 -27 18 -57q34 -38 38 -61q1 -7 -4 -26q-6 -22 -6 -26q-7 -64 4 -118q13 -63 42 -61q33 2 31 69q-1 91 5 105q46 -6 60 -55q8 -30 6 -98q8 -12 28 -8q23 3 24 3v-40q0 -24 2 -37q7 -39 44 -36q8 39 -1 128q-10 109 -9 143q-18 17 -105 131q-62 82 -126 110 q-28 46 -118 82q-105 42 -133 67q-184 -2 -317 -154q-90 -102 -113 -169q-3 -10 -5 -31q-1 -21 -5 -31t-21 -30q-17 -19 -20 -31q-11 -35 -16 -236zM497 231q-7 -112 21 -148q11 -9 25 4q13 12 21 6q-5 -55 20 -72q28 18 62 14q8 -2 32 -7t39 -7q28 -44 31 -162 q3 -129 21 -176q37 43 28 219q-7 160 54 191q6 -6 35 0q0 23 17 55q16 31 14 58q-130 61 -123 61q-22 -1 -53 -30q-32 -30 -49 -31q-19 -2 -82 36q-91 0 -113 -11z" />
<glyph unicode=":" horiz-adv-x="557" d="M59 100q133 -173 211 -216q22 18 57 51q40 38 56 52q90 78 113 108q-37 29 -51 51q29 107 -47 161q-75 53 -185 9q-9 -19 -84 -80q-56 -45 -49 -115q-1 -1 -16 -6q-9 -3 -5 -15zM59 913q131 -169 206 -227q29 26 115 107q71 66 116 104q2 13 -10 21q-14 8 -15 15 q8 1 10 11v20q-14 18 -35 56q-24 45 -35 61q-46 70 -110 79q-91 11 -134 -16q-10 -6 -25 -27q-17 -26 -26 -34q-58 -55 -57 -52q-13 -39 21 -98q-18 -3 -21 -20zM105 975v41q-3 -3 103 97q91 15 145 -30q46 -39 56 -108q-80 -28 -98 -42q-18 9 -15 57q-39 23 -105 -9 q-33 -15 -46 -18q-24 -4 -40 12zM141 188q11 33 55 60q42 28 91 34q52 7 85 -15q37 -25 37 -85q-15 -4 -43 -1q-33 4 -50 1q-8 -2 -12 -18t-14 -18q11 3 -41 21q3 -26 -7 -42q-9 -14 -25 -15q-14 -1 -25 12q-11 14 -10 40q4 -2 -24 9q-15 5 -17 17z" />
<glyph unicode=";" horiz-adv-x="557" d="M95 -132q44 -49 54 -54q184 100 319 364q17 166 -86 211q-99 2 -159 -30q-71 -37 -56 -109q-14 -11 -72 -68q9 -11 28 -31q22 -24 30 -34q36 -41 41 -78q7 -53 -28 -99q-12 -15 -35 -37q-31 -29 -36 -35zM104 878q109 -138 179 -184q157 134 193 188q-8 2 -14 10 q-9 11 -12 13q35 37 28 82q-6 42 -42 66q-63 43 -197 58q-46 6 -70 -33q-7 -11 -16 -34q-9 -24 -13 -31q-36 -67 -36 -59q-1 -11 11 -39q7 -18 -11 -37zM144 945q0 11 14 26l18 19q4 8 9 24q6 21 8 26q11 29 37 31q15 1 88 -19q74 -20 91 -30q32 -20 29 -52q-2 -22 -24 -65 q-29 -7 -34 22q-7 41 -11 45q-30 5 -50 -15q-28 -27 -36 -30q-42 40 -94 -22q-44 16 -45 40zM194 268q31 80 179 80q42 -14 53 -87q12 -75 -35 -97q-16 9 -12 46q3 37 -10 44q-16 3 -34 -4q-19 -7 -34 -5q-5 -4 -14 -22q-7 -15 -17 -18q-14 8 -38 31t-38 32z" />
<glyph unicode="&#x3c;" horiz-adv-x="2123" d="M65 457q-4 44 0 89q26 280 241 435q15 28 23 82q8 52 23 76q17 25 74 51q59 26 107 27q16 1 40 -7q27 -10 39 -11q13 -2 37 2q25 3 37 2q11 0 36 -10q28 -10 43 -13q129 -19 134 -23q54 -40 56 -148q6 -7 26 -18q18 -11 25 -19q146 28 190 -9q11 -10 24 -34 q16 -29 22 -36q29 -36 97 -89q70 -55 93 -82q19 -5 42 -14q82 -114 78 -255q25 -3 82 7q49 9 81 -3q10 -3 49 -38q31 -27 57 -22q14 -2 22 -17q11 -21 15 -24q42 12 61 74q17 56 9 123q-9 69 -41 106q-36 41 -89 21q-37 -14 -46 -93q-25 5 -35 38q-17 56 -16 55 q18 129 143 148q116 -21 169 -122q47 -92 31 -225q-19 -150 -146 -251q-130 -102 -281 -78q-162 1 -319 120q-66 50 -334 380q-184 227 -338 260q-159 33 -287 -68q-125 -98 -144 -257q-7 -59 9 -152q21 -120 23 -158q27 11 78 1q61 -12 80 -10q12 1 33 11q22 11 32 12 q33 2 66 -21q43 -30 59 -35q19 26 23 70q-11 2 -26 -3q-18 -7 -30 -7q-73 3 -98 82q-11 33 -3 65q8 34 37 53q63 43 139 -3q70 -43 83 -109q15 -204 -162 -287q-5 -24 -6 -72q-1 -61 -3 -77q-7 -88 -51 -96q-34 -7 -50 16q-12 18 -16 60q-13 130 -18 141q-139 21 -228 131 q-86 105 -101 258zM250 230q18 -46 77 -74q19 -9 54 -21q43 -16 55 -20q0 -24 5 -61q8 -45 9 -60v-28q-2 -20 -1 -28q1 -32 19 -41q30 26 30 109q-1 149 -2 141q4 5 13 11q10 8 13 12q15 14 16 33q-51 47 -84 46q-13 -1 -37 -14q-23 -13 -37 -14q-11 0 -65 16q-40 12 -65 -7 zM352 986q9 1 101 30q68 22 122 16q10 -1 34 -10q21 -9 35 -8q11 0 29 6q19 7 27 7q11 1 52 -4q36 -5 54 0q1 -2 5 -53q3 -33 28 -31q16 4 18 28q1 8 1 23q-1 18 -1 24q-3 1 29 -15q16 -8 32 1q17 32 -7 67q-40 59 -40 58q-35 1 -103 18q-68 18 -91 19q-8 0 -23 -5 q-16 -5 -24 -4q-19 0 -62 13q-37 10 -63 5l-116 -56q-5 -22 -18 -64q-13 -43 -19 -65zM1020 907q-1 -8 8 -23q12 -19 15 -28q22 -73 18 -70q14 -4 28 9q12 10 19 5q29 0 38 -29q5 -18 3 -64q-3 -49 1 -66q6 -31 32 -35q17 9 18 51q1 54 5 65q47 -12 66 -64q14 -36 17 -112 q13 -8 25 -2q28 13 22 11q0 -16 27 -51q30 -37 33 -47q2 -6 -3 -78q-3 -44 31 -42q18 1 27 32q10 38 19 47q7 -18 31 -50q23 -30 29 -52q17 -4 28 7q12 12 23 11q19 -3 35 -30t35 -30q-4 0 23 28q2 -7 21 -5t21 -4q0 -5 -1 -30q0 -18 1 -27q5 -29 32 -27q-11 -4 28 84 q-2 0 46 9q4 31 -14 60q22 6 -106 56q-32 12 -84 -1q-59 -14 -88 -8q-8 22 -30 140q-17 89 -48 124q-23 9 -42 14q-21 25 -93 84q-73 59 -97 87q-9 11 -27 41q-15 26 -24 33q-30 23 -87 17q-59 -7 -61 -40z" />
<glyph unicode="=" horiz-adv-x="1531" d="M87 251q145 -7 448 -5q304 2 448 -4q1 -12 6 -76q4 -53 10 -82q18 -91 76 -78q39 9 40 98q0 26 -3 76q-3 49 -2 66q30 1 173 0q106 -1 167 5v157h-236q-35 70 -111 79q-21 2 -181 -9q-23 -2 -56 -2h-47q-49 -2 -72 -20q-8 -5 -11 -22q-4 -22 -6 -26h-66q-23 35 -79 61 q-57 27 -113 26q-12 0 -40 -7q-28 -6 -43 -6q-14 1 -44 8q-26 7 -39 5q-34 -4 -66 -38q-41 -43 -52 -49h-101v-157zM87 701h1363v161h-100q-1 2 -2 8q-1 7 -2 12q-5 15 -14 19q-3 1 -86 20q-57 13 -96 18q-115 16 -180 -16q-17 -8 -40 -31q-23 -22 -39 -30h-258 q-8 10 -21 29q-15 22 -21 30q-26 35 -58 50q-42 20 -99 9q-7 -2 -48 -12q-30 -8 -50 -10q-17 -1 -56 1q-33 2 -44 -1q-25 -7 -48 -46q-26 -44 -35 -50q-69 -6 -66 -4v-157zM205 840q-1 28 14 48q5 6 15 15q11 11 15 16q43 -14 122 8q84 24 118 18q46 -8 79 -46 q36 -42 22 -89q-13 -4 -41 4q-29 9 -51 4q-4 -4 -11 -30q-6 -19 -20 -22q-18 1 -27 21q-2 5 -6 18l-6 18q-136 -4 -223 17zM249 418q23 34 66 38q10 1 28 -5q20 -7 28 -8q19 -2 52 5q35 8 49 8q53 0 101 -22q55 -25 43 -57q-31 8 -86 -2q-64 -12 -84 -11q-6 -3 -34 -25 q-17 -12 -36 -10q-10 2 -20 14q-11 14 -20 17q10 -4 -83 -9q-28 32 -4 67zM773 421q18 18 63 18q2 0 44 -1q29 -1 50 1q26 1 81 9q46 6 68 6q69 1 100 -50q-51 -74 -43 -70q-16 -3 -22 13q-6 20 -13 22q-13 1 -22 -5q-13 -43 -6 -160q6 -110 -12 -154q-26 45 -38 152 q-14 134 -23 167q-10 -5 -37 -2q-29 2 -46 -3q-9 -2 -20 -14q-10 -11 -19 -12t-19 5q-15 9 -25 13q-43 13 -48 16q-19 13 -13 49zM948 818q-7 57 65 78q60 18 136 5q141 -23 175 -43q-5 -20 -22 -36q-5 -5 -15 -13l-16 -12q-14 -2 -21 11q-8 17 -14 19q-22 1 -147 -21 q-88 -16 -141 12z" />
<glyph unicode="&#x3e;" horiz-adv-x="2237" d="M29 396q-15 149 61 249q80 106 216 83q67 -26 89 -110q22 -87 -34 -141q-10 12 -21 49q-11 34 -24 46q-41 11 -78 3q-38 -8 -53 -33q-45 -130 8 -244q52 -113 163 -138q44 -6 91 9q59 19 80 21q37 159 43 174q33 90 103 113q3 72 90 140q118 93 131 111q5 7 13 25 q7 18 12 26q5 6 19 20q12 12 17 20q12 22 28 77q15 51 32 74q11 15 42 34q44 27 49 31q22 18 65 72q37 48 60 59q38 18 94 9q49 -7 88 -29q23 -13 64 -62q37 -45 71 -59q466 -25 619 -488q35 -243 -50 -415q-90 -181 -277 -204q-142 -17 -246 65q-105 82 -106 217 q-1 140 136 191q65 17 106 -16q36 -28 41 -81q6 -52 -21 -91q-29 -43 -81 -43q-16 -4 -30 2q-19 7 -25 8q-10 -32 3 -60q7 -16 32 -46q14 12 32 35q24 28 31 36q38 40 88 45q12 17 45 42q36 27 51 43q9 11 25 37q15 26 25 37q35 40 96 32q19 151 -74 293q-94 142 -228 165 q-214 37 -391 -121q-40 -35 -253 -302q-9 -10 -26 -27q-17 -19 -25 -28q-132 -159 -200 -216q-134 -112 -288 -131q-214 -26 -360 81q-148 109 -168 311zM582 240q4 -5 18 -30q10 -19 23 -25q17 10 36 8q26 -1 39 2q-5 102 43 179q21 34 103 118q3 -38 30 -40q27 6 24 35 l-4 50q8 39 81 111q14 14 111 80q64 44 80 96q102 28 161 10q2 9 6 38q3 25 7 40q11 46 37 63q0 -28 13 -49q11 -18 26 -22q16 -3 24 11q9 17 3 50q3 5 10 12q10 9 11 11q13 15 9 37q-85 75 -97 83q-62 39 -119 18q-17 -6 -48 -44q-41 -50 -48 -57q-19 -18 -63 -46 q-36 -23 -48 -39q-14 -20 -27 -64q-14 -50 -23 -67q-5 -10 -19 -25q-16 -18 -21 -25q-7 -10 -16 -32t-15 -29q-31 -43 -98 -91q-79 -55 -103 -80q1 -85 -80 -116q-43 -53 -66 -171zM1694 44q30 -38 126 -55q9 5 18 25q9 19 17 25q19 -2 79 10q39 7 62 -15q25 11 35 44 q9 31 0 67q28 28 25 80q0 13 -5 46q-4 32 -4 50q-47 15 -73 -18q-8 -10 -20 -32q-11 -22 -18 -31q-6 -7 -25 -18q-21 -13 -31 -22q-10 -10 -23 -27q-14 -18 -20 -24q-24 -24 -62 -19q-74 -73 -81 -86z" />
<glyph unicode="?" horiz-adv-x="925" d="M108 1205q23 4 149 53q89 34 172 19q88 -15 127 -97q37 -76 23 -191q-2 -18 -56 -171q-9 -27 -99 -372q-12 -43 -11 -249q29 -20 83 -11q31 244 50 299q48 103 166 283q116 177 120 185q59 120 40 252q-2 15 -22 56q-18 37 -16 50q1 9 19 28t19 32q10 77 -49 144 q-11 12 -45 31q-38 20 -50 30q-9 9 -31 43q-20 31 -30 35q-33 14 -156 15q-125 0 -159 -15q-15 -7 -40 -37q-22 -27 -38 -29q-78 12 -88 -60q-10 -66 27 -101q-10 -25 -56 -108q-36 -65 -49 -114zM208 -146q117 -170 221 -233q44 27 128 108q76 75 133 103q41 70 33 171 q-8 107 -67 144q-38 25 -88 8q-8 -2 -41 -16q-26 -11 -42 -14q-59 -11 -78 -19q-33 -14 -39 -42q5 -54 6 -55q-94 -82 -166 -155zM235 1532q40 -11 81 25q54 49 63 53q44 17 125 4q90 -14 136 -4q14 -31 106 -102q77 -61 77 -120q-1 -11 -10 -25q-11 -16 -13 -25l4 -42 q2 -24 -20 -30q-38 4 -40 82q-2 81 -32 90q-3 -67 -11 -72q-31 -9 -50 19q-17 27 -11 70q-7 15 -45 16q-45 1 -55 6q3 -30 -11 -49q-13 -17 -32 -18q-20 -2 -33 13q-14 17 -13 48q-20 8 -54 -3q-38 -12 -62 -8q-10 -3 -19 -25q-9 -19 -25 -19q-35 17 -53 46q-21 35 -3 70z M418 42q3 24 33 30q7 1 32 3q21 2 35 6q1 0 50 23q31 15 55 4q46 -19 54 -126q8 -111 -54 -128q-11 5 -17 32q-6 28 -16 34q-29 -14 -53 -8q-28 6 -30 36q-5 -1 -19 -9q-11 -6 -25 -2q-63 111 -45 105z" />
<glyph unicode="@" horiz-adv-x="2019" d="M132 553q-16 319 95 516q-51 81 -28 158q36 119 99 193q57 67 169 90q11 3 37 2q25 -1 38 2q21 6 66 55q37 41 88 36q52 -5 91 -16q7 -2 23 -13q14 -9 24 -10q12 -2 30 5q26 9 33 10q27 6 86 10q63 5 95 10q14 106 204 76q177 -27 233 -96q33 -40 20 -67 q139 -66 236 -188q108 -136 131 -304q28 -209 -34 -388q-58 -166 -179 -270q15 -73 5 -143q-11 -85 -56 -86q-36 0 -44 54q-2 8 -5 47q-2 30 -7 45q-132 -59 -212 -47q-76 11 -123 75q-42 58 -51 146q-117 -199 -307 -221q-140 9 -220 107q-74 92 -76 232q-2 270 209 453 q-7 52 39 100q44 46 99 53q7 1 26 0q17 -1 25 0q13 3 30 17q20 15 29 19q52 20 127 4q73 -15 98 -47q65 28 122 -4q19 -11 83 -71q24 -65 7 -141q-5 -22 -20 -68q-16 -48 -23 -75q-3 -15 -21 -89q-13 -54 -22 -88q-5 -19 -23 -71q-17 -51 -25 -80q-24 -98 9 -153 q18 -30 67 -41q51 -11 90 10q-11 177 32 224q5 6 22 16t25 20q6 7 25 41q14 26 30 34q12 6 47 10q30 4 44 13q13 10 39 63q20 41 55 40q11 214 12 205q-33 357 -378 520q-3 -24 -2 -83q0 -57 -3 -84q-13 -89 -93 -85q-47 36 -62 123q-8 50 -9 168q-230 42 -461 -31 q-153 -49 -284 -170q-264 -244 -296 -587q-31 -341 144 -557q152 -186 444 -262q4 45 39 71q19 14 83 39q76 30 122 28q13 -1 37 -14q23 -13 34 -14q25 -2 88 33q58 33 109 22q34 -7 63 -47q37 -50 51 -59q131 51 236 126q16 -3 36 -43q-166 -128 -374 -182q1 5 -14 -151 q-8 -91 -61 -93q-48 -1 -65 76q-15 69 2 137q-11 3 -18 -3t-14 -5q-262 -25 -445 24q-139 36 -248 106q-206 131 -296 315q-3 7 -8 21q-4 15 -8 22q-2 7 -12 19q-9 11 -11 17q-11 30 -23 95q-12 69 -21 94zM230 1150q8 -40 40 -49q56 53 83 98q3 5 14 32q8 19 18 27 q7 6 25 11q19 4 26 9q8 6 15 21q8 17 12 22q19 22 154 115q10 6 30 27q17 18 29 24q11 5 30 9q24 6 30 8q34 11 47 42q-88 26 -107 24q-29 -4 -59 -38q-34 -39 -47 -45q-18 -8 -46 -9q-37 -1 -49 -3q-169 -33 -240 -256q-12 -36 -5 -69zM834 1053q8 -4 16 -33q6 -24 27 -22 q51 66 55 67q5 -71 8 -75q33 -4 39 32q11 57 12 59q93 -20 111 -20q3 5 13 28q7 18 18 24q33 -12 23 -93q-5 -39 -2 -55q5 -25 30 -30q17 13 20 57q5 59 8 69q12 -6 22 -34t25 -33q11 1 18 14q9 15 14 18q2 -9 1 -31v-36q3 -44 30 -47q15 4 16 29q1 7 0 23v22q-7 -3 36 67 q62 7 44 53q-17 45 -64 50q-7 -1 -38 -13q-27 -9 -45 -7q-12 2 -27 17q-18 18 -28 23q-77 31 -150 7q-10 -3 -33 -21q-21 -17 -34 -18q-68 -6 -101 -20q-45 -20 -64 -71zM889 -73q1 -42 37 -49q11 -3 36 -4q28 -1 41 -3q6 0 19 -6q11 -5 17 -5q34 -4 106 6q69 10 99 5 q20 -18 21 -104q2 -79 34 -93q26 10 26 56q0 77 1 82q3 13 19 40q12 20 9 35q-1 -1 49 21q26 11 30 34q4 29 -22 63q-23 31 -45 40q-46 17 -111 -19q-71 -39 -98 -36q-9 1 -25 12q-16 13 -26 15q-54 12 -137 -25q-80 -36 -80 -65zM1117 1605q12 -25 48 -27q71 -2 63 -1 q9 -1 43 -15q26 -11 43 -8q25 -13 27 -53q0 -12 -1 -37q-2 -27 -2 -40q1 -53 18 -102q19 -53 41 -52q35 1 37 94q4 135 3 127q78 20 51 57q-20 28 -91 57q-82 34 -138 39q-134 14 -142 -39zM1551 321q10 -1 23 8q11 9 20 3q11 -16 14 -88q3 -62 30 -73q25 22 24 89 q-1 8 -4 57q-2 35 -1 55q11 7 67 98q120 196 126 241q-14 10 -27 11q-42 -117 -158 -122q-7 -31 -46 -63q-44 -37 -52 -51q-14 -24 -13 -71q1 -67 -3 -94z" />
<glyph unicode="A" horiz-adv-x="1730" d="M71 -267q1 108 53 202q0 -1 105 151q-5 49 -5 93q0 63 10 116q23 118 90 150q-103 136 -138 202q-66 124 -73 268q18 244 185 423q163 174 385 199q17 2 45 2t67 -2q18 -1 33 -1q48 0 82 7q6 13 15 34q8 23 12 31q15 32 42 45q59 31 110 32h2q17 0 43 -14q29 -15 50 -18 h3q18 0 67 9q26 5 46 5q15 0 27 -3q16 -12 53 -53q26 2 49 2q128 0 156 -76q10 2 43 14q25 9 47 7q-6 -31 -41 -64l-59 -57q-107 -128 -107 -325q0 -17 1 -34q6 -118 6 -439v-47q0 -253 10 -384q21 -18 79 -114q44 -74 106 -87q21 -61 21 -58q-12 -14 -59 -52 q-38 -31 -52 -59q5 -36 5 -67q0 -44 -10 -76q-17 -57 -62 -57q-13 0 -28 5q-43 13 -42 90q-3 -1 -63 -48q-133 62 -217 296q-55 -36 -192 -141q-129 -99 -203 -144q-203 96 -375 184q-8 4 -39 23q-26 17 -44 24q-26 11 -50 11q-28 0 -52 -15q-17 -18 -17 -46q0 -19 8 -41 q20 -63 20 -87v-6q-9 -51 -66 -54h-8q-50 0 -74 44zM229 762q44 -152 132 -243q38 88 42 93q27 36 77 36q11 0 24 -2q47 94 95 130q38 28 82 28q38 0 81 -21q1 38 52 80t49 73q-3 30 -56 55q-45 21 -87 24h-15q-73 0 -129 -43q-15 -12 -47 -43q-29 -28 -46 -41q1 133 81 207 q66 61 198 89q6 44 71 58q83 18 98 31q-125 37 -227 37q-65 0 -121 -15q-181 -49 -274 -179q-84 -116 -84 -279q0 -36 4 -75zM270 181v-18q0 -107 33 -140q20 -5 38 5q20 11 31 11q7 -7 19 -31q11 -21 23 -27q50 11 50 77q0 24 -5 68q-7 48 -8 66q-3 49 -3 88q0 79 12 123 q23 84 102 111q11 -18 74 -22q1 -16 -1 -61v-27q0 -24 1 -38q5 -69 44 -69h3q42 3 50 123q15 211 13 204q3 13 10 32q10 26 11 29q11 32 -10 50q-42 23 -75 23q-46 0 -76 -44q-8 -12 -20 -34q-13 -26 -18 -34q-23 -38 -48 -48q-11 -4 -35 -1q-23 2 -39 -4q-26 -41 -43 -148 q-9 -13 -49 -40q-37 -24 -51 -50q-30 -57 -33 -174zM810 1126q12 -12 35 -9q37 4 44 3q6 -10 31 -33q22 -19 27 -35q0 -1 8 -188q5 -134 50 -134h5q30 4 36 79l1 111q0 18 -11 101q-6 51 -6 82q0 14 1 23q3 14 8 34q7 22 8 28q6 27 -16 43q-18 18 -57 2q-70 -28 -69 -28 q-12 -3 -48 -8q-28 -4 -40 -9q-19 -8 -19 -26q0 -15 12 -36zM968 1506q14 -16 56 -23q54 -10 65 -14v-23q0 -53 8 -77q14 -45 59 -45q8 0 18 2q8 5 15 33q6 24 22 25q22 0 28 -27q12 -55 9 -47q4 -8 22 -19q17 -11 20 -23q2 -16 2 -50q0 -37 1 -52q4 -58 34 -61 q-18 2 -18 26q0 53 87 216q35 -11 47 0q11 12 16 45q6 40 10 50q7 6 23 16q15 10 22 17q23 21 19 57q-19 31 -75 31h-4h-18q-61 0 -77 6q-13 5 -31 25q-17 20 -27 22q8 -2 -117 -15q-37 32 -87 32q-27 0 -58 -10q-75 -23 -75 -85q0 -15 4 -32zM1469 118q-13 -14 -13 -34 q0 -27 24 -66q-15 -23 -8 -56q2 -10 7 -27q5 -16 6 -23q2 -12 2 -125q-1 -75 30 -97q12 29 18 153q5 99 50 132q-51 102 -116 143z" />
<glyph unicode="B" horiz-adv-x="1722" d="M49 1226q33 149 111 221q79 73 211 72q19 0 39 -1q4 0 205 -46q61 -14 114 -14q61 0 111 19q-1 9 -1 17q0 50 40 91q45 47 106 47h5q15 0 45 -15q29 -13 42 -12q16 2 40 28q28 31 38 36q39 21 77 21q54 0 106 -44q32 12 63 12t62 -12q64 -26 71 -87q114 -31 114 -166 q0 -27 -4 -58q-16 -28 -60 -59v-6q0 -137 -83 -244q-25 -34 -79 -88q-57 -58 -80 -87q142 -18 212 -78q77 -66 90 -201q4 -46 4 -111q0 -47 -2 -103q-7 -182 -7 -224q-285 -68 -484 -183q-144 -83 -137 -83q6 1 -178 55q-172 51 -306 51q-41 0 -78 -5q-80 -10 -143 -40 q-77 -36 -86 -88q-1 -4 0 -9q0 -28 17 -88q7 -23 7 -43q0 -29 -15 -52q-8 -6 -86 -9q-10 5 -22 20q-13 16 -20 21q-2 16 -2 33q0 116 122 249q156 171 168 253q2 10 2 19q0 33 -20 63q-16 5 -33 5q-31 0 -62 -20q-80 -54 -79 -53q-8 32 -8 61q0 68 44 118q53 60 156 81 q5 24 5 45q0 100 -107 126q-36 9 -74 9q-74 0 -153 -34q26 210 284 229q11 222 201 411q-24 -9 -60 -9q-65 0 -168 30q-63 18 -110 18q-61 0 -96 -30q2 3 -24 -35q-17 -24 -45 -24zM488 102q48 25 132 114q-1 8 -1 17q0 46 28 89q50 76 55 90q3 8 5 24q2 15 5 22q4 9 19 27 q14 16 17 28v260q0 214 5 261q-19 24 -23 55q-2 17 -2 33q0 40 14 74q5 11 20 38q13 23 18 37q3 7 6 31q3 25 8 38q4 10 18 34q10 16 5 12q-156 -98 -178 -361q-4 -48 -4 -122q0 -65 3 -151q4 -101 4 -172q0 -61 -3 -99q-14 -184 -151 -379zM661 248q6 -7 20 3t17 6 q1 -69 30 -69h2q22 3 21 37v29q0 38 2 49q1 6 12 27q10 19 11 27q0 14 -11 50q-10 33 -8 42q-7 -47 -44 -105q-42 -65 -52 -96zM762 1107q0 -20 12 -61q13 -44 15 -76q2 -15 4 -66q1 -39 4 -59q9 -58 42 -58h1q35 1 35 69v8q-1 22 -6 66q-6 44 -7 58q-5 113 -5 173 q0 37 2 54q11 110 77 116q13 -13 20 -66q7 -43 34 -44q-5 0 -5 5q0 18 74 105q28 -14 34 -55q2 -12 4 -38q1 -27 3 -40q15 -114 60 -114h4q34 4 41 105q1 17 1 43.5t-1 62.5t-1 59.5t1 35.5q7 98 32 105q25 8 37 -12q7 -14 12 -49q5 -41 10 -53q8 -24 28 -23q29 2 37 71 t41 71q25 -3 32 -59q1 -9 1 -27t-1 -46q-2 -66 -2 -94q3 -109 41 -109q3 0 6 1q28 6 28 69q0 14 -1 32q-2 25 -2 45q0 59 16 69q4 -3 24 -38q14 -23 40 -21q20 16 20 53v7q-2 37 -2 58q0 16 1 23q-10 13 -72 52q-47 29 -52 72q-31 30 -77 30q-35 0 -78 -17q-13 9 -31 26 q-12 12 -24 16q-15 4 -30 4q-38 0 -73 -29q-59 -51 -75 -53q-16 -3 -48 12q-35 15 -53 15h-2q-24 0 -61 -24q-43 -26 -51 -53q-4 -17 -4 -47v-21v-18q0 -30 -5 -47q-3 -10 -18 -29t-19 -30q-3 -9 -4 -29t-5 -31q-59 -160 -59 -155z" />
<glyph unicode="C" horiz-adv-x="1846" d="M83 422q-9 96 -9 191q0 161 26 323q9 57 27 99q7 15 29 41q21 25 27 42q4 11 6 41q2 29 5 36q27 63 105 91q29 10 54 10q46 0 78 -35q7 14 29 25q23 12 32 25q12 17 24 65q11 45 25 62q45 53 133 66q7 1 29 -1q20 -2 32 1q19 6 52 31q42 32 58 41q96 55 121 61q14 3 41 3 q29 0 42 2q25 5 73 17q47 13 71 17q29 5 57 6q49 0 92 -18q31 -13 69 -59q42 -51 69 -68q16 2 31 2q66 0 109 -33t44 -87q0 -10 -2 -20q-6 -43 -66 -100q-77 -73 -83 -82q-6 -185 -9 -200q-17 -93 -85 -93q-5 0 -11 1q-54 5 -64 78q-3 22 -4 69q-2 52 -4 73q-49 29 -146 62 q-119 40 -152 54q-5 -120 -5 -690q0 -557 16 -673q11 9 20 35q10 28 19 37q46 47 88 49h5q34 0 70 -34l63 -59q109 16 265 132q126 94 166 99q-100 -245 -305 -386q-198 -137 -450 -137q-47 0 -95 5q-173 16 -194 22q-8 2 -24 11q-17 8 -25 11q-245 70 -364 237v-10 q0 -45 -41 -102q-32 -43 -65 -43q-21 0 -43 17q-38 30 -39 348q0 25 8 69t8 58q0 27 -14 80q-16 59 -19 85zM158 -101q0 -46 19 -73q42 8 55 69q6 31 6 108q-1 71 -13 309q-6 120 -6 217q0 58 2 109q6 121 6 144l-11 143q4 16 26 43q29 36 35 45q81 133 88 232h-8 q-82 0 -116 -97q-44 -127 -75 -146q-6 -16 -6 -64t6 -129q5 -72 5 -177.5t-5 -242.5q-7 -196 -7 -315q0 -59 2 -99q0 -13 -1 -38q-2 -28 -2 -38zM340 288q3 -67 47 -81v9q0 86 37 154q41 75 112 102q-5 46 -5 118q0 84 7 203q7 124 7 206q0 63 -4 102q-2 20 -16 52 q-15 34 -17 48q5 -1 -5 -17q-148 -228 -160 -392q-7 -92 -7 -189t7 -197q1 -19 -1 -58q-2 -31 -2 -49v-11zM448 284q21 -40 24 -188q3 -132 42 -170q28 22 28 95q0 22 -3 50q-11 109 -11 157q0 19 2 29q3 16 20 38q14 19 13 34q-1 33 -20 47q-18 13 -42 4q-54 -19 -54 -79 q0 -8 1 -17zM541 1317v-8q0 -53 34 -171q26 -87 25 -152q0 -24 -3 -45q19 3 45 -14q23 -14 37 -8q51 25 51 130q0 14 -1 30q-2 30 -2 55q0 95 24 122q2 -8 5 -26q2 -17 5 -25q8 -27 34 -26q39 28 39 171l30 25q18 15 31 24q43 3 99 46q71 55 94 65q4 -11 5 -53q1 -36 11 -47 q5 -1 10 -1q38 0 39 42q1 15 -4 42q-5 32 -6 39q8 1 16 1q42 0 72 -23q3 -22 4 -68q1 -48 3 -69q8 -76 49 -95q37 15 37 84q0 15 -4 63q-3 35 0 52q58 -32 66 -61q6 -22 6 -81.5t-6 -156.5q-2 -31 -2 -57q0 -114 35 -147q43 29 43 127v21q-3 72 -3 117q0 51 4 66q2 6 14 19 q10 10 8 20q13 -21 34 -25q20 -3 37 8q28 18 28 46q0 17 -10 37q32 26 33 17q-4 46 -53 53q-101 15 -96 13q-32 11 -68 60q-38 51 -59 62q-32 16 -76 16q-27 0 -58 -6q-24 -4 -70 -17q-45 -12 -67 -16q-10 -1 -28 0q-20 1 -27 0q-50 -6 -143 -60q-15 -9 -54 -40 q-30 -26 -51 -32q-15 -4 -44 -8q-40 -5 -51 -7q-65 -11 -93 -46q-24 -29 -28 -82zM1104 -96q15 -13 27 -74q10 -48 38 -48h2q-2 0 -2 2q0 8 46 59q2 -33 22 -33h22q14 12 10 47q-6 39 1 52q-32 44 -89 49h-8q-54 0 -69 -54z" />
<glyph unicode="D" horiz-adv-x="2032" d="M84 435q28 136 109 189q18 11 54 21q41 11 55 18q23 11 87 69q56 50 102 60q15 4 48 1q28 -2 41 4q12 29 12 77q0 18 -2 39q-4 42 -4 70t4 42q9 36 114 129q89 79 139 99q-10 -1 -95 -3q-70 -1 -99 -11q-48 -4 -92 -4q-353 0 -418 281v144h9q79 -97 95 -109q19 -3 36 18 q21 23 38 27q5 1 12 1q23 0 66 -11q44 -11 72 -11q8 0 14 1q33 -46 39 -70h50q7 11 16 32q12 28 16 35q22 43 57 52q16 5 54 4q50 0 65 1q113 10 109 10q13 -1 37 -17q25 -15 38 -17q11 -2 33 2t31 3q37 -5 90 -70q-2 -1 39 52q28 36 60 37q12 1 57 -11q48 -13 77 -13h34.5 h46.5q56 2 78 2q86 -1 118 -27q20 -15 33 -50q13 -32 27 -40q127 -13 164 -64q14 -20 28 -68q17 -53 26 -71q8 -13 33 -40q23 -23 27 -34q6 -20 -3 -56q-9 -40 -7 -53q1 -12 16 -34q16 -22 18 -36q4 -19 4 -39q0 -46 -19 -98q-36 -100 -39 -121q0 1 10 -104q6 -60 6 -137 q0 -62 -4 -134q-12 -238 -12 -259q-227 -100 -417 -278q-320 112 -602 112q-49 0 -97 -3q-274 -20 -600 -189q18 -28 18.5 -63.5t-18.5 -79.5q-16 -37 -39 -50q-10 -5 -20 -5q-17 0 -35 15q-15 13 -24 102q-4 46 -4 77q0 27 3 44q12 59 69 109q6 6 22 10q16 5 23 10 q53 40 118 133q68 97 85 165q16 60 10 54q-13 128 -84 184q-35 16 -73 16q-33 0 -68 -12q-12 -4 -117 -59zM144 -185q-2 -11 -2 -25q0 -24 6 -59q7 -36 7 -63q0 -15 -2 -26q34 12 34 56q0 9 -2 20q-2 17 -27 92q358 220 422 288q7 47 56 101q12 13 41 43q26 26 37 39 q8 11 21 34q10 19 19 26q58 48 136 48q32 0 67 -8q1 19 1 40q0 115 -23 300q-28 233 -28 329q1 46 25 111q31 79 35 97q-106 -56 -141 -95q-52 -58 -63 -167q-2 -26 -2 -67q0 -60 5 -151q3 -60 3 -110q0 -69 -6 -119q-18 -145 -143 -307q-92 -119 -333 -288q-7 -5 -42 -28 q-28 -18 -44 -30q-50 -39 -57 -81zM297 1521q-1 4 13 -107q8 -56 49 -56h3q30 1 49 44q6 14 13 40q10 33 12 40q41 -5 45 24q-3 8 -12 16q-10 10 -13 14q-5 -1 -12 -1q-26 0 -83 11q-10 2 -19 2q-33 0 -45 -27zM401 683q1 -9 5 -65q3 -39 8 -61q15 -64 72 -67q-1 -91 44 -95 h4q58 0 59 135q0 22 -4 116q-1 30 -1 52q0 29 2 45q-131 -11 -189 -60zM580 28q21 -61 50 -64q23 11 28 61q6 66 11 78q34 7 65 52q32 47 59 57q7 -29 40 -45q11 -2 24 12q12 11 16 8q2 -11 7 -41q3 -28 7 -41q11 -38 40 -38q5 0 10 1q37 7 37 83q0 12 -1 26q-2 24 -10 84 q-6 50 -6 70q-24 9 -53 9q-52 0 -121 -29q-181 -244 -203 -283zM625 1516q35 -10 34 -5q-7 -24 -7 -43q0 -45 40 -62q22 -10 43 1q22 12 28 45q12 -52 30 -65q32 -6 48 15q4 6 11 20t11 20q10 -8 28 -41q13 -24 36 -24q51 2 51 91q0 11 -1 23q20 5 48 6q30 1 46 4q3 10 5 10 q-2 45 -44 50q-11 1 -38 -1q-25 -1 -37 1t-38 17t-41 18q-8 1 -17 1q-31 0 -85 -10q-44 -8 -76 -8q-17 0 -31 2q-16 -10 -44 -65zM1155 1506q-1 -7 -1 -14q0 -29 13 -66q19 -53 48 -54q23 0 35 19q20 32 24 36q5 -15 17 -182q9 -125 53 -125h1q46 0 50 120q5 136 23 152 q26 -10 47 -76q16 -49 51 -49q5 0 11 1q38 7 42 66q1 13 0 54q0 35 3 54q23 -8 58 -29q38 -23 56 -31q58 -190 58 -235q0 -14 -5 -14q-1 0 -3 1q13 -1 28 15q13 15 21 10q28 -149 30 -178q1 -20 1 -65q0 -49 1 -69q4 -77 33 -80h3q36 0 37 80q0 9 -1 20q21 -7 45 -5 q30 38 30 77q0 36 -24 80q-29 54 -31 66q-3 19 6 57t4 62q-42 22 -65 90q-29 89 -39 103q-19 28 -69 34q-61 7 -90 26q-16 10 -32 43q-18 37 -27 46q-43 16 -115 16h-16q-80 -1 -114 -1h-23q-14 1 -52 12q-30 8 -48 8h-4q-20 -2 -44 -26q-23 -25 -26 -49z" />
<glyph unicode="E" horiz-adv-x="1807" d="M94 351q-6 58 -6 100.5t6 70.5q21 595 496 827q16 25 110 143q14 5 33 2q24 -3 39 -2q16 14 44 54q32 44 47 60q38 40 78 40q25 0 51 -16q26 32 74 40q11 2 21 2q35 0 60 -20q7 -6 12 -20q7 -19 10 -24q14 -22 41 -48q36 -34 36 -35q7 1 77 32q30 14 59 13q20 0 41 -6 q8 -3 23 -19q17 -16 26 -20q21 -8 56 -9q30 -2 38 -7q18 -12 33 -51q14 -39 28 -48h49q2 -11 2 -21q0 -26 -13 -48q-8 -13 -44 -53q-183 -199 -182 -198q4 -7 53 -38q40 -26 46 -56q70 -6 88 -6q8 0 6 1q-21 -69 -68 -164q-62 -124 -75 -156h-43q-59 0 -184 -1h-34 q-116 0 -186 6v-595q28 -15 106 -32q67 -14 98 -40q30 5 55 5q82 0 122 -49q92 41 231 143q53 39 83 39h5q-203 -448 -634 -518q-73 -3 -135 -3q-185 0 -267 25q-155 46 -254 110q-143 92 -237 240q-102 161 -121 350zM290 562q1 -23 6 -66q6 -50 7 -68q2 -20 1 -53v-50 q2 -52 27 -68q17 -3 30 15q11 16 25 7q-1 -17 -1 -31q0 -67 12 -79q15 -7 30 7q13 11 20 4v-69q0 -49 3 -78q8 -85 49 -85h3q33 3 33 55v6q-1 18 -5 50q-6 34 -6 44q-2 34 -2 88q0 81 5 205q5 112 5 185q0 57 -3 90q-25 -12 -59 -12q-22 0 -47 5q-36 7 -62 7q-24 0 -41 -6 q-30 -28 -30 -91v-12zM336 731q19 -2 53 -10q31 -6 46 -8q13 -2 26 -2q36 0 68 15v358q26 18 103 87q62 56 101 73q-8 -32 -8 -60q0 -56 34 -94q21 -24 45 -21q26 3 45 37v-57q0 -38 3 -61q9 -69 58 -69q43 0 61 43q14 32 17 100q7 173 27 199q6 -6 13 -15q9 -10 10 -12 q12 -12 32 -12q38 0 50 30q6 15 6 49v18q-1 22 -1 38q0 24 2 35q7 36 36 45q8 3 18 3q20 0 46 -11q36 -15 67 -15q7 0 13 1q-4 -19 -5 -36q0 -40 26 -67q18 -18 36 -18q20 0 42 22q10 -35 31 -46q20 -10 41 2q38 23 38 71q0 18 -5 39q42 2 55 28v5q0 17 -11 30 q-21 23 -22 25q-10 -2 -20 -2q-36 0 -75 23q-49 29 -73 29h-3q-8 -1 -60 -23q-23 -10 -46 -10q-16 0 -32 5q-109 104 -121 127q-28 0 -86 -35q-15 -9 -31 -9q-24 0 -49 22q-34 -10 -87 -97q-36 -60 -100 -60q-13 0 -28 3q-2 -6 -24 -33q-16 -20 -14 -45q-299 -244 -348 -634 zM1037 -123q6 -8 28 -16q20 -8 27 -17v-56q15 -16 35 -16q32 0 75 44q10 -9 25 -9t36 9q5 -6 16 -42q8 -27 28 -30q22 6 28 36q1 5 5 58q30 -4 44 11v99q-25 15 -118 16q-80 0 -103 34q-7 1 -21 -4q-11 -4 -23 -1q-27 31 -48 31q-19 0 -33 -27t-14 -58q0 -29 13 -62z M1312 941q4 -14 22 -23q23 -12 33 -27q-11 -32 -11 -60q0 -6 1 -13q4 -45 38 -48q36 30 50 154q55 30 55 54q0 30 -36 45q-22 9 -49 9q-10 0 -22 -1q-41 -5 -64 -27q-20 -19 -20 -44q0 -9 3 -19z" />
<glyph unicode="F" horiz-adv-x="2046" d="M43 -267q9 179 77 269q63 82 172 82q37 0 79 -9q26 40 97 40h13q26 -1 71 -8q50 -8 67 -9q25 25 75 25h7q51 -1 86 -25q11 134 11 351v69q-2 217 -2 329q0 75 1 103q-69 4 -125 4q-163 0 -227 -36q-10 -7 -51 -46q-31 -30 -61 -34v6q0 205 187 289q12 81 103 108 q49 14 87 14q57 0 87 -33q0 17 -1 104v18q0 51 5 79q15 10 38 0q28 -12 42 -9q19 3 68 49q63 58 77 68q11 8 28 28q16 19 24 23q69 39 140 43h4q47 0 80 -43q24 20 75 57q51 36 75 56q11 -2 20 -15q11 -15 18 -18h7q35 0 115 25q30 10 56 10q32 0 56 -16q24 5 46 5 q69 0 113 -52q26 12 63 22q48 15 63 20q-8 -195 -199 -283q-87 -40 -176 -40q-105 0 -210 56q-5 -26 -5 -72v-16q0 -39 0.5 -62.5t-0.5 -31.5q31 23 80 23q19 0 40 -3q77 -12 115 -53h112q-10 -45 -35 -122q-26 -82 -35 -122h-272q-4 -77 -5 -272q-1 -171 -9 -261 q-24 -260 -204 -393q-127 -93 -428 -169l-3 -180q-12 -76 -67 -76q-11 0 -24 3q-42 9 -58 73q-4 16 -17 123q-42 -14 -98 -14q-110 0 -276 52q-31 9 -56 9q-40 0 -66 -23q-76 -68 -76 -84q0 -5 6 -5zM417 -11q11 -56 47 -59q12 -2 24 8q11 10 28 10q8 -5 21 -32 q12 -22 30 -24q14 0 21 20t17 22h37q5 -15 12 -171q4 -104 63 -119q28 47 31 162q3 130 11 156q27 86 28 80q-6 22 -44 33q-22 7 -43 7q-13 0 -25 -3q-12 -2 -29 -15q-16 -12 -27 -13q-9 0 -24 6q-17 8 -23 8q-15 2 -67 3q-44 1 -74 7q-17 -22 -17 -56q0 -14 3 -30z M577 1156v1q-2 0 8 -70q6 -39 38 -38q20 0 31 21q24 43 21 40q5 -7 13 -25t13 -25q18 -27 49 -16q23 37 23 142v17q-19 8 -45 7.5t-59 -7.5q-69 -15 -92 -47zM956 1405q-1 -4 -1 -7q0 -16 11 -33q16 -27 18 -35q-2 8 9 -141q1 -11 3 -72q2 -56 6 -90q10 -109 43 -109h1 q35 0 46 56q3 18 3 50q0 52 -9 140q-5 52 -5 91q0 58 11 89q13 -38 44 -38q4 0 9 1q38 6 45 51q1 -5 7 -101q3 -60 35 -63h3q31 0 46 60q9 38 9 84q0 21 -2 43q-2 32 -11 93q-10 67 -12 90q-28 12 -59 12q-49 0 -105 -31q-13 -7 -27 -25q-16 -21 -25 -26q-90 -66 -93 -89z M1462 1194q7 -13 13 -119q4 -69 38 -69q4 0 9 1q20 4 25 42q6 44 18 56q9 -22 9 -21q7 -10 23 -7q16 9 21 45q6 43 12 53q-21 27 -80 35q-14 2 -27 2q-40 0 -61 -18zM1518 1620q-4 -19 -4 -34q0 -39 29 -54q13 -7 24 -7q23 0 40 29v-7q0 -35 18 -58q23 -10 41 3q5 3 15 13 q9 8 15 12q1 -61 23 -75q48 0 47 70q11 5 26 21q19 21 25 26q3 2 25 11q13 5 13 25q0 33 -45 44q-18 4 -36 4q-27 0 -55 -9q-23 19 -55 19q-18 0 -40 -6q-91 -27 -106 -27z" />
<glyph unicode="G" horiz-adv-x="2068" d="M67 536q25 152 139 344q7 11 33 45q22 29 31 48q13 25 46 118q29 81 53 120q9 15 43 45q30 27 39 48q8 20 15 66q5 38 20 56q15 20 52 35q51 20 64 29q4 3 24 31q18 24 34 27q11 3 22 3q35 0 72 -27q7 -5 38 -31q23 -19 37 -26q47 31 144 103q94 71 141 101q2 1 4.5 1 t6.5 -1q34 -8 90 -39q69 -38 97 -49q158 -62 296 -75q14 -1 30 -1q41 0 100 8q73 11 122 11q12 0 22 -1v-6q0 -31 -30 -60q-3 -2 -58 -44q-301 -230 -337 -256h-1q-1 0 111 -41q15 3 42 28q25 22 46 24q15 2 40 -10q33 -15 47 -19q17 -4 55 -5q32 -1 44 -6q57 -27 76 -132 q9 -48 9 -100q0 -35 -4 -71q63 -142 63 -308q0 -49 -5 -99q-9 -91 -40 -169q-97 -240 -367 -420q-265 -176 -552 -202q-66 -6 -129 -6q-200 0 -363 61q-208 77 -328 242q-82 111 -120 270q-25 104 -25 205q0 68 11 135zM329 984q1 -8 16 -10q16 -2 18 -7q3 -7 3 -21 q0 -19 1 -23q3 -27 25 -32q25 0 31 30q11 53 10 52q9 -3 16 2t13 3q4 -15 9 -57q5 -40 10 -59q15 -59 55 -59q4 0 8 1q49 7 52 116q4 152 12 175q14 1 38 -2q17 -3 32 2q33 31 33 109v18q-5 115 -5 150q0 11 1 14q71 63 69 58q-71 43 -93 46h-11q-9 -35 -66 -54 q-64 -22 -80 -45q-14 -21 -23 -63q-10 -46 -17 -59q-10 -16 -32 -39q-26 -24 -38 -42q-4 -6 -8 -25q-5 -20 -10 -28t-21 -20q-15 -12 -19 -20q-11 -21 -18 -55q-9 -47 -11 -56zM573 -156q4 -8 23 -14q19 -7 23 -15q-2 -35 3 -49q7 -22 32 -21q30 17 31 85q3 108 4 113 q8 -12 35 -25q23 -11 29 -33q-3 15 -3 -81q0 -47 44 -47q14 5 19 33q7 30 16 37q6 1 12 1q29 0 37 -39q10 -49 36 -49h2q18 -1 21 28q3 32 14 35q21 -5 16 -41q-6 -50 -4 -57q10 -43 42 -43q8 0 16 2q52 63 52 198v6q0 117 -35 215q-25 29 -78 29h-4q-48 -1 -74 -1t-30 1 q-30 -33 -91 -33h-7q-61 2 -100 33q-96 -22 -96 -149q0 -51 15 -119zM701 147q22 -16 49 -16q16 0 33 5h-1q0 1 76 34q19 -13 60 -7q50 7 65 7h3q57 -5 52 -12q5 51 5 128.5t-5 180.5q-11 245 -23 279q-61 -5 -116 -53q-3 -34 -6 -129q-3 -77 -7 -120q-14 -127 -69 -193 q-17 -20 -58 -52q-40 -31 -58 -52zM893 833q14 4 30 19q18 17 28 22q14 129 112 222q-1 0 190 144q-267 100 -360 140v-547zM1023 948q-14 -29 -14 -53q0 -50 58 -79q13 5 35 38q18 27 47 26q1 -18 1 -73q0 -56 2 -85q8 -93 55 -93h6q48 6 48 101q0 38 -8 91q44 -7 59 0 q24 43 24 132q0 14 -1 28q-3 73 -3 119t3 65q-6 11 10 24q10 9 -4 10q-62 -1 -121 -50q-68 -57 -106 -66q-6 -9 -46 -63q-32 -43 -45 -72zM1620 946q2 -88 35 -113q19 -3 28 19t24 22q12 -27 19 -218q6 -158 51 -160h3q49 0 53 114q5 153 14 171q4 -1 22 -17q12 -11 24 -1 q19 34 19 76.5t-19 92.5q3 -8 -75 151q-7 -1 -16 -1q-36 0 -93 20q-24 8 -42 8q-25 0 -41 -15q-1 -16 -4 -73q-2 -48 -2 -76z" />
<glyph unicode="H" horiz-adv-x="1830" d="M78 1326q14 141 114 223q9 123 233 123h4q15 0 45 -7q31 -7 45 -7q19 -1 63 2q31 2 45 -2q38 -12 81 -90q21 -4 45 -4q53 0 120 19q111 32 148 32q4 -21 -17 -32q-6 -3 -19 -8q-12 -4 -16 -7q-31 -19 -83 -63q-57 -47 -83 -65q-100 -129 -114 -280q-5 -51 -5 -127 q0 -68 4 -155q4 -102 4 -174q0 -63 -3 -103q-21 -274 -147 -431q0 -1 -2 -4q-3 -2 -3 -5q230 170 261 365q8 47 8 122q0 34 -2 74q-3 84 -3 142q0 46 2 74q1 9 -11 13q-13 3 -13 10q2 9 2 19q0 26 -15 59q-28 58 -30 69q-2 13 -2 27q0 50 28 109q29 62 69 101q-1 6 -1 13 q0 30 21 48q8 7 25 17q19 11 26 17q12 9 49 51q29 33 51 39q11 2 22 -1q15 -4 20 -4q171 91 304 95q-3 -23 -27 -37q-6 -4 -21 -10q-13 -6 -19 -10q-126 -84 -182 -185q-58 -105 -58 -256q0 -32 3 -66q-2 -2 4 -2q18 0 120 26q17 4 41 28q29 26 44 33q33 17 72 17 q15 0 31 -3q19 -2 110 -28l-1 -1q-2 0 -2 11q0 32 12 151q11 2 43 -28q220 -203 242 -450q7 -78 7 -149q0 -376 -192 -557q-34 -32 -137 -102q-99 -68 -143 -111q-62 -62 -61 -93v-7q6 -26 76 -27q68 0 71 -25v-9q0 -54 -33 -82q-28 -24 -71 -24h-10q-48 4 -88 32 q-41 30 -49 74q-3 17 -3 34q0 33 12 65q5 13 180 280q119 182 133 327q-77 43 -178 43q-52 0 -111 -12q-149 -29 -247 -107q127 36 228 35q27 0 52 -2q49 -5 84 -39q35 -33 35 -78q0 -8 -1 -16q0 -2 -56 -90q-148 -227 -171 -260q-303 108 -360 114q-66 6 -125 6 q-90 0 -162 -14q-164 -30 -177 -125v-6q0 -25 19 -103q5 -21 6 -39q0 -38 -25 -61q-16 -1 -29 -1q-78 0 -94 39q-1 13 -1 27q0 128 111 258q164 193 179 227q18 41 18 72q0 39 -28 61q-12 2 -24 2q-44 0 -80 -24q-75 -49 -76 -49q-10 36 -10 67q0 79 62 136q-1 11 -1 21 q0 130 129 150q-17 78 -137 81h-10q-89 0 -175 -34q4 108 104 175q-11 23 5 43q87 59 87 60h-1q32 16 65 16q26 0 53 -10q-1 16 -1 32q0 106 53 190q22 35 132 153q-27 -11 -62 -11q-53 0 -126 25q-101 36 -155 36q-14 0 -26 -3q-32 -8 -72 -46q-40 -39 -75 -49zM230 853 q12 -3 21 2q12 7 16 7q5 -28 38 -24q12 1 20 17q7 16 18 16q4 -10 7 -30q4 -22 7 -30q9 -31 34 -30q33 2 42 75q3 20 3 37q0 44 -17 68q1 0 -95 5q-5 -9 -69 -46q-32 -18 -32 -42q0 -12 7 -25zM282 1606l6 -65q4 -38 22 -49q34 -4 44 32q14 53 18 58q9 -45 37 -64 q12 -8 24 -8q20 0 38 25q1 -2 6 -49q3 -29 18 -37h47q3 3 48 67q14 6 37 6q13 0 29 -2q15 37 14 43q-5 43 -58 50q-14 2 -35 2h-16h-52q-63 3 -110 3q-92 0 -117 -12zM329 469q12 -3 30 -32q18 -28 32 -30h4q35 0 35 68q0 8 -1 18q34 1 34 43q0 7 -1 16q-5 45 -24 78 q-111 -14 -111 -127q0 -16 2 -34zM741 251q2 -9 38 -43q5 -38 14 -53q13 -23 43 -22q11 4 16 24q7 31 8 32q2 -3 16 -5q12 -1 12 -9q-3 -17 -3 -31q0 -37 17 -59q12 -5 21 -5q21 0 32 24q6 12 10 34q7 27 8 32q4 -3 18 -6q12 -3 15 -8q-4 -44 24 -47q25 1 28 48q3 48 24 51 q2 -3 18 -47q8 -24 30 -24q24 1 33 45q11 45 38 50q-3 2 12 -18q8 -11 21 -10q28 16 28 60v9q-2 43 -23 73q-81 8 -134 8q-38 0 -61 -4q-20 -3 -60 -19q-39 -15 -63 -18q-19 -3 -82 -3h-6q-42 0 -68 -12q-2 -8 -13 -23q-9 -13 -11 -24zM779 1123q1 -9 9 -28q9 -19 10 -29 q0 1 -1 -47q0 -26 15 -39q35 3 45 41q4 15 7 78q35 7 40 71q7 80 17 95q6 -5 21 -34q11 -23 31 -23q35 26 35 104q0 10 -1 21q-1 13 -7 78q-4 32 -4 53q0 8 1 14q-37 -42 -114 -104q-6 -23 -64 -118q-40 -67 -40 -121v-12zM1035 836q3 -30 28 -31q14 2 17 21q6 29 7 31 q25 2 48 -21t42 -21q26 2 38 38q3 9 9 34q5 24 10 37q21 10 52 -5q2 -16 2 -37.5t-2 -48.5q-5 -70 -5 -89q0 -81 1 -88q6 -55 37 -55q15 11 15 37q1 6 0 22q-1 15 -1 22q10 165 10 161q-1 9 -4 30q-3 19 -3 29q0 33 26 41q5 -15 10 -46q6 -32 10 -46q15 -46 59 -46h6 q37 53 50 124q6 30 6 58q0 48 -18 88q-13 3 -44 15q-33 11 -51 16q-34 10 -63 10q-25 0 -46 -8q-25 -8 -62 -44q-32 -30 -66 -31q-5 -1 -23 3q-15 3 -24 1q-52 -10 -67 -53q-6 -19 -6 -51q0 -19 2 -43q1 -7 0 -26v-17v-11z" />
<glyph unicode="I" horiz-adv-x="1240" d="M53 -10q21 77 74 136q59 65 133 79q-1 0 160 3q91 2 122 57q13 77 13 148q0 55 -8 106q-21 142 -102 187q-26 5 -56 5q-89 0 -216 -42q51 212 304 220q14 282 194 473q-107 -43 -180 -43q-9 0 -18 1q-19 2 -58 10q-49 11 -68 14q-29 5 -52 5q-48 0 -76 -19 q-13 -9 -33 -33q-4 -5 -11 -17q-7 -14 -11 -20q-16 -23 -42 -22q24 157 142 227q76 45 178 46q59 0 127 -16q19 9 36 35q17 25 34 34q11 5 35 5q27 -1 43 4t36 26q22 23 33 29q2 1 125 14q7 0 43 13q19 6 35 6q7 0 14 -1q14 -3 30 -20q20 -20 30 -26q9 -5 30 -9q19 -4 26 -9 q56 -39 56 -197q0 -22 -1 -47q-8 -188 -18 -215q-16 -5 -30 -5q-45 0 -64 57q-14 42 -17 150q2 -173 33 -428q46 -383 50 -426t4 -83q0 -164 -65 -294q-87 -173 -258 -210q-2 -22 -2 -60v-26q0 -67 -1 -89q-5 -102 -47 -132q-24 -18 -44 -18q-46 0 -69 96q-18 77 -18 173 q0 25 1 51q-30 12 -88 32q-72 24 -96 33q-143 50 -205 50h-7q-85 -4 -176 -119q-14 15 -14 44q0 24 10 57zM514 155v1q2 0 102 -102q8 5 31 29q20 20 38 26q12 4 34 3q25 -1 35 2q27 5 85 38q52 30 86 30q-18 61 -37 262q-6 65 -31 227q-24 155 -32 241q-4 56 -4 107 q0 211 76 343q-41 59 -69 64q-130 -151 -130 -439q0 -79 10 -167q4 -41 18 -112q15 -75 19 -103q16 -87 16 -158q0 -85 -23 -148q-54 -144 -222 -144h-2zM629 1486q14 -10 25 -47q10 -37 26 -45q19 -1 32 17q14 21 24 24q27 -4 59 14q34 19 51 18q20 -1 51 -27 q32 -26 42 -51q0 -2 3 -36q2 -23 20 -28h1q25 0 55 42q31 44 64 45q-2 8 7 -135q4 -81 39 -103q-1 7 -1 27q0 53 6 196q1 13 1 26q0 100 -43 141h-4q-29 0 -57 25q-31 28 -54 30q-14 0 -34 -8q-22 -10 -31 -11q-11 -1 -27 2t-24 3q-36 -3 -68 -33q-36 -35 -56 -41 q-14 -4 -36 -4q-29 -1 -33 -2q-33 -4 -38 -39zM671 -171q0 -206 50 -206h1q19 0 33 39q12 31 13 62v17q0 20 -1 50q-4 59 -4 77v13q0 81 23 109q19 -2 34 -2q35 0 49 11q16 -30 33 -28q49 22 49 117q0 22 -3 49q-21 15 -31 15q-4 0 -6 -2q-117 -82 -215 -82h-7 q-18 -47 -18 -239z" />
<glyph unicode="J" horiz-adv-x="1608" d="M87 -371q-11 10 -11 33q0 34 25 98q39 104 118 156q63 41 143 41q37 0 77 -9q15 9 43 41q25 30 46 39q20 9 64 15q47 6 68 13h-1q-3 0 61 34q23 13 43 13q12 0 23 -4q-9 165 -138 266q-99 77 -289 128q29 68 149 74q12 1 25 1q90 0 164 -33q-35 263 -315 263h-4 q18 81 141 100q32 5 63 5q75 0 139 -30q19 163 119 282q74 87 223 179q-209 -45 -287 -45q-16 0 -27 2q-53 9 -157 48q-97 36 -144 41q-24 3 -46 3q-129 0 -132 -111q7 -1 20 -1q27 0 80 5q10 1 19 1q43 0 64 -23q17 -31 17 -66q0 -20 -6 -41q-16 -57 -63 -72q-15 -2 -29 -2 q-54 0 -98 30q-50 35 -65 90q-9 32 -9 64q0 83 59 167q73 103 166 130q16 31 49 46q12 5 36 13q32 11 46 16q14 6 42 19q26 13 41 18q29 11 61 11q22 0 44 -5q142 -33 188 -127q139 69 253 69q24 0 47 -3q124 -18 137 -76q21 5 69 22q43 16 71 21q8 -17 8 -31q0 -18 -12 -32 q-7 -8 -25 -25q-21 -18 -32 -30q-134 -149 -155 -366q-3 -32 -3 -84q0 -90 9 -240q5 -87 5 -157q0 -102 -11 -167q-1 -8 0 -23q1 -17 0 -24q-36 -349 -413 -620q-154 -110 -304 -110q-22 0 -43 2q-49 6 -131 34q-95 34 -127 41q-16 4 -31 4q-32 0 -57 -18q-20 -14 -53 -61 q-28 -39 -47 -42zM453 1517q14 -3 45 -23q28 -19 44 -20q17 -1 39 15q22 15 36 14q-2 0 -2 -3q0 -11 21 -63q16 -26 55 -16q12 4 29 11q18 9 19 10q3 -8 9 -26q4 -16 8 -23q10 -23 30 -22t33 31q15 36 28 44l9 -26q5 -16 20 -16h-3q-8 0 -8 13q0 29 39 123q-48 61 -169 89 q-18 4 -36 4q-31 0 -61 -13q-5 -2 -39 -19q-24 -13 -43 -19q-14 -4 -41 -9q-26 -5 -37 -8q-27 -9 -27 -33q0 -7 2 -15zM481 -169q9 -3 10 -5q-8 1 -8 8q0 16 50 67q23 -3 26 -54q2 -51 25 -54q10 -1 47 14q1 -30 16 -40q6 -4 13 -4t17 5q36 20 36 55q0 8 -2 17q33 7 55 53 q25 53 44 65q-4 23 18 60q16 27 -9 48q-9 2 -19 2q-23 0 -48 -13q-71 -36 -71 -37l2 1q-27 -11 -85 -24q-54 -12 -76 -21q-50 -23 -50 -84q0 -26 9 -59zM993 1517q9 -18 21 -64q11 -45 21 -63q27 -3 34 22q2 7 4 24t4 24q9 0 27 7q15 5 30 3q3 -13 21 -32q18 -18 21 -34 q1 -4 1 -14q0 -28 -9 -106q-1 -10 -1 -18q0 -51 37 -55h4q50 0 56 110q8 138 20 153q48 24 48 43q0 9 -8 16q-22 21 -100 29q-30 3 -58 3q-44 0 -85 -7q-75 -12 -88 -41z" />
<glyph unicode="K" horiz-adv-x="2065" d="M71 1152q-2 14 -2 29q0 44 18 107q41 140 130 206q7 5 22 11q16 6 22 11q17 12 42 36q30 28 40 36q49 41 97 48q10 1 34 -1q21 -2 31 1q14 3 40 22q26 18 42 21q23 4 45 4q61 0 118 -32q79 -46 92 -124h2q15 0 41 -53q25 -50 28 -72q1 -4 1 -8q0 -28 -23 -90 q-32 -85 -38 -120q-10 -64 -10 -297q0 -100 2 -231v-33q0 -310 -73 -423q39 17 91 67q56 53 88 69v65q14 81 14 213q0 59 -3 128q-5 122 -5 208t5 136q8 82 120 392q8 -5 24 -20q14 -13 25 -18q-98 -375 -98 -506v-5q219 153 451 375q236 -258 304 -343q-230 -158 -462 -358 q163 -81 309 -291q49 -69 120 -188q91 -152 115 -190q14 8 40 33q24 24 41 32q27 -10 44 -43q-6 -8 -288 -321q-133 138 -234 337q-150 -165 -223 -255q-22 13 -46 49q-27 42 -41 54q-163 -4 -168 -125q-120 47 -270 47q-70 0 -146 -10q-152 -20 -394 -97q-25 15 -38 49 q31 45 101 113q81 79 108 112q92 110 92 245q0 39 -8 79q-19 51 -103 76q-10 -3 -63 -18q-39 -11 -62 -20q3 126 121 160q37 11 74 11q72 0 147 -41q2 24 2 46q0 151 -106 233q-69 54 -154 54q-67 0 -144 -34q6 113 130 167q59 26 116 26q66 0 129 -35q15 333 305 544 q-94 -65 -212 -92q-67 -15 -132 -15q-75 0 -146 20q-80 -10 -157 -49q-22 -16 -57 -58q-34 -41 -57 -56zM326 1500q46 -14 87 -93h60q-4 -28 16 -54h3q44 0 65 59q24 63 63 66q26 -51 21 -49h22h-1q-2 0 -3 2q0 9 31 52h55q7 -5 18 -35q10 -25 31 -24q23 21 23 50 q0 20 -11 45q-17 39 -56 78q-153 29 -153 33h1q-14 -3 -40 -22t-42 -21q-11 -2 -35 0t-35 0q-82 -15 -120 -87zM413 -164q48 13 118 54q76 45 105 55q1 -70 33 -76q18 3 26 28q2 5 6 21q3 14 6 21q27 -5 33 -51q5 -42 37 -41q39 2 39 75v7q-1 19 -1 35q0 71 11 90 q2 -1 10 -7q6 -5 10 -7q14 -6 24 3q15 4 15 47q-1 42 17 45q-7 -34 -7 -61q0 -14 2 -26q6 -44 35 -44q4 0 8 1q31 5 31 69q0 22 -4 50q-9 75 -32 147q-112 -120 -207 -130q-24 -24 -77 -81q-50 -55 -80 -83q-159 -144 -158 -141zM1032 686v-23q0 -79 6 -126q67 140 114 169 q13 8 37 12q29 5 39 10q17 6 39 26q21 19 32 23q18 6 36 6q34 0 67 -23q4 14 28 27q23 13 27 28q-37 35 -91 99q-67 79 -89 102q-22 -16 -121 -89q-73 -54 -123 -85v-29q0 -41 -1 -127zM1071 391q6 2 13 2q22 0 60 -15q18 -7 34 -7q22 0 40 14q3 15 -2 45q-5 26 2 37 q9 1 26 -4q15 -4 28 -2q36 20 36 78q0 44 -20 85q8 21 43 50q32 28 39 54q-12 3 -23 3l-65 -26q-41 -33 -80 -33q-6 0 -12 1l-96 -117q-31 -50 -31 -107q0 -28 8 -58z" />
<glyph unicode="L" horiz-adv-x="1807" d="M59 1225q57 269 254 302q22 35 83 78q65 47 86 75q29 -2 186 -31q98 -18 163 -18q17 0 32 1q8 1 30 7q18 5 29 4q77 -9 84 -127q-237 -203 -237 -517q0 -42 4 -86q21 -216 21 -366.5t-21 -237.5q-27 -115 -127 -291q-41 -72 -79 -121q148 118 216 204q108 134 139 298 q1 7 1 53q0 126 -8 548v29q0 154 30 248q42 130 151 186q34 117 95 127q5 1 12 1q23 0 55 -12q43 -16 60 -37q3 -3 7 -18q4 -18 9 -29q34 -70 37 -70v1q4 -25 4 -51q0 -50 -16 -100q-24 -79 -67 -82h-5q-44 0 -66 53q-7 16 -18 52q-10 34 -17 49q-19 -75 -18 -186 q0 -56 4 -121q12 -165 11 -268q0 -48 -2 -82q-35 -449 -413 -698q95 33 148 42q11 8 23 32q10 20 25 26q17 8 50 3q38 -6 56 -3q15 3 34 28q22 27 40 36t49 9q14 0 31 -2q36 -4 59 -4q16 0 25 2q18 4 44 31q26 26 41 27q5 1 12 1q28 0 72 -15q53 -18 74 -39q9 -8 21 -40 q11 -27 27 -34q14 3 28 3q46 0 86 -36q36 -33 36 -70q0 -16 -7 -33.5t-164 -164.5q-169 -158 -170 -159q-246 200 -538 200q-40 0 -81 -4q-211 -20 -513 -159q-32 29 -11 54q8 8 28 24q26 19 36 28q197 175 217 302q5 33 5 61q0 89 -49 140q-48 50 -178 84q18 44 91 56 q25 4 49 4q42 0 82 -12q3 19 3 36q0 97 -92 145q-66 35 -149 35q-28 0 -58 -4q23 63 52 79q7 120 6 116q19 18 55 25q35 7 51 23q9 9 20 31q13 26 18 34q22 31 61 32q8 0 17 -2q24 178 185 376q-138 -54 -212 -54q-8 0 -15 1q-40 3 -127 27q-75 21 -114 21h-3 q-46 -2 -87 -47q-52 -56 -82 -70q2 10 -16 11zM350 786q1 -78 16 -111q23 -6 35 6q4 4 9 13q7 9 9 12q0 -23 32 -63q4 1 24 1t55 -1q-3 -31 21 -53q43 3 43 62q0 -7 -11 97q0 9 11 20q11 10 10 22q2 12 2 24q0 51 -41 81q-22 16 -43 16q-26 0 -50 -26q-5 -44 -43 -68 q-14 -8 -79 -32zM387 1537q20 -10 30 -49q10 -40 28 -51q16 -10 42 -11q36 0 91 21q23 -27 63 -27h3h-2q0 1 84 11q12 2 39 0q25 -2 35 0q15 3 43 20q37 20 42 23q60 27 70 53q3 6 3 13q0 25 -36 55q-48 -8 -104 -8q-133 0 -314 45q-17 -23 -56 -50q-48 -32 -61 -45zM942 2 q-1 -5 -1 -11q0 -34 23 -57q9 -10 22 0q16 13 26 10q3 -32 37 -32q15 6 31 59q93 17 122 17q7 0 11 -1q14 -5 33 -27q17 -20 30 -21q20 -2 39 10q27 18 41 22q30 -25 58 -25q21 0 42 14q12 -2 25 -20q13 -17 28 -17q10 -1 16 8q7 12 10 13q18 -20 54 -20q40 1 58 -12 q6 16 37 39q26 19 26 41q0 37 -42 44q-10 2 -39 4q-27 2 -41 5q-32 7 -47 36q-3 5 -12 26q-8 17 -15 28q-128 29 -128 31h1q-13 -47 -86 -50q-93 -3 -120 -3q-11 0 -12 1h1q-7 -3 -23 -27q-15 -22 -35 -26q-6 -2 -19 -2q-19 0 -54 4q-15 2 -27 2q-28 0 -43 -10 q-23 -15 -27 -53zM1100 1393q-15 -26 -15 -47q0 -25 22 -42q23 11 52 59q27 44 59 52q17 -16 29 -93q10 -66 45 -76q27 40 27 106q0 14 -1 29q-6 83 -42 130q-70 31 -74 31q-12 -7 -27 -25q-17 -21 -26 -28q-1 -16 -49 -96z" />
<glyph unicode="M" horiz-adv-x="2350" d="M101 -371q-8 34 -8 65q0 77 46 141q63 88 176 97q7 20 51 61q36 33 34 77q20 12 66 28q12 48 60 67q19 8 36 8q30 0 56 -23q1 10 1 21q0 99 -53 178q-75 115 -194 128q-7 1 -14 1q-28 0 -68 -12q-56 -16 -84 -17q35 205 270 237q3 189 61 298q-4 14 -4 29q0 33 18 75 q30 72 29 110q9 10 90 47q12 61 21 79q18 37 60 39v7q0 36 18 63q22 31 58 35q7 0 20 -6q15 -8 27 -9q12 0 33 6q20 6 29 4q28 -6 57 -38q30 -34 42 -38q21 7 51 25q35 21 49 27h-1q-2 0 55 94q34 57 83 67q9 2 33 0q22 -3 33 0q20 6 39 32q19 28 37 35q25 10 50 10 q34 0 69 -18q20 -11 47 -32q36 -27 43 -31q29 45 81 66q26 11 51 11q33 0 62 -20q23 8 52 8q43 0 100 -18q8 -38 43 -70q7 -7 31 -26q19 -16 30 -27q46 15 57 14q35 -18 54 -86q24 -86 36 -103q-7 -18 -49 -77q-35 -51 -41 -85v-810q0 -275 19 -322q8 1 9 -5q-2 1 -2 2 q0 6 78 26q25 -12 38 -37q-71 -81 -228 -228q-149 63 -184 242v128q0 685 -10 995q-99 69 -161 118q-18 -1 -47 -19v-507q7 -1 61 1h13q38 0 54 -5q-109 -280 -125 -280q-2 0 -3 5q80 -24 94 -67q3 -7 2 -27q-1 -19 3 -29q5 -14 28 -29q21 -15 24 -28q3 -11 3 -29 q0 -23 -5 -56q-8 -49 -8 -74q0 -7 1 -12q10 -71 10 -141q0 -25 -1 -51q-6 -140 -57 -144h-6q-54 0 -65 97q-3 28 -5 91q-1 58 -4 82q-15 -9 -185 -157q-108 -93 -118 -104q-121 125 -266 251q6 20 28 38q27 23 34 33v441h-247q-6 -58 -6 -146q0 -53 2 -117q4 -88 4 -151.5 t-4 -101.5q-9 -98 -61 -184t-124 -125q-74 -39 -138 -42h-6q-46 0 -173 25q-61 12 -106 12q-39 0 -65 -9q-33 -10 -64 -45q-40 -45 -60 -59zM372 -110q51 -30 90 -30q18 0 33 6q-2 -20 19 -47h9q34 0 49 29q5 11 12 32q7 25 10 33q3 -3 6 -9q4 -7 6 -10q7 -11 22 -9 q18 15 18 62q0 11 -1 23q-3 37 -3 62q0 29 4 42q-15 4 -61 41q-32 25 -57 7q-8 -6 -16 -35q-8 -26 -27 -31q-27 -3 -47 -15q2 -37 -38 -76q-30 -30 -30 -60q0 -8 2 -15zM580 1022q7 -5 23 -10q18 -5 25 -9v-9q0 -47 28 -52q12 -2 17 11q5 16 11 17q20 -74 19 -74 q15 -35 48 -30q36 5 44 65q2 16 3 115q26 -17 43 -14q8 18 11 69q4 50 12 68q80 57 81 138q42 6 49 31q6 22 -15 46q-22 25 -53 32q-11 3 -22 3q-22 0 -40 -13q-17 14 -31 14t-25 -15q-17 -24 -19 -70q-4 -3 -57 -24q-14 -119 -109 -132q1 -36 -21 -79q-22 -45 -22 -78z M893 648q0 -5 1 -7q2 -3 4 2q42 72 85 123q14 0 86 1h15q42 0 65 -5q-5 24 -5 75q0 62 7 163q6 83 6 138q0 64 -8 93q-9 30 -54 44q-4 2 -84 17q-104 -120 -113 -199q-4 -35 -4 -95q0 -53 3 -126q3 -58 3 -105q0 -74 -7 -119zM1203 1474q-8 -20 -8 -35q0 -38 56 -38h2 q65 -180 65 -226q0 -15 -7 -15h-1h4q27 0 35 46q1 12 3 45q2 28 5 41q56 -35 52 -28q-2 -31 10 -47q15 -8 34 0q24 10 37 9q10 -14 10 -76q0 -15 -1 -33v-13q0 -65 29 -68h2q32 0 40 97q2 27 3 78q1 46 2 58q13 15 53 42q43 29 61 48q49 50 55 54q17 11 37 11q23 0 50 -13 q11 -77 14 -81q7 -2 38 3q28 6 43 -3q-2 -10 -2 -19q0 -37 35 -46q12 -3 22 -3q25 0 45 16q1 7 23 -90q3 -14 4 -39q0 -31 1 -39q4 -44 38 -50q23 24 23 85q0 11 -1 24q-2 40 -2 68q0 38 4 51q49 18 49 66q0 10 -2 21q-4 26 -43 112q-38 -17 -60 -5q6 -4 -39 33q-9 7 -29 21 q-17 13 -26 20q-26 23 -31 54q-29 5 -55 5q-36 0 -68 -10q-8 0 -24 11q-16 12 -28 13h-7q-34 0 -67 -37q-37 -43 -59 -44q-24 0 -61 34q-43 39 -52 42q-16 6 -32 6q-34 0 -65 -27q-56 -48 -88 -50q-8 -1 -26 3q-16 3 -22 2q-48 -12 -78 -84zM1542 311q-9 -16 -9 -30 q0 -20 19 -36q-26 -27 -26 -52q0 -23 22 -45q31 -32 79 -32q20 0 43 6q2 -8 14 -29q11 -19 15 -33q3 -11 3 -61q0 -25 -1 -60v-8q0 -67 31 -84q19 14 20 47v7q0 8 -1 22q-1 19 0 28v20q0 51 -7 158q-2 34 -2 63q0 59 9 100q-35 7 -48 62q-17 68 -28 81q-14 4 -26 4 q-25 0 -41 -20q-13 -16 -13 -35q0 -16 9 -35q-40 -2 -62 -38z" />
<glyph unicode="N" horiz-adv-x="2151" d="M121 -209q8 36 46 74q43 44 53 65q23 13 58 37q42 29 57 38q29 5 77 5q36 0 82 -3q126 -8 168 -8h8q201 2 206 140q1 27 -10 60q-56 169 -387 173q59 108 208 108q39 0 85 -8q-49 215 -301 215q-23 0 -47 -2q50 100 179 100h5q27 19 32 68q6 55 23 76q-77 74 -231 74h-8 q26 60 108 80q36 9 73.5 9t76.5 -9q12 45 14 145q4 107 11 148q7 6 35 23q22 13 30 27q1 16 -3 46q-4 29 -2 48q33 46 94 68q33 12 63 12q34 0 67 -15q31 12 59 12q78 0 124 -92q19 14 60 36q52 28 70 39l124 74q21 1 57 -18q41 -23 62 -26q15 5 40 29q21 22 39 25l14 2 q25 0 53 -17q45 -27 58 -29q8 -2 46 0q30 2 48 -10q16 -11 37 -54q28 -58 33 -66q9 -15 38 -48q21 -24 26 -41q2 -6 3 -20q0 -14 2 -20q2 -5 18 -39q11 -25 15 -41q1 -7 1 -14q0 -38 -44 -60q31 -127 31 -193q0 -11 -1 -20q-21 -217 -149 -442q-62 -108 -243 -353 q-1 -2 -3 -5t-2 -5q76 28 176.5 28.5t225.5 -28.5q9 8 22 29q14 21 23 30q16 0 31 -13q17 -15 28 -17q-29 -60 -88 -160q-66 -110 -90 -158q-112 35 -214 35q-64 0 -124 -14q-159 -37 -229 -160q-26 10 -24 45q1 7 14 60q2 5 283 700q-64 63 -208 90q-133 -26 -239 -90v-174 q58 -45 60 -94q1 -21 -12 -60q-13 -41 -13 -59q0 -13 9 -39q9 -28 11 -41q2 -14 2 -39q0 -16 -1 -37q-1 -41 -1 -66v-22q3 -80 3 -127q0 -39 -2 -55q-12 -89 -76 -101q-14 -3 -39 4q-28 6 -40 6q-145 -7 -145 -10h1q-30 -34 -72 -34q-30 0 -66 17q-27 13 -70 42 q-47 32 -61 40q-11 28 -9 34q-169 44 -164 40h1q0 3 -116 30q-34 8 -73 8q-87 0 -200 -38zM692 889q-25 -74 -25 -122q0 -57 35 -77q-5 0 30 40q4 -11 4 -36q0 -14 -1 -33q-4 -44 12 -60q4 -5 19 -8q16 -3 21 -7q-3 -16 10 -40q64 6 64 78q0 8 -1 17q-15 151 -14 159 q-9 27 -42 37q-5 2 -30 8q-20 4 -32 9q-10 5 -24 21q-12 13 -26 14zM796 -305q61 -33 82 -33h3q10 1 27 17q18 15 28 18q11 2 45 -2q38 -5 54 -3q15 1 37 7q26 6 32 7q35 6 60 -9q31 17 38 46q3 12 3 37q0 15 -1 36v29q0 37 1 104q1 38 1 67q0 44 -2 68q-1 17 -10 66 q-8 37 -5 58q2 16 18 59q12 32 7 51q-6 24 -33 44q-28 22 -51 15q-23 -6 -27 -50v-9q0 -26 4 -85q2 -26 2 -47q0 -88 -34 -97q-28 20 -50 20q-11 0 -20 -5q-19 -29 -19 -97q0 -12 1 -26q2 -50 2 -84q0 -43 -3 -61q-76 -35 -133 -35h-12q-10 -12 -70 -18q-44 -5 -44 -33 q0 -18 69 -55zM731 978q0 -25 2 -39q8 -36 41 -36q6 0 13 1q17 29 17 118v19v10q0 95 18 126q3 -6 4 -75q1 -44 31 -44h4q21 16 21 58q0 7 -1 14q-1 15 -5 46q-4 28 -5 41q14 9 51 26q35 16 52 27q51 33 51 82v9h1q9 0 64 20q1 -45 35 -50q19 12 19 58v11q0 47 15 61 q-38 72 -84 84q-16 4 -44 0q-32 -6 -45 -5q-8 1 -24 7q-17 7 -26 8h-11q-33 0 -66 -15q-40 -19 -47 -45q-5 -17 1 -43t4 -36q-6 -24 -70 -65q-17 -138 -17 -261q0 -39 2 -77q0 -3 -1 -35zM1179 1063q0 -14 7 -22q9 -12 13 -28q-5 -25 -5 -47q0 -9 1 -18q5 -41 34 -39 q12 2 14 24q2 26 6 31q31 -24 30 -20v-16q0 -63 30 -79q14 -5 31 5q14 9 18 5q-1 -7 -1 -14q0 -52 48 -72q14 -6 27 -6q33 0 50 43q27 -32 47 -32q21 0 34 37q14 38 14 83q0 27 -5 56q23 -4 62 1q34 5 52 -1q1 29 17 55q17 27 18 39q3 34 -13 59q-17 24 -42 26 q-22 1 -47 -32q-28 -35 -42 -38q-4 -1 -8 -1q-26 0 -72 26q-34 19 -61 19q-12 0 -23 -4q-11 -31 -43 -31h-8q-21 2 -78 25q-47 18 -68 18h-4q-32 -4 -33 -52zM1194 1153q7 1 14 1q59 0 145 -36q29 29 80 29q14 0 29 -2q56 -8 110 -37q56 63 54 59q-130 162 -432 214v-228z M1588 1582q-5 -14 -5 -28q0 -32 24 -69q15 -4 25 5q13 10 19 10q3 -12 22 -22q20 -11 23 -22q1 -15 0 -41q-1 -31 0 -42q1 -47 20 -62q9 -5 30 -2q18 3 25 -7q-6 -26 -6 -57q0 -51 15 -117q24 -110 59 -110h1q28 2 37 48q2 11 6 42q3 27 7 40q37 -7 50 0q3 16 23 63 q16 36 16 58q0 14 -12 33q-14 22 -18 34q-16 55 -65 129q-57 85 -69 110q-17 -5 -34 -5l-60 16q-58 33 -65 34q-6 1 -12 1q-42 0 -56 -39z" />
<glyph unicode="O" horiz-adv-x="1998" d="M80 308v15q0 88 26 461q3 28 15 72q15 50 18 67q1 12 1 43q0 27 4 42q5 18 28 44q28 33 36 47q5 9 11 30q6 18 10 24q19 23 77 54q54 29 73 63q-2 17 -2 32q0 145 139 145q28 0 61 -6q11 11 43 66q29 47 58 68q19 13 64 25q61 18 75 23q16 6 69 36q39 23 60 23 q18 -1 43 -19q29 -21 37 -24q14 -4 51 -4q28 0 45 -12q20 -14 32 -56q15 -50 27 -67q11 -2 23 -2q45 0 93 37q60 45 93 45h5q9 -1 63 -49q22 -19 48 -19q23 0 49 15q152 -117 177 -161q15 -13 44 -32q39 -26 46 -31q54 -39 65 -81q3 -13 3 -29q0 -27 -9 -62q-16 -66 -16 -85 q1 -31 28 -91q30 -68 36 -96q15 -68 14 -135q0 -301 -292 -609q-224 -235 -443 -352q-191 -103 -364 -118q-10 4 -15 -4q-3 -7 -9 -7h-3q-336 0 -520 186q-164 165 -217 488zM160 801q-3 -19 -3 -33q0 -48 35 -48h5q28 2 34 41q10 63 10 71q0 1 -0.5 1t-0.5 -1q10 32 72 102 q58 65 62 101q6 0 75 48h1q55 0 143 96q33 -20 33 -56q0 -6 -1 -13q73 -32 85 -32h1q-1 -43 26 -48q4 -1 8 -1q30 0 34 53q4 81 12 92q19 1 39 -17q19 -18 41 -15q24 14 24 49q0 20 -8 47q33 26 72 85q47 71 67 92q-1 -5 -1 -10q0 -31 33 -39q31 10 31 51q0 15 -4 35 q44 -2 53 11q2 8 2 17q0 23 -14 49q-6 11 -18 30q-13 19 -18 27q-10 -2 -21 -2q-34 0 -66 18q-47 26 -63 26h-2q-18 0 -52 -21q-44 -27 -58 -32q-13 -5 -56 -15q-35 -8 -51 -17q-26 -15 -66 -81q-38 -63 -57 -69q-12 -4 -32 -4t-47 4q-18 2 -32 2q-26 0 -38 -7 q-12 -27 -20 -89q-6 -53 -23 -77q-20 -26 -64 -52q-55 -32 -70 -44q-3 -33 -39 -68q-39 -37 -46 -66q-3 -11 -1 -37q3 -28 1 -43q-1 -5 -12 -45t-15 -66zM358 383h2q33 0 89 38q57 37 105 38q1 0 2 -1v107.5v210.5v48q0 163 -6 264q-223 -253 -223 -511q0 -97 31 -194z M379 324q-1 -38 34 -108q38 -77 41 -95t0 -49q-5 -43 -5 -52q0 -54 48 -65q26 12 26 85v20q-1 15 -1 27q0 68 23 82q3 -5 6 -17t5 -17q9 -18 32 -14q18 18 18 52v10q0 7 -5 38q-3 24 -3 39q0 12 8 45q6 28 3 40q-12 59 -60 59q-16 0 -36 -7q-26 -9 -69 -32q-48 -25 -60 -30 q-3 -11 -5 -11zM999 -109q257 19 428 214q144 164 144 219q0 25 -55 74q-49 44 -84 60q-59 26 -125 26q-56 0 -118 -19q-113 -35 -190 -109v-465zM999 960q7 -1 14 -1q30 0 63 21q50 31 68 34q12 2 26 2q56 0 145 -29q226 -74 219 -75q-65 130 -221 208q-94 47 -314 107 v-267zM1015 907q-5 -28 -5 -50q0 -46 21 -68q8 1 24 5q19 4 27 6q33 5 46 -11q-4 -29 -4 -48q0 -28 9 -37q23 -8 42 9q19 18 22 17q-1 -17 -1 -31q0 -35 7 -54q12 -32 46 -32h2q22 0 38 21q24 32 31 37q14 3 24 -10t24 -11q11 7 28 39q15 27 36 31q1 -5 38 -27 q-12 -23 -9 -42q4 -21 25 -22h4q36 0 36 72v18l-8 134l1 -1q0 -1 -2 -1q-16 0 -186 66q-118 46 -182 48q-16 -19 -63 -32q-55 -15 -71 -26zM1299 1484q-2 -12 -2 -22q0 -41 25 -65q20 -20 73 -36q1 -2 1 -12q0 -16 -2 -53q-3 -50 22 -53q22 -3 28 21q8 29 15 33q-1 -7 10 -6 q15 1 17 1q5 -8 5 -32q1 -25 5 -33q7 -6 36 -12q24 -6 29 -20q0 -9 -2 -25q-3 -20 -3 -26q-1 -29 21 -34q3 0 5 -2q4 -3 5 -4q27 12 27 91v11q47 14 85 14q17 0 33 -3q23 -11 26 -99q2 -85 27 -88h5q19 0 25 20q3 13 2 54q18 -2 21 37q1 13 1 36q-1 29 0 34q-4 6 -118 102 q-12 10 -28 35q-16 26 -26 34q-3 3 -18 10q-17 6 -24 12q-15 11 -37 32q-20 19 -31 26q-20 13 -50 13q-22 0 -48 -7q-17 7 -41 29q-24 23 -39 30q-36 -30 -80 -43z" />
<glyph unicode="P" horiz-adv-x="1777" d="M87 -9q-4 11 -4 23q0 31 28 61q12 12 36 32q26 22 34 30q-4 13 -4 25q0 20 11 40q4 10 17 28q13 19 18 29q4 7 8 23q3 15 6 19q28 41 141 66q22 49 108 80q-70 203 -366 390q19 24 55 47q51 33 57 38q-8 27 6 51q30 49 27 43q4 9 6 26q1 16 4 21q7 13 43 37q39 26 51 43 q7 10 19 42q10 27 18 33q23 17 57 18q23 0 52 -9q5 29 5 56q0 74 -40 122q-51 62 -151 62h-3q-28 0 -81 -14q-54 -14 -83 -14q-1 5 -1 10q0 30 34 58q19 16 80 50q85 46 214 47h4q144 0 196 -71q27 31 83 35q5 1 53 2q36 1 61 5q6 2 5 19t4 19h66q2 -35 5 -38q63 13 66 14 q15 6 24 33q9 29 23 38q19 13 45 13q38 0 91 -27q27 17 55 6q6 -3 25 -13q17 -8 28 -12q13 -4 51 -10q26 -3 39 -13q13 -12 23 -37q11 -26 19 -34q15 2 29 2q70 0 88 -44q5 -11 3 -33q-1 -25 2 -38q4 -13 23 -34q22 -23 29 -36q4 -8 9 -30q4 -21 10 -31q8 -16 26 -49 q17 -30 24 -45q18 -38 18 -70q0 -10 -2 -20q-4 -15 -19 -28q-19 -15 -24 -24q-5 -8 -8 -34q-3 -21 -15 -31v-739q-59 -47 -181 -148q-119 -97 -181 -148q-97 48 -320 104q-5 -34 -5 -94v-21q0 -50 0.5 -80t-0.5 -40q3 0 6 1q46 0 79 -44q28 -37 29 -79q0 -5 -1 -10 q-3 -35 -28 -45q-15 -6 -75 -11q-11 -1 -39 -7q-17 -3 -27 -3h-5q-13 1 -42 13q-30 13 -47 15q-14 2 -46 2q-74 0 -241 -11q-5 69 -5 180v38q0 92 0.5 148.5t-0.5 75.5q-25 3 -59 -4q-35 -8 -58 -5q-10 -23 -10 -134v-44q0 -112 -47 -123q-10 -3 -20 -3q-54 0 -70 84 q-6 30 -10 90q-4 65 -8 87q-25 -4 -74 -22q-45 -17 -76 -20zM223 198v-8q0 -57 14 -67q15 -7 26 5q10 11 12 9q15 -22 15 -103q0 -31 -2 -71q-1 -14 -1 -26q0 -102 44 -120q13 24 18 217q1 67 20 98q22 38 75 38h5q83 53 83 146q0 36 -13 79q-17 10 -33 10q-43 0 -75 -76 q-109 -19 -136 -51q-3 -20 -52 -80zM276 952q-6 -14 -6 -25q0 -28 38 -43q2 -3 5 -30q3 -19 18 -17q16 -3 24 14q7 19 19 19q24 -30 27 -32q17 -16 34 -6q-5 -38 -5 -61q0 -10 1 -16q5 -42 37 -40q39 2 44 104v23q0 26 -1 61q-1 36 -1 53v13q40 2 42 5q1 15 1 33 q0 66 -20 169q-25 18 -53 18q-20 0 -41 -9q-40 -86 -127 -141q1 -13 -36 -92zM728 1385q18 -94 18 -138q0 -12 -1 -20q9 -9 28 -1q18 8 24 1q-1 -16 -1 -29q0 -40 5 -60q10 -43 43 -52q-13 -66 -13 -94q1 -56 40 -56h1q37 0 47 65q4 24 4 51.5t-4 57.5q-23 181 -28 418 q-17 5 -40 5q-16 0 -35 -2q-53 -7 -72 -7h-4q-19 -28 -19 -75q0 -28 7 -64zM764 -282q7 -52 132 -52h23q20 1 59 9q33 7 49 6q1 3 1 8q0 23 -20 76q-17 4 -38 4q-78 0 -206 -51zM957 1467q-1 -57 32 -66q15 0 21 18q7 21 12 25q44 5 61 42q11 -16 36 -19q33 -5 40 -9 q4 -3 7 -12q3 -12 7 -16q6 -8 20 -15q10 -4 13 -14q4 -15 -3 -43q-11 -38 -11 -46q-3 -26 -3 -47q0 -95 50 -113q26 21 26 95q0 14 -1 30q-1 21 -1 39q0 69 18 90q28 -6 28 -55v-7q0 -47 24 -51q3 -1 7 -1q30 0 34 52q1 9 1 18q0 33 -9 68q52 -5 75 -38q-1 -14 -1 -27 q0 -62 34 -67q13 -1 16 16q4 20 12 22q15 -11 18 -33l5 -38q3 -7 15 -26q11 -17 14 -30q1 -7 1 -16q0 -29 -12 -78q-10 -42 -10 -71q0 -13 2 -23q2 -11 16 -30q14 -20 17 -32q-1 3 2 -66q2 -40 31 -46h-1q-2 0 -2 14q0 33 12 145q7 19 33 46q24 25 28 44q3 13 3 27 q0 30 -15 63l1 -1q0 -1 -41 71q-8 15 -18 43t-14 37q-6 11 -20 28q-16 20 -21 28q-15 24 -15 52q0 14 4 28q1 -1 -91 26q-53 16 -55 68q-17 10 -67 22q-47 11 -65 25q-8 0 -20 -8q-11 -7 -22 -6q-17 5 -39 18q-16 10 -31 10h-2q-30 0 -52 -28q-27 -36 -45 -42q-9 -4 -33 -3 q-21 1 -33 -7q-21 -28 -23 -80z" />
<glyph unicode="Q" horiz-adv-x="2059" d="M47 418q-5 48 -5 97q0 192 74 404q-12 39 -12 70q0 24 7 42q7 16 34 32q29 17 35 26q14 22 24 73q9 53 24 76q63 103 154 112q14 80 62 136q56 65 141 72q16 1 31 1q60 0 113 -22q66 -28 96 -80q25 18 40 85q14 61 50 75q16 6 56 -3q25 -6 44 -6q13 0 23 3q18 5 40 35 t34 35q-1 0 -1 -1q0 -7 214 -37q3 0 119 -2q58 -1 94 -35q14 -13 31 -44q16 -27 28 -36q11 -7 41 -12t44 -15q21 -13 50 -76q31 -66 52 -83q8 -8 31 -18q19 -9 27 -20q17 -24 17 -74q0 -18 -2 -39q-2 -17 -2 -31q0 -50 19 -69q34 -237 34 -336q0 -22 -2 -37 q-13 -123 -97 -262q-22 -37 -143 -201l38 -43q30 16 61 16q14 0 28 -3q49 -10 49 -56v-5q51 0 78 -56q34 -71 50 -82q1 -4 1 -14q0 -19 -3 -64q-2 -42 18 -50q-16 -20 -272 -256q-168 121 -367 304q-190 -107 -245 -134q-148 -70 -283 -85q-25 -3 -51 -3t-55 3 q-287 26 -461 217q-164 179 -205 476zM152 998q-12 -14 -12 -30q0 -21 19 -44q23 -5 47 6q26 11 43 10q7 -9 10 -38q4 -28 11 -37q29 -5 45 14q23 26 30 29q5 -20 5 -60q1 -51 2 -62q6 -70 52 -70q50 1 50 79v15q-4 86 -4 125q0 26 2 32q7 30 38 40q54 19 52 18 q13 -37 14 -38q8 -14 29 -15h2q48 0 48 91q0 16 -1 34q-6 83 -6 128q0 41 5 51q18 7 65 47q43 37 73 43q12 3 29 3q22 0 52 -5q33 -5 55 -5q14 0 24 2q-1 4 9 -45q4 -21 23 -24q28 -5 33 20q3 16 -3 60q-4 28 -4 49q0 49 22 57q20 -5 36 -41q15 -36 39 -39q18 6 22 52 q4 45 26 49h-2q-3 0 81 -32q34 -13 58 -13q12 0 22 3q16 5 29 24q15 21 30 29q126 -32 162 -52q80 -42 78 -124q6 -13 37 -18q34 -6 43 -14q-1 -30 -1 -57q0 -169 33 -214q21 -2 31 21q13 28 22 32q21 -6 21 -59t22 -58q31 8 35 66v8q0 25 -4 96q-4 86 -10 107q-7 25 -52 57 q-51 35 -65 60q-10 16 -23 50q-11 28 -25 46h-5q-56 0 -108 64q-58 73 -100 80q-13 2 -42 -4q-31 -7 -44 -7q-36 0 -113 31q-49 20 -82 20q-13 0 -23 -3q-13 -3 -35 -33q-23 -30 -40 -36q-26 -10 -63 -5q-36 5 -58 5h-12q-41 -88 -44 -92q-29 -38 -76 -38q-11 0 -24 2 q-18 3 -35 25q-20 24 -29 28q-13 6 -35 5h-34q-29 4 -53 4q-94 0 -133 -57q3 5 -35 -103q-17 -47 -71 -47q-8 0 -17 1q-95 -116 -96 -117q-5 -15 -15 -70q-7 -40 -22 -58q-9 -11 -30 -28q-22 -17 -30 -26zM521 162q6 -9 24 -24q17 -14 24 -24q27 21 80 36q67 20 85 28 q12 6 31 20q23 19 31 24q29 18 60 18q13 0 27 -3v1081q-3 2 -39 0t-46 6v-16q-3 -52 -3 -127q0 -96 5 -231q4 -101 4 -180q0 -96 -6 -160q-12 -134 -109 -256q-26 -32 -86 -97q-56 -61 -82 -95zM617 72q18 -23 41 -66q29 -53 39 -68q-11 -28 -11 -54q0 -8 1 -17 q6 -35 32 -35h4h-2q-14 0 -14 19q0 35 48 135q37 -1 47 -49q10 -49 28 -52q-5 1 -5 5q0 11 42 48q5 5 19 2q12 -2 18 9q5 23 5 68v27q-1 30 -1 55q0 36 2 58q-28 38 -64 42q-29 -33 -113 -66q-88 -34 -116 -61zM1517 173q-3 -17 -3 -31q0 -31 14 -51q14 -19 53 -41 q-5 -34 -5 -61q0 -89 53 -104q3 1 27 43q25 -6 58 10q35 18 59 16q6 -5 32 -15q22 -8 26 -22q30 -53 23 -53h-1q31 3 54 28q8 8 19 23q13 18 17 23q-2 37 -33 82q-32 45 -36 78q-55 11 -96 75q-26 -8 -50 -8q-23 0 -45 7q-45 15 -70 54q-24 -3 -96 -53z" />
<glyph unicode="R" horiz-adv-x="2079" d="M71 -321q0 29 53 90q58 68 111 101q100 168 212 206q6 39 40 66q4 3 66 40q-50 187 -265 339q-32 22 -87 56q-67 41 -88 55q26 27 106 79q1 6 1 18q0 20 -3 54q-1 13 -1 23q0 30 8 48q18 16 53 32q0 57 57 82q8 4 51 18q31 11 46 22q6 4 56 61q31 34 67 34h4q4 21 4 41 q0 60 -32 107q-38 54 -110 79q-27 1 -52 1q-123 0 -202 -32l-5 58q139 95 190 111q-1 -1 27 32q35 7 91 36q65 34 94 43q195 63 201 64q7 1 15 1q24 0 58 -5q60 -6 75 -7q16 -1 63 1q16 1 29 1q20 0 35 -2q17 -2 56 -18q36 -15 56 -14q29 1 71 35q41 34 71 34q22 0 88 -30 q67 -30 77 -44q8 -13 14 -49q5 -34 17 -46q103 -3 148 -111q5 -12 6 -37q0 -26 5 -38t20 -23q18 -12 22 -19q27 -39 32 -142q1 -23 2 -83q1 -49 3 -71q-67 -44 -185 -129q-154 -111 -190 -136q184 -120 307 -291q4 -9 106 -282q64 -170 137 -252q18 9 58 47q14 -3 48 -42 q-35 -45 -123 -126q-84 -78 -121 -128h-58q-110 95 -239 417q-121 305 -258 398q-10 2 -72 18q-43 12 -76 14v-313q139 -49 254 -63q22 -35 47 -98q37 -92 43 -103q-44 -40 -145 -144q-91 -93 -146 -142q-311 163 -429 175q-29 3 -59 3q-118 0 -268 -40q-21 -6 -149 -44 q-86 -26 -138 -36zM266 780q0 -23 11 -27q12 20 34 20q19 0 46 -15q72 -42 69 -42q31 0 63 58q33 60 74 64q-5 -36 32 -42q24 31 24 87q0 68 -35 172q-6 1 -12 1q-34 0 -61 -30q-49 -53 -49 -56h1q-20 -14 -57 -24q-45 -13 -65 -23q-16 -49 -24 -61q-17 -30 -50 -34z M309 -109q24 -9 49 -9q32 0 65 15q83 39 103 42q-2 -31 3 -43q6 -18 29 -16q-1 -1 -2 -1q-2 0 -1 4q0 12 24 71q4 9 18 24q12 12 14 24q2 16 -8 52q-10 38 -8 59q-19 9 -35 9q-19 0 -36 -11q-29 -20 -35 -61q-139 -72 -180 -159zM383 1457q-1 -6 -1 -11q0 -27 23 -36 q16 -6 63 -6q5 -2 17 -20q9 -13 25 -11q70 20 106 21q11 -19 14 -130q2 -82 36 -82h3q32 3 32 62q0 20 -3 58q-3 35 -3 49q11 10 37 13q25 3 38 -2v-7q0 -40 33 -85q50 -68 56 -83q23 21 81 55q55 33 78 57l93 -3h9q42 0 62 18q10 -8 31 -49q16 -30 38 -30q18 0 31 21 q14 21 27 21q-6 -21 -6 -38q0 -38 29 -57q17 -12 35 -5q20 7 32 32q6 -5 27 -25q16 -16 28 -24q34 -25 78 -26q4 -10 13 -27q8 -15 11 -23q10 -26 -3 -61q22 -27 46 -5q16 15 28 48q4 -7 10 -48q5 -31 22 -37q12 0 37 27q-9 32 -15 117q-6 71 -22 105q-6 11 -27 26 q-22 16 -26 27q-6 13 -6 39q-1 28 -5 40q-5 15 -25 37q-19 20 -23 37q-117 6 -132 132q-14 2 -59 27q-39 21 -64 21h-4q-17 -1 -49 -26q-36 -28 -51 -32q-16 -5 -34 -5q-24 0 -50 9q-64 21 -75 22q-96 11 -204 11h-34q-47 -1 -154 -42q-150 -59 -254 -96zM870 60 q4 -17 24 -30q23 -15 29 -28q-15 -30 -15 -63q0 -7 1 -15q4 -44 37 -44h3q40 3 49 152q2 35 2 64q0 89 -19 112q-51 -3 -87 -49q-27 -35 -27 -72q0 -13 3 -27zM875 219q12 1 48 20q37 19 58 22v88q0 121 1 373v69q0 236 -6 386q-17 -16 -49 -36q-44 -28 -52 -33v-889z M1066 118q-13 -73 -13 -126q0 -71 23 -106q21 3 38 3q36 0 52 -14q-10 -38 0 -56q6 -11 20 -11q4 0 8 1q48 10 57 61q63 4 85 47q3 46 -58 154h-6q-55 0 -206 47z" />
<glyph unicode="S" horiz-adv-x="2234" d="M132 53q-9 26 -9 50t10 45q15 32 53 60q40 31 80 36q14 2 39 -2q27 -4 41 -3q17 1 54 12q34 9 53 9q25 0 55 -13q38 -17 47 -19q19 -4 49 -7q39 -3 45 -4q49 -7 66 -37q21 4 42 -3q25 -8 38 -8q33 54 64 123q-50 -7 -98 -7q-157 0 -302 74q-197 101 -225 270q-3 15 -3 31 q0 58 35 124q-38 75 -39 75v-1q-3 9 -3 19q0 31 31 62q-12 10 -15 35q-4 31 -11 45q-8 13 -35 37q-21 19 -24 38q-1 8 -1 15q0 73 108 134q-5 22 -5 44q0 72 53 133q13 2 33 3t26 2q12 10 56 72q33 47 72 56q14 3 37 -1q29 -4 38 -4q84 1 181 42q2 58 100 91q48 16 87 16.5 t70 -16.5q12 -6 30 -40q20 -35 34 -45q25 -19 79 -25q51 -6 71 -23q35 12 65 12q52 0 92 -34q52 -44 52 -115q0 -12 -1 -24q21 2 42 45q25 52 38 62q16 -9 59 -48q-103 -192 -257 -459q18 -12 43 1q29 14 48 9q15 8 38 37q22 26 42 33q18 6 40 6q18 0 39 -4q5 -1 41 -9 q27 -7 46 -9q8 -1 18 -1q23 0 59 6q38 7 60 7q7 0 13 -1q60 -9 109 -56q12 -12 67 -83q13 2 24 2q71 0 118 -77q41 -68 41 -151q0 -15 -1 -31q-1 -9 -2 -46q-1 -31 -4 -50q-3 -21 -24 -64q-21 -42 -24 -64q-31 -210 -37 -225q-3 -6 -17 -23q-15 -20 -21 -30 q-36 -62 -74 -107q-104 -120 -241 -208q-13 -9 -34 -29q-21 -19 -30 -25q-11 -7 -41 -18q-31 -11 -45 -19q-16 -10 -57 -37q-34 -23 -53 -33q-36 -18 -68 -18q-21 0 -41 8q-8 3 -24 15q-17 12 -29 17q-9 3 -31 7t-33 9q-12 5 -35 21q-24 17 -35 22q-19 8 -59 17 q-33 8 -53 20q-237 -100 -276 -113q-138 -45 -266 -45q-34 0 -67 3q-14 1 -58 1q-34 0 -54 4q-109 26 -187 177q-2 13 -2 28q0 19 3 41q5 44 4 59q-1 17 -27 92zM187 135q-17 -26 -17 -45q0 -24 27 -38q22 30 45 39q15 5 67 9q82 6 110 6q10 0 13 -1q9 -2 31 -15 q18 -11 33 -12h3q44 0 75 29q32 29 34 73q-59 28 -169 28q-73 0 -168 -12q-49 -6 -84 -61zM223 1099q48 -42 67 -107q8 -27 8 -50q0 -42 -27 -73q19 -26 36 -132q15 -90 61 -114q13 3 26 28q11 23 32 21q20 -12 24 -60q4 -41 35 -42h2q59 0 60 121q0 25 -3 55 q-18 232 -18 328q0 35 2 52q39 50 59 117q16 3 37 30q27 34 43 45q6 4 24 10q17 6 24 11q9 8 30 40q16 26 34 30q13 3 51 -3q40 -5 56 -3q3 1 78 25q43 14 68 14q8 0 14 -1q49 -11 86 -59q7 -10 21 -53q12 -38 32 -54q44 0 102 -26q10 21 67 49q51 26 56 57q-1 -6 -17 54 l-21 85q-36 14 -69.5 14t-63.5 -14q-22 10 -71 26q-48 15 -71 25q-78 34 -99 94q-21 5 -44 5q-54 0 -116 -27q-37 -115 -244 -115q-31 0 -66 3q-33 -13 -66 -60q-38 -54 -57 -68l-59 -6q-23 -48 -24 -106q0 -19 3 -38q-6 -9 -67 -54q-37 -27 -36 -60q-1 -7 1 -14zM266 -194 q25 -99 204 -99q78 0 186 19q186 69 187 69q90 38 96 54q-395 115 -416 117q-27 3 -52 3q-82 0 -139 -28q-71 -33 -71 -99q0 -17 5 -36zM678 1211q-23 -59 -23 -105q0 -125 167 -159q63 -13 136 -13q123 0 275 37q12 33 42 81q33 55 44 79q-137 105 -304 145q-67 16 -124 16 q-130 0 -213 -81zM886 153q26 8 60 -6q37 -16 52 -15q10 1 37 16q37 21 49 27q93 42 169 42q26 0 50 -5q37 30 213 32q4 16 -6 29q-10 14 -10 25q-68 25 -170 25q-43 0 -92 -4q-287 -27 -283 -27q-13 -22 -35 -69q-22 -48 -34 -70zM1057 95q51 -56 53 -75q16 -3 37 6 q18 8 33 -1q10 -17 11 -81q0 -50 32 -58q11 3 18 19q9 20 14 24q15 -8 27 -32q15 -31 21 -38q14 -4 48 6v-9q0 -37 32 -39q35 20 75 53q0 24 -17 119q-6 35 -6 62q0 29 7 49q5 15 35 45q23 23 18 46q-20 9 -47 9q-22 0 -49 -6q-105 -25 -102 -25q-14 -1 -51 2q-33 2 -50 -2 q-124 -28 -139 -74zM1474 971v-6q0 -13 7 -25q12 -19 14 -28l-3 -39q-2 -22 19 -31q16 -3 26 12q11 15 22 15q15 -66 27 -75q10 -3 22 -3q24 0 55 14t56 14q12 0 22 -3q10 -55 51 -56h3q35 0 63 40q2 -8 16 -14q15 -5 16 -13q-5 -27 -5 -47q0 -60 46 -60h7q13 11 11 54 q-1 46 5 58q61 -41 75 -117q-1 8 -4 -131v-6q0 -72 42 -72h5q16 2 35 36q20 35 24 71q1 4 1 9q0 15 -5 37q-7 32 -7 45q-3 142 -32 187q-16 25 -52 30q-52 7 -65 13q-25 11 -42 43q-21 37 -33 48q-44 37 -91 42q-5 1 -12 1q-21 0 -60 -7q-33 -6 -56 -6q-13 0 -22 2 q-11 2 -31 11t-27 10q-16 2 -30 2q-28 0 -50 -8q-39 -14 -43 -47z" />
<glyph unicode="T" horiz-adv-x="1855" d="M54 930q19 179 100 293q9 13 37 36q28 24 41 42q11 16 50 92q27 52 55 71q10 7 41 15q36 11 48 16q24 11 66 41q52 38 70 48q112 68 151 68q16 0 40 -14q27 -15 39 -17q14 -3 41 1q32 5 48 4q27 -2 81 -17q52 -15 70 -15q35 0 101 33q68 33 104 35h14q67 0 123 -42 q21 -16 50 -46l48 -48q90 -39 99 -47q16 -13 43 -61q22 -42 36 -43h3q21 0 46 41q32 51 45 58q26 -12 26 -47q0 -18 -10 -63q-35 -151 -158 -230q-108 -70 -268 -70q-27 0 -56 2v-963q21 2 53 -8q30 -9 47 -7q20 2 57 24q33 21 58 18q16 -3 42 -30q27 -28 42 -28q17 0 83 79 q78 93 79 94q20 -4 16 -25q-3 -16 -16 -33q-8 -40 -142 -309q-220 -233 -476 -251q-8 4 -10 -5q-1 -6 -7 -6q-2 0 -4 1q-36 -2 -71 -2q-143 0 -274 33q-269 69 -444 304q-78 104 -89 131q-5 11 -58 251q9 292 148 508q108 165 328 329q-83 14 -152 14q-151 0 -240 -67 q-11 -13 -33 -30q-27 -19 -35 -27q-127 -124 -127 -131q0 -1 1 0zM305 1328q-2 2 -2 3q0 13 138 18q14 0 36 -11q25 -13 38 -16q15 -2 30 -3q70 0 127 56q22 -10 46 -10q27 0 57 12q63 24 98 24h8q28 -53 31 -58q28 3 49 3q36 0 51 -8q1 -55 15 -78q6 -9 24 -3t23 -3 q3 -20 20 -67q18 -49 22 -74q2 -10 1 -28v-28q2 -32 25 -43q53 17 59 107q8 145 9 149q15 -2 34 9q17 10 34 7q17 -12 32 -52q15 -41 31 -53q22 5 42 -5q23 -11 37 -11q30 10 34 63q1 6 1 15q0 22 -4 64q76 -21 84 -21q6 -72 83 -84q27 23 27 67v9q-2 41 -21 76 q-27 48 -89 94q-10 7 -44 19q-34 11 -50 23q-20 13 -56 55q-33 38 -54 49q-34 18 -73 18q-37 0 -77 -17q-108 -47 -143 -48q-21 0 -72 12q-54 13 -80 14q-145 10 -173 32q-57 -12 -132 -64q-104 -72 -124 -83q-13 -7 -51 -23q-31 -14 -47 -24q-48 -30 -54 -83zM457 433 q9 -89 68 -194q10 38 38 63q5 5 26 21q18 14 30 26q10 10 26 31q15 20 23 28q23 22 56 22q10 0 21 -2q-1 26 -1 91q0 98 2 284v56q0 192 -12 306h-10q-273 -262 -273 -624q0 -53 6 -108zM541 140q-3 -19 -3 -37q0 -69 39 -130q22 -2 28 19q2 5 4 19q3 13 5 19q14 -11 17 -69 q4 -58 25 -72q9 -2 17 1q10 4 14 4q-2 -27 9 -38q10 -10 26 -4q15 5 22 20q9 16 1 33q20 -17 47 10q-4 172 -26 450q-10 1 -28 9q-13 7 -27 7h-3q-104 -104 -120 -115q1 -4 1 -9q0 -23 -19 -55q-27 -45 -29 -62zM1242 62q-14 -24 -14 -60q0 -57 35 -144q-16 -34 -5 -55 q8 -16 26 -16h4q22 2 32 24q6 14 6 30.5t-6 36.5q20 -3 42 4q25 7 37 7q-1 -33 11 -48q11 -13 28 -8q35 10 35 56q0 8 -1 16q33 -7 78 -27q18 26 18 73t-18 116q-23 19 -51 19q-19 0 -40 -9q-11 -5 -44 -22q-26 -15 -42 -20q-72 28 -113 28q-10 0 -18 -1z" />
<glyph unicode="U" horiz-adv-x="1960" d="M90 1049q-1 366 224 440q89 103 106 110q10 4 37 5q30 1 44 5q17 4 53 22q32 15 48 16q9 0 28 -6q22 -7 34 -8q16 -2 53 0q37 1 52 0q22 -3 60 -15t55 -14q12 -2 43 1q27 2 38 -1q25 -7 69 -53q37 -38 67 -38h3v-603q12 -10 39 -21q33 -12 42 -17q50 64 74 81 q29 20 61 20q28 0 57 -15q83 52 86 53v186q-19 13 -51 36q-36 27 -50 36q-18 -14 -42 -42q-30 -36 -39 -44q3 0 -48 24q30 50 134 162q0 56 91 144q9 0 30 -6q17 -5 32 -4q15 12 26 43q10 30 22 39q29 21 80 22h5q46 0 73 -17q22 -15 47 -71q23 -51 44 -59q27 7 48 -9 q-5 -13 -54 -96q-39 -67 -47 -120v-1100q4 -32 34 -96q15 0 39 24q28 29 42 34q15 -1 24 -15q14 -22 14 -24q0 -12 -111 -116q-83 -78 -114 -113h-67q-130 137 -162 296q-6 -16 -57 -51q-50 -33 -58 -59q-4 -11 -2 -37q2 -35 2 -44q-9 -193 -10 -206q-10 -126 -67 -129h-3 q-55 0 -67 115q-3 30 -5 102q-2 64 -6 89q-162 -59 -258 -76h-31q-282 0 -429 105q-101 73 -175 198q-73 124 -88 247q-5 46 -5 92q0 98 24 195q57 224 220 397q15 16 35 30q29 21 37 28q6 4 13 17t11 16q11 9 125 81q102 66 138 82q2 0 5 3q2 2 5 2q-20 0 -56 -11 q-40 -11 -59 -13t-50 -2q-44 0 -111 4q-47 3 -84 3q-49 0 -80 -5q-59 -9 -113 -51q-16 -13 -43 -37q-28 -27 -40 -37q-2 -2 -35 -73q-21 -44 -56 -51zM358 1484q3 -12 21 -16q38 -10 31 -8q-1 -53 31 -52h7q29 52 70 52h2q4 -5 15 -52q8 -33 33 -34q29 17 29 82v9q18 5 32 5 q25 0 40 -14q16 -14 33 -58q14 0 43 29q11 -15 46 -12q37 3 50 -7q-5 -40 15 -54q19 -13 52 1q2 -16 14 -37q12 -20 14 -39l-9 -94q-1 -7 -1 -13q0 -41 30 -42q18 0 31 33q10 24 12 49v11q0 33 -9 101q-5 36 -5 63q0 24 4 40q5 -4 24 -24q13 -16 29 -19q18 5 19 38q1 8 0 29 q-1 19 0 28q-15 20 -54 43q-42 25 -56 39q-57 0 -170 19q-112 19 -165 19q-26 0 -69 -17q-46 -19 -70 -21q-93 -9 -119 -77zM482 671q-2 -27 -2 -54q0 -204 141 -382q88 73 88 306q0 20 -1 40q-5 152 -5 253q0 137 9 177q16 77 68 155q9 13 44 62q27 36 41 60 q-347 -224 -383 -617zM1085 226q-3 -43 -3 -80q0 -145 41 -198q31 -4 45 27q17 36 32 40q25 -53 36 -178q12 -144 26 -190q27 12 33 86q3 35 5 99q1 77 3 104q6 119 35 165q64 25 67 34q1 47 -41 57q-15 3 -42 4q-38 1 -46 1q-192 17 -192 27q0 1 1 2zM1104 279q14 5 29 5 q26 0 57 -13q69 -28 91 -31q9 -1 26 0q17 2 27 0q26 -3 65 -25q19 -11 31 -11q6 0 9 3q16 11 24 9v311q-62 44 -180 44q-117 0 -179 -44v-248zM1243 867q16 -21 67 -57q-1 -8 -1 -15q0 -28 14 -56q19 -41 20 -63q10 -3 10 -5q33 1 51 49q19 50 44 56q7 -1 18 -14 q9 -11 21 -10q28 36 28 106q0 26 -4 57q-3 18 -15 38q-14 23 -28 24q-18 1 -37 -28q-21 -31 -35 -34q-12 -3 -45 7q-33 11 -51 7q-20 -4 -34 -24q-2 -3 -11 -19q-7 -12 -12 -19zM1420 1390v-9q0 -49 28 -93q17 -3 28 13q11 17 25 16q36 -5 45 -35q3 -10 3 -27t-3 -39 q-8 -58 -8 -70q0 -37 20 -49h4q42 0 58 37q10 26 10 87q25 -29 39 -19q16 5 14 40q-2 42 0 46q12 8 31 0q19 -7 31 0q3 6 5 72q43 24 43 54q0 18 -15 38q-76 100 -76 99q-19 6 -45.5 5.5t-59.5 -5.5q-34 -94 -90 -94q-17 0 -35 8q-49 -14 -52 -75z" />
<glyph unicode="V" horiz-adv-x="1589" d="M79 1261q1 5 10 40q31 117 89 159q5 34 43 62q72 53 70 51l99 94q13 4 26 3q39 0 74 -34q22 -22 64 -91q12 2 27 -1q17 -4 25 -4q5 -25 36 -45q52 -34 58 -39q43 -39 45 -102v-6q0 -64 -59 -80q1 -7 11 -29q8 -16 7 -32q171 93 362 188q-2 10 10 51q34 11 86 64 q55 55 87 68q9 3 22 3q32 0 88 -21q66 -26 102 -53q46 -34 46 -90q0 -61 -56 -98q62 -147 62 -324q0 -70 -10 -144q-30 -234 -136 -415q-19 -32 -75 -113q-14 -20 -43 -53q-31 -35 -42 -50q-117 -158 -315 -357q-17 4 -45 18q-29 15 -44 19q-1 -5 -9 -170q-4 -106 -61 -107 h-1q-59 0 -72 117q-4 37 -5 105q-1 78 -2 98q-139 -8 -231 -62q-32 11 -47 33q8 29 61 179q43 119 52 193q4 29 4 56q0 108 -66 169q-76 71 -234 71q-1 128 115 160q32 9 63 9q74 0 142 -52q-1 219 -57 384q-72 213 -211 232q-8 1 -15 1q-39 0 -74 -26q-21 -16 -62 -65 q-14 8 -14 28v8zM253 1489q19 -17 90 -26q67 -7 84 -31q2 -6 4 -21t3 -21q7 -23 31 -19q21 29 94 52q32 -12 63 -54q39 -52 54 -64q25 24 25 50q0 27 -28 55l-86 88q-11 -2 -24 1q-15 4 -23 4q-48 37 -61 89q-31 32 -58 32q-15 0 -29 -9q-13 -10 -35 -34q-28 -31 -38 -41 q-57 -53 -65 -53q-1 0 -1 2zM488 13q22 1 45 19q26 20 40 23q17 87 28 111q25 52 85 54q-4 -4 24 38q17 24 41 28q18 2 60 -11q41 -13 64 -13h3q18 1 33 1q70 0 94 -15q5 -3 23 -19q10 -9 15 -5q44 68 112 231q-84 44 -220 50q-21 1 -42 1q-111 0 -193 -32 q-32 -113 -212 -461zM606 69q2 -12 29 -31q30 -21 36 -34q21 -42 22 -175q1 -117 40 -159q18 30 18 263q22 9 46 9q38 0 81 -23q-12 -2 19 47q5 -1 10 -1q58 0 100 80q27 52 27 91q0 24 -10 42q-25 46 -108 46h-10h-26q-91 0 -124 19q-11 -6 -23 -31q-11 -24 -24 -30 q-16 -6 -47 -4q-1 -13 -34 -47q-23 -25 -23 -50q0 -6 1 -12zM733 1131q31 -216 32 -225q8 1 32 -9q24 -11 34 -10q19 1 49 35q30 36 55 40q20 4 62 -4q43 -8 60 -5q14 2 60 23q34 16 62 10q7 -2 22 -14q12 -9 25 -5q-47 260 -132 371q-53 -36 -182 -102q-122 -63 -179 -105z M906 878q20 -45 94 -47q6 -9 14 -25q9 -19 13 -26q17 -29 44 -34q14 4 27 25q13 22 25 27q-7 -70 -7 -91q0 -55 39 -55q31 0 41 43q5 20 5 44q0 19 -3 40q17 -3 33 9q8 49 9 113q-30 35 -83 35q-23 0 -51 -7q-67 -17 -114 -17q-31 0 -53 8q-21 -18 -33 -42zM1151 1352 q5 -3 19 -4q13 -1 18 -5q4 -3 10 -21q4 -12 19 -7q5 -8 17 3q12 12 15 6q5 -12 4 -37q-1 -21 6 -33q11 -5 21 -5q18 0 29 17q5 8 13 25t12 24q16 -1 27 -22q12 -22 25 -25q33 2 33 61q30 25 41 65q4 14 4 26q0 29 -22 50q-24 3 -70 35q-43 29 -80 31q-26 0 -90 -47 q-13 -10 -34 -21q-28 -15 -32 -17q-28 -17 -28 -42q0 -30 43 -57z" />
<glyph unicode="W" horiz-adv-x="2685" d="M90 1100q1 215 130 341v45q72 123 174 124q25 0 51 -8q13 -3 29 -23q18 -21 29 -26q57 -27 102 -27h6q15 1 44 17q30 17 45 19q12 2 35 -1q25 -4 37 -3q14 0 62 7q36 5 55 2q24 -5 67 -37q36 -26 69 -26h3v-1342q54 33 135 116q-48 134 -48 265q0 65 12 130 q33 179 193 373q128 156 305 260q-34 -7 -111 -7h-36q-41 1 -73 1q-64 0 -94 -3q-143 -13 -207 -148q-12 -1 -36 5q22 267 211 332q7 8 19 28t20 30q25 32 60 36q11 1 37 -6q25 -7 39 -3q16 4 31 24q18 22 23 25q40 24 98 24q14 0 28 -1q8 -1 25 -7q16 -6 29 -7q11 0 36 6 q24 5 40 3q51 -6 83 -48q7 -9 52 -91v-556q9 9 24 26q16 18 24 25q27 26 64 29h9q18 0 65 -2q11 -1 21 -1q34 0 58 8v184q-32 32 -68 67q-61 -65 -63 -67q-15 5 -49 45q36 46 112 124q79 81 112 123q22 -6 41 -36q19 8 48 33q36 31 47 38q20 13 39 13q32 0 59 -39q16 4 29 4 q68 0 92 -108q-104 -115 -117 -224v-938q6 -60 45 -130q70 50 64 47q11 5 21 5q24 0 36 -34q-37 -40 -233 -216q-158 60 -206 270q-52 -35 -162 -139q-6 -28 -5.5 -69t5.5 -95q10 -98 10 -148q0 -12 -1 -21q-7 -116 -45 -121h-3q-31 0 -47 73q-1 5 -13 107q-24 203 -27 211 q-23 -17 -179 -68q-28 -2 -54 -2q-166 0 -275 76q-93 64 -183 223q-177 -206 -269 -247q-2 -19 -4 -89q-2 -66 -6 -103q-15 -122 -70 -122h-1q-50 0 -63 99q-3 27 -7 85q-3 55 -6 76h-27q-282 0 -438 223q-113 163 -113 371q0 81 17 169q1 6 9 24q8 17 9 25v8q0 31 -12 95 q-9 43 -9 73q0 17 3 31q11 55 63 104q49 45 107 62q-2 10 -2 20q0 48 45 82q45 35 114 41q31 3 45 -9q45 35 126 81q-50 -33 -142 -33q-16 0 -34 1q-104 7 -156 7q-28 0 -41 -2q-74 -10 -123 -72q-9 -12 -74 -125q1 0 -45 9zM247 925q-5 -21 -5 -41q0 -36 16 -65 q16 -32 65 -74q21 3 23 36q1 8 0 29q-1 20 0 29q22 14 49 77q25 1 54 36q2 11 -1 25q-4 16 -3 24q5 10 20 20q20 11 24 16q2 9 -1 19q-3 11 -3 17q67 39 72 40q7 19 7 37q0 23 -12 44q-12 5 -26 5q-18 0 -39 -8q-12 -4 -32 -14q-21 -11 -28 -14q-4 -11 -5 -47q-1 -32 -9 -43 q-143 -46 -166 -148zM261 1468q-1 3 2 3q11 0 78 -39q2 -41 1 -35q3 -18 17 -19q19 -3 25 14q1 4 3 16q2 10 4 15q-1 0 42 7q24 4 38 -7q6 -60 36 -63q23 12 23 56v7q9 0 38 6q23 5 43 3q41 -45 36 -45q15 22 48 19q28 -2 55 -19q-7 -20 3 -45q14 -33 15 -40v-6 q0 -18 -9 -60q-4 -16 -4 -30q0 -20 8 -34q47 2 57 62q4 19 4 54q0 23 -2 54q69 82 130 99q12 27 0 54q-33 27 -86 28q-16 0 -46 -2q-34 -3 -48 -4q-8 0 -33 4q-21 3 -34 1q-16 -3 -46 -22q-27 -18 -44 -19q2 0 -58 18q-102 31 -121 63q-10 1 -20 1q-123 0 -155 -95zM592 255 q-4 -4 -3 -6q0 -3 8 -2q7 -13 24 -6q28 10 30 10q7 1 24 -2q16 -3 25 -2q16 2 48 17q30 14 47 14q-7 0 54 -13q10 -2 34 -5q22 -2 28 -4q5 -2 24 -19q12 -11 21 -3v110q0 151 1 465v98q0 286 -5 471q-98 -74 -103 -170q-2 -29 -2 -84q0 -77 4 -203q3 -89 3 -158 q0 -88 -5 -143q-13 -131 -83 -221q-44 -57 -155 -139q-10 4 -19 -5zM617 94q19 -66 74 -76q9 5 24 34q13 24 35 24q-3 -36 9 -49q12 -4 26 4q12 8 14 5q1 -7 13 -180q7 -109 37 -157q27 52 27 266q0 45 -1 98q27 24 50 27q0 -30 1 -33q3 -16 17 -16q28 3 28 55q0 31 -10 79 q-96 56 -157 59q-17 0 -87 -20q-26 -8 -48 -8q-25 0 -45 10q-14 -36 -14 -72q0 -25 7 -50zM1338 1499v-6q0 -13 8 -23q17 -21 19 -25q2 -5 4 -28q1 -14 14 -16q22 18 98 31q20 -23 74 -31q11 -1 46 -4q28 -3 42 -5q7 -2 20 -9q11 -6 20 -5q12 2 29 19q15 15 30 12 q24 -5 32 -108q8 -98 39 -98h1q28 2 28 60q0 14 -2 30q-14 177 -13 184q12 19 12 38q0 20 -13 40q-23 37 -66 43q-16 2 -38 -3q-24 -6 -34 -6h1q0 1 -83 10q-10 1 -18 1q-31 0 -53 -11q-6 -3 -28 -29q-19 -24 -39 -29q-3 -1 -13 -1q-20 0 -68 4h-6q-38 0 -43 -35zM1356 422 q1 4 18 -49q1 -6 1 -22q0 -15 3 -23q7 -19 34 -52q24 -29 25 -47q0 -9 -4 -36q-5 -29 -6 -41q0 -38 28 -38q8 0 17 3q26 7 26 43q0 10 -2 23q-7 37 -7 61q0 22 6 34q2 -6 4 -18q2 -14 4 -19q5 -21 23 -21q24 2 23 58q34 14 34 82v15q-4 80 -39 101q-26 16 -58 6l-27 -12 q-18 -9 -27 -12q-10 -4 -26 -7q-18 -4 -22 -5q-23 -7 -28 -24zM1365 480q20 2 79 30q30 15 59 15q14 0 28 -4q0 40 -7 201q-2 50 -2 92q0 59 4 102q18 180 148 359q-1 5 -9 4q0 -2 -2 -6q-3 -3 -2 -7q-139 -86 -224 -243q-14 -24 -50 -130q-1 -3 -9 -10q-7 -8 -9 -12 q-32 -102 -32 -203q0 -95 28 -188zM1894 144q15 -15 17 -50q2 -65 1 -62q1 -6 7 -19q6 -12 7 -17q9 -45 16 -167q5 -105 24 -157q28 6 29 40q0 -10 -6 59q-18 202 -18 260v10q99 123 125 134q1 7 -13 54q-35 4 -86 15q-68 14 -85 16q-2 -11 -5 -61q-3 -40 -13 -55zM1899 305 q179 -32 224 -54q6 3 19 13q12 8 22 10v292q-67 17 -129 17q-71 0 -136 -22v-256zM1917 880q17 -13 17 -57q0 -14 -2 -31q-1 -10 -1 -19q0 -47 31 -55q8 5 18 33q9 24 27 26q21 -32 22 -32q11 -4 23 5q10 8 13 4q-2 -40 26 -40h1q19 3 18 42q-1 48 4 57q9 -3 20 -18 q11 -14 25 -14q21 20 22 106q0 85 -17 101q-17 6 -42 -5q-31 -13 -39 -13q-12 -1 -33 6q-20 8 -30 7q-37 -2 -61 -33q4 5 -42 -70zM2285 1423v1q4 0 40 -77q-7 -16 -7 -31q0 -38 48 -64q1 -7 -5 -72q-4 -42 23 -49q23 9 26 85h-1t-1 2q0 13 34 102q8 20 40 54q31 31 36 53 q-27 47 -31 50q-13 1 -28 -4q-17 -5 -26 -5q-11 4 -31 25q-17 19 -36 20q-5 -20 -42 -45q-37 -24 -39 -45z" />
<glyph unicode="X" horiz-adv-x="1592" d="M72 1329q77 153 169 204q3 5 13 33q8 20 22 31q11 11 37 15q32 6 42 10q10 5 25 20q16 16 25 20q26 12 63 12q8 0 17 -1q45 -2 68 -16q11 -1 30 3q17 4 30 2q6 -9 39 -39q32 -28 45 -50q4 -6 5 -18q2 -12 5 -17q5 -8 23 -22q14 -12 17 -23q6 -21 6 -43q0 -20 -5 -41 q-10 -43 -36 -65q132 -251 199 -387q24 50 97 218q60 136 101 214q-16 26 -16 50q0 13 5 25q8 23 41 59q8 9 17 22q11 15 13 19q16 19 45 24q12 2 24 2q47 0 100 -27q18 4 35 4q44 0 76 -29q36 -32 36 -78q0 -12 -3 -26q14 -15 59 -35q-93 -203 -104 -233q-92 26 -298 119 q-28 -63 -74 -160q-62 -131 -75 -158q13 -5 28 -5q37 0 86 30q18 -4 129 -5q15 -17 74 -38q53 -19 65 -46v-35q2 -7 20 -5q19 2 20 -5q-9 -32 -38 -94q-26 -59 -36 -95h-293q21 -50 30 -54q81 -205 173 -363q23 -103 129 -188q96 76 90 74q2 -13 17 -30t18 -29 q-22 -23 -123 -121q-75 -74 -121 -123q-143 60 -243 261q-8 17 -78 174q-46 106 -86 166q-3 31 -25 71q-24 44 -29 68q-53 -104 -169 -370q-104 -240 -174 -365q-3 -97 -3 -124q0 -11 1 -12v1q-9 -71 -52 -78q-6 -1 -11 -1q-58 0 -67 113q-2 22 -4 107q-1 65 -8 94 q-42 28 -193 99q11 47 47 126q52 114 57 127q16 -5 51 17q36 23 64 23h4q23 46 73 48h5q46 0 76 -38q6 0 11 1q60 0 78 -41q23 43 52 116q35 86 53 122q46 99 44 129q-16 0 -71 0.5t-147 -0.5h-62q-102 0 -162 5q12 40 41 99q34 68 44 95q6 6 30 5q21 39 81 62q-7 -3 112 32 q-25 40 -65 131q-46 104 -68 144q-81 148 -188 148q-10 0 -21 -1q-34 -4 -97 -38q-46 -23 -76 -23q-6 0 -11 1zM285 1528q3 -7 12 -14q11 -8 13 -11q-6 -2 204 -20q2 -17 0 -46q-1 -36 -1 -44q1 -44 31 -44q19 1 28 36q8 34 36 34q64 -44 70 -45q21 6 24 40q1 11 1 32 q-1 25 -1 32q-22 16 -54 73q-29 52 -60 66q-27 -10 -44 -10q-8 2 -20 11q-11 8 -20 9q-6 1 -14 1q-11 0 -24 -2q-24 -4 -37 -4q-9 -27 -77 -41q-63 -14 -67 -53zM290 267q9 -4 15 -25q6 -20 15 -24q6 -4 30 -8q20 -3 25 -12q-10 -159 -10 -274q0 -181 25 -252q20 45 20 164 q0 28 -1 61q-1 20 -1 38q0 129 31 178q3 -3 6 -10q3 -8 5 -11q7 -12 24 -8q12 2 19 23q7 22 16 26q4 0 17 -7q10 -6 23 -3q15 13 15 59v6v27q0 36 4 47q-8 5 -20 17q-12 13 -19 18q-9 -1 -17 -1q-28 0 -52 15q-37 24 -55 26q-6 -31 -47 -45q-62 -21 -68 -25zM459 863 q1 -16 19 -23q33 -13 31 -12q-3 -34 17 -55q10 -11 42 -29q18 3 27 23l6 18q5 13 7 18q20 -8 40 0q10 29 10 50q0 54 -62 60q-11 1 -21 1q-67 0 -116 -51zM955 843q13 -38 45 -45q15 -3 36 8q24 12 39 12q12 -57 15 -59q14 -7 25 -7q17 0 29 15q3 5 25 51q20 -8 46 1 q30 11 48 9q8 -1 22 -13q11 -11 28 -7q-1 -1 15 80q-12 4 -58 29q-37 20 -61 25q-16 3 -36 3q-38 0 -89 -12q-81 -20 -118 -20h-6q-11 -18 -11 -38q0 -15 6 -32zM1157 1442q16 -14 22 -28q4 -10 6 -26q1 -19 2 -21q4 -20 37 -13q8 7 11 31q3 27 8 34q10 -7 25 -5 q18 -69 15 -65h30q4 5 4 26q0 19 6 24q16 3 27 -10q12 -13 27 -10q11 3 18 22q7 20 17 23q2 -6 4 -21q3 -13 5 -20q8 -20 36 -14q12 34 12 62q0 23 -8 42q-18 44 -69 50q-8 1 -29 -3q-20 -3 -30 -2q-5 1 -58 19q-25 9 -45 9q-11 0 -21 -3q-22 -7 -44 -35q-21 -26 -21 -43 q0 -10 13 -23z" />
<glyph unicode="Y" horiz-adv-x="1700" d="M73 40q-3 -24 -3 -46.5t3 -43.5q14 -95 89 -182q83 -95 189 -110q32 -4 63 -4q84 0 168 29q46 16 188 88q22 12 62 31q50 23 65 31q16 8 45 24q29 17 42 24q40 19 76 19q8 0 16 -1q5 -12 5 -26q0 -25 -16 -56q-20 -39 -20 -73q0 -12 3 -24q47 -65 108 -65q14 0 28 3 q65 16 65 99q0 11 -1 22q-8 99 -68 148q-22 17 -123 52q-68 81 -113 84q-19 2 -45 -12q-33 -17 -49 -21q-12 -2 -29 -2t-38 2q-23 2 -40.5 2t-29.5 -2q-15 -11 -52 -35q-34 -22 -51 -35q-57 -45 -66 -108q-71 -44 -171 -44q-14 0 -29 1q-129 7 -177 85q-31 63 -31 118 q0 70 49 126q80 93 246 109q43 4 132 4t225 -4q48 -1 91 -1q157 0 235 20q10 -125 12 -132q14 -66 60 -66h3q53 2 60 91q1 20 2 81q0 52 4 78q203 80 293 322q55 149 55 322q0 87 -14 180q48 30 47 147q-2 110 -37 159q-35 6 -57 5q-43 92 -70 103h-47q-32 40 -80 40h-2 q-11 -1 -112 -21q-31 -6 -128 -12q-74 -4 -107 -21q-11 2 -29 14q-17 13 -28 14q-13 2 -40 -5t-40 -4q-9 2 -68 31q-29 14 -56 14q-13 0 -26 -3q-69 35 -85 62l-116 28q-37 9 -67 9t-53 -9t-50 -42q-32 -40 -44 -48q-9 -3 -31 -7t-32 -8q-37 -11 -45 -41l-1 1q0 1 5 1 q17 0 90 -12q161 -26 161 -257q0 -71 -15 -162q-57 19 -127 21h-10q-78 0 -112 -30q128 -60 188 -128q73 -83 73 -200q0 -17 -2 -35q-113 38 -161 43q-21 2 -38 2q-51 0 -65 -16q13 -22 51 -40q48 -24 62 -36q119 -98 146 -207q13 -52 13 -93q0 -49 -18 -81 q-145 -5 -241 -80q-97 -76 -112 -198zM356 1594q1 5 47 56q5 1 16 1q45 0 181 -24q14 -34 65 -47q15 -4 47 -9q33 -6 49 -10q17 -4 41 -17q33 -16 41 -20q26 -10 52 -10q24 0 49 9q-4 -2 -17 -6q-11 -4 -16 -8q-84 -113 -188 -179q5 -38 5 -65q0 -67 -31 -67h-2 q-26 2 -31 41q-1 8 -1 22q0 24 3 63q2 35 2 58q0 17 -1 28q-6 42 -34 47q-7 -6 -9 -30q-2 -25 -9 -31h-19q-20 1 -19 38q-6 15 -30 24q-29 11 -36 18l-9 -26q-5 -16 -19 -16q-26 7 -31 50q-8 76 -7 72q10 -4 -51 13q-29 8 -38 25zM596 -139q-1 4 -1 9q0 38 49 64 q69 39 79 54q11 1 25 1q20 0 46 -2q18 -1 33 -1q19 0 32 2q15 3 36 12q27 12 33 14q9 3 17 3q24 0 42 -24q-3 -5 -2 -26q0 -18 -8 -26q-10 -5 -38 -7q-27 -3 -37 -7q-51 -70 -61 -75q-6 -3 -22 -5q-18 -2 -26 -5t-28 -14q-16 -8 -24 -9q-3 -1 -6 -1q-20 0 -36 34 q-101 7 -103 9zM864 308v354q68 64 201 64h12q145 -4 197 -83q7 10 -52 0q-52 -9 -56 -90q-82 -1 -111 -74q-13 -33 -13 -70q0 -41 15 -87q-9 1 -20 1q-28 0 -71 -8q-44 -8 -77 -8q-13 0 -25 1zM864 1099v297q71 33 135 33q74 0 140 -43q120 -77 135 -235q-2 -11 -21 -1 q-6 3 -15 8q-9 7 -11 7q0 40 -33 61q-26 16 -62 16h-11q-43 -2 -73 -24q-33 -24 -33 -62q-81 -44 -85 -99q-61 39 -66 42zM958 1019q2 44 54 83q52 40 55 82q46 13 99 14q1 -33 77 -93q30 -24 36 -44q3 -7 3 -16q0 -20 -18 -44q8 0 -37 28q-6 -11 -6 -72q0 -48 -27 -51 q-26 -2 -30 28q-1 5 -1 14q0 18 3 53q-10 5 -29 5t-47 -5q-8 -53 -11 -62q-10 -31 -36 -37q-19 6 -17 34q3 37 -2 46q-2 -3 -7 -12q-5 -7 -8 -10q-11 -11 -32 -7q-5 11 -8 33q-2 21 -11 33zM1086 418q-1 9 -1 16q0 36 19 53q12 11 60 21q39 9 49 36q-5 39 8 50q12 9 31 -4 q45 -30 45 -75v-9q-2 -27 -37 -64q-39 -41 -47 -72q-7 -24 -7 -70q0 -29 3 -67q1 -15 1 -29q0 -59 -21 -89q-23 11 -26 49v33q0 20 -2 31q-12 64 -66 99q0 5 -9 91zM1274 1542q21 13 44 13t48 -14q52 -28 86 -28q5 0 10 1q10 -12 21 -35q13 -30 18 -37q22 -37 64 -37 q5 0 10 1q19 -94 19 -154q0 -66 -23 -91h-6q-37 0 -37 56v5q-32 6 -43 61q-12 63 -28 75q-3 -14 -5 -44q-2 -37 -3 -48q-7 -53 -39 -54q-24 0 -31 36q-3 18 -3 58v22v22q0 108 -27 126q-51 10 -52 10q-17 21 -23 56z" />
<glyph unicode="Z" horiz-adv-x="1564" d="M109 -33q-3 35 48 67q164 235 392 643q-40 4 -94 4q-22 0 -45 -1q-28 -1 -51 -1q-47 0 -76 3q0 26 13 53q19 37 21 44h290q18 24 58 92q-44 5 -117 5h-25h-98h-50q-1 15 13 46q18 40 20 50h141q23 118 92 131q132 26 130 24q14 10 34 31q21 23 31 30q17 13 37 13 q22 0 48 -16q51 46 152 145q100 97 153 145q-190 -113 -419 -145q-76 -11 -147 -11q-168 0 -310 60q-12 -6 -33 -26q-27 -26 -34 -31q-14 -11 -27 -11q-22 0 -36 34q48 50 124 144q87 106 123 146q36 -7 48 -19q25 41 79 61q28 11 53 11q29 0 56 -14q88 34 97 34 q27 -3 60 -38q32 -34 51 -35q12 -1 35 15q25 17 38 19q24 4 53 -10q35 -17 53 -19h6q21 0 59 10q34 10 56 10q5 0 10 -1q31 -4 97 -68q14 0 60 17q35 13 56 -2q-28 -50 -90 -150q-61 -99 -89 -150q-103 -185 -160 -319q30 -5 94 -5h39q26 1 48 1q58 0 85 -6q-5 -19 -19 -48 q-15 -32 -19 -48q-76 -7 -151.5 -7t-148.5 7q-9 -19 -63 -102h146h158q0 -24 -13 -50q-18 -34 -20 -42q-51 -5 -133 -5h-29h-111h-56q-295 -346 -576 -570q14 4 216 81q136 52 244 59q5 6 18 27q13 20 22 32q29 37 61 42q15 3 48 -6q35 -10 49 -8q8 1 98 47q37 19 70 19 q28 0 54 -13q11 -5 21 -20q12 -16 23 -23q16 4 30 4q34 0 60 -22q6 -5 29 -29q17 -18 31 -26q9 -5 38 -10q20 -4 30 -19q-234 -281 -266 -314v-33v-63q1 -23 1 -43q0 -40 -3 -66q-10 -127 -76 -129h-2q-64 0 -71 158q-11 228 -14 239q-147 74 -359 74q-64 0 -134 -7 q-127 -12 -358 -87q-6 -2 -18 -8q-13 -6 -19 -9q-23 -7 -40 8zM554 1548q13 -6 45 -12t45 -11q38 -15 38 -55q0 -11 -3 -24q27 -1 40 -33q14 -33 33 -34q2 0 4 -1q33 0 41 58q9 67 37 78h4q19 0 74 -16q24 -7 45 -7q24 0 42 9q6 -3 22 -20q14 -15 31 -14q12 0 34 21 q25 23 38 27q7 2 22 1q16 -2 22 -1q36 7 106 44q-6 55 -71 55h-5q-9 0 -117 -22q-75 34 -82 34q-15 0 -42 -17q-25 -16 -41 -17q-27 0 -66 37q-39 36 -64 36q-15 0 -36 -17q-24 -18 -42 -22q-27 18 -59 18q-24 0 -49 -10q-49 -20 -49 -62q0 -11 3 -23zM597 977q7 -14 22 -23 q19 -11 26 -20q19 -22 30 -107q10 -75 28 -77h4q32 0 32 58q0 26 -6 63q18 8 27 37q18 53 16 50q56 14 84 71q19 40 32 122q-8 3 -16 3q-21 0 -39 -20q-42 -46 -42 -45q-51 -34 -153 -34h-6q-31 -18 -39 -78zM839 228q41 -42 77 -42q26 0 49 22q38 -30 77 -30q8 0 15 1 q24 -15 24 -51v-6q0 -6 -4 -38q-2 -24 -1 -40q19 -308 24 -343q6 -43 24 -54q38 63 38 180q0 14 -1 29q0 -4 -22 222q13 15 29 38q2 -3 6 -11q3 -8 5 -11q7 -13 23 -11q-6 0 24 24q0 -1 11 -18q7 -10 23 -6q15 3 17 25q3 35 2 33q8 6 32 18q27 13 39 21q40 25 41 51 q0 3 -1 6q-1 9 -34 35q-37 29 -63 33q-7 1 -24 -3q-17 -3 -24 -2q-23 5 -58 53q-12 3 -26 3q-48 0 -116 -36q-45 -24 -85 -24q-30 0 -58 14q-43 -28 -44 -29q-19 -18 -19 -45v-8z" />
<glyph unicode="[" horiz-adv-x="758" d="M146 1409q2 34 38 95q-33 57 4 111q31 47 95 71q-13 -5 145 -24q9 -2 31 0q21 2 31 0q79 -15 99 -71l46 -4q3 -20 0 -50h-112q-3 -27 4 -110q7 -92 6 -135q-4 -158 -109 -131v-1464q25 -7 112 -4q77 4 103 -13q-2 -2 -4 -37h-439q-2 127 -2 400q1 266 -2 411 q-2 112 4 387q6 247 0 382q-1 19 -27 86q-24 65 -23 100zM192 1438q-20 -46 8 -87q20 1 27 29q8 33 19 38q-3 4 10 -29q7 -17 23 -17q15 2 19 22q8 42 6 36q33 9 29 87q3 4 17 1t20 3q4 3 4 23q-1 18 8 18q7 0 42 -12q25 -50 21 -170q-4 -156 -1 -186q53 9 51 105 q-4 174 -5 168q4 33 8 79q6 2 18 7q11 4 16 6q15 9 16 28q0 25 -44 30q-13 1 -38 2q-26 0 -34 1q-9 1 -56 20q-42 16 -68 13q-26 -2 -64 -34q-37 -32 -40 -53q-1 -12 8 -32q10 -20 9 -30q0 1 -29 -66z" />
<glyph unicode="\" horiz-adv-x="944" d="M56 1618q44 52 137 61q101 10 117 -66q15 -20 67 -51q42 -25 50 -61q2 -11 0 -36q-3 -26 0 -40q3 -19 21 -50q17 -31 19 -46q3 -21 -5 -56q-10 -42 -10 -61q0 -8 1 -53q1 -31 -2 -50q-6 -55 -45 -80q68 -203 237 -695q153 -442 236 -696q-22 -7 -68 -6q-63 1 -75 1 q-103 305 -340 992q-221 641 -340 993zM117 1598q62 -13 79 -107q28 -158 28 -157q5 -9 19 -7q13 2 16 -9q3 -40 15 -137q5 -10 21 -8q17 1 20 -2l6 -145q3 -89 50 -88q14 16 5 51q-12 45 -10 60q33 32 39 71q3 14 1 87q0 19 9 62q9 38 7 55q-3 18 -21 45q-18 28 -20 41 q-3 13 -1 54q1 31 -9 47q-8 12 -31 21q-28 10 -35 15q-18 13 -32 40q-18 34 -29 46q-103 -2 -127 -35z" />
<glyph unicode="]" horiz-adv-x="758" d="M149 -321q33 11 108 10q99 -1 100 -1v1855q-26 6 -107 3q-73 -3 -101 9q-15 51 56 49q110 -2 106 -3q11 4 34 29q26 29 33 34q30 19 54 20q124 9 163 -20q27 -22 29 -63q1 -22 -16 -48q-19 -30 -21 -40v-1875q-40 0 -222 -1q-136 -1 -216 5v37zM366 1593q6 -12 83 -38 q5 -89 25 -100q-11 0 38 38q3 -1 14 -7q8 -4 19 -2q-7 -5 17 63q2 8 15 25q10 14 10 25q-1 34 -32 39q-10 2 -31 2q-24 0 -33 1q-111 9 -125 -46z" />
<glyph unicode="^" horiz-adv-x="1251" d="M50 984q54 66 89 96q-15 31 3 61q3 4 16 23q10 14 14 23q2 5 1 19q0 15 2 22q8 22 58 79q47 54 68 68q51 35 103 4q11 10 30 33q18 23 29 33q6 70 21 101q22 46 75 54q14 2 43 1q32 -2 46 -1q102 12 143 -7q51 -23 67 -55q11 -22 12 -68q2 -52 6 -69q3 -9 19 -34 q11 -19 7 -36q214 -229 310 -347q-67 -19 -119 16q-15 10 -43 35q-29 26 -45 38q6 -4 -368 306q-83 -63 -491 -399q-8 1 -50 0q-31 -1 -46 4zM168 1117q3 -11 15 -15q12 1 18 17q7 20 11 24q25 3 46 35q22 33 43 39q4 -1 15 -6q8 -4 18 -2q4 15 8 41q5 33 6 41q9 48 30 66 q-34 8 -56 -11q-7 -6 -17 -19q-13 -16 -19 -22q-69 -69 -77 -92q-3 -6 -5 -20q-1 -16 -3 -21q-21 -3 -32 -33q-4 -13 -1 -22zM507 1490q6 18 32 18t31 -18q13 -1 40 2q25 3 41 1q2 -10 11 -17q2 -2 7 -6q6 -4 8 -6q-1 -22 1 -32q4 -15 18 -16q17 2 22 29q6 35 11 41 q6 -2 11 -2q4 0 11 -2q25 -43 44 -118q3 0 56 19q-2 23 -13 68q-10 42 -10 72q-6 3 -27 22q-18 16 -35 22q-28 9 -69 5q-70 -9 -72 -9q-8 0 -30 1h-29q-33 -2 -47 -19q-18 -20 -12 -55z" />
<glyph unicode="_" horiz-adv-x="1024" />
<glyph unicode="`" horiz-adv-x="1024" d="M145 1486q-3 11 10 11q22 0 21 -1q-10 49 10 94t53 53q21 6 55 -5q38 -11 45 -10q19 1 45 14q23 13 44 12q42 -2 93 -48q48 -43 65 -89q5 -15 9 -53q4 -35 11 -51q6 -13 22 -36q17 -24 23 -37q23 -46 -3 -101q12 -13 55 -47q35 -29 50 -52q-18 -14 -52 -27q-7 -3 -29 -10 q-18 -6 -29 -10q-323 170 -498 393zM203 1481q18 -22 51 -17q12 2 29 8q26 8 30 9q13 -10 21 -32q2 -8 9 -43q5 -27 13 -40q10 -18 30 -22q-13 -2 26 63q2 -1 84 -81q51 -49 100 -66q35 28 10 70q-6 9 -25 34q-17 21 -22 33q-8 18 -11 56q-4 39 -10 54q-15 37 -52 68 q-42 36 -79 32q-8 -1 -25 -13t-27 -14q-17 -2 -46 5q-37 10 -54 11q-38 -31 -52 -115z" />
<glyph unicode="a" horiz-adv-x="1284" d="M60 569q5 46 43 96q12 16 35 42q27 31 36 41q63 77 65 79q23 19 52 19q26 0 57 -16q10 -1 28 21q20 24 37 28q-125 322 -136 369q8 1 43 -11q140 10 185 38q26 16 67 60q37 38 63 48q26 11 73 11q60 0 90 6q8 1 63 22q29 12 54 12q10 0 19 -2q45 -8 108 -87 q98 -13 98 -91v-6q-119 -64 -127 -316q-1 -18 -1 -44q0 -65 4 -180q2 -65 2 -116q0 -63 -3 -104q9 -6 28 -15t27 -14q26 -18 26 -49v-9q7 -5 30 -6q23 0 30 -5q34 -43 49 -99q8 -33 8.5 -64t-8.5 -59q-11 -19 -41 -15q-39 4 -40 4l-98 -82q-100 -82 -98 -81 q-182 80 -195 298q-49 -47 -137 -113q-124 -93 -151 -114q-9 -8 -24 -23q-18 -18 -24 -23q-27 -25 -47 -25h-2q-18 0 -29 15q-2 2 -11 16q-8 10 -15 18q-103 111 -114 130q-14 27 -27 75q-15 60 -22 77q-6 18 -23 55q-18 39 -26 59q-22 58 -22 106q0 12 1 24zM122 601 q-16 -31 -15 -63q0 -44 29 -88q3 3 11 21q6 14 16 17q11 -11 34 -11q16 0 37 5q7 -18 30 -39q27 -25 35 -37q27 3 27 29q0 7 -3 24q-3 16 -3 23q4 140 4 218t-4 92q-15 5 -27 5q-22 0 -37 -15q-8 -8 -19 -27q-14 -21 -20 -28q-88 -111 -95 -126zM353 1188q15 -63 49 -149 l54 -144q50 43 181 42q44 0 96 -4v114q-388 144 -380 141zM499 781q12 2 24 2q52 0 85 -41q54 -68 71 -75q1 1 76 65q0 83 -1 92q-5 47 -32 60q-51 2 -88 2q-56 0 -81 -5q-63 -14 -63 -60q0 -18 9 -40zM603 1286q136 -52 136 -55h-1q6 -54 38 -97q22 -5 33 13q13 22 22 25 q2 -14 4 -41q2 -28 4 -40q8 -45 35 -55q30 15 35 71q2 17 2 51q0 38 1 52q8 -1 16 5q9 6 16 5q16 -38 48 -38h6q33 4 60 37q27 32 19 58q-10 30 -63 30h-4q-12 10 -25 32q-11 20 -24 28q-20 13 -43 13q-14 0 -30 -5q-85 -25 -79 -24q-21 -4 -62 -6q-44 -2 -63 -4 q-69 -10 -81 -55zM955 401q-1 -9 -1 -18q0 -29 14 -63q6 -15 18 -37q15 -27 18 -34q-12 -35 -4 -55q6 -17 25 -19h5q15 0 30 11q19 14 26 36q19 2 35 -19q15 -21 35 -19q15 17 15 42q0 18 -8 40q-5 14 -19 43q-12 26 -15 38h-65q5 34 -9 61q-13 25 -35 35q-12 5 -22 5 q-9 0 -18 -4q-20 -11 -25 -43z" />
<glyph unicode="b" horiz-adv-x="995" d="M43 296v11q0 61 54 82q-2 12 -2 24q0 69 79 121v419h-118v136h113q10 65 10 120q0 171 -96 235q6 22 18 90q9 58 20 87q29 79 107 79q9 0 19 -1q23 -3 91 -46q20 3 38 3q64 0 105 -39q34 -32 34 -74q0 -27 -14 -58q-4 -10 -16 -19q-16 -12 -20 -17q-52 -68 -53 -245 q0 -22 4 -156q1 -42 1 -77q0 -47 -2 -82q1 -4 -5 -4v-5q6 3 24 17q15 11 26 15q78 206 155 250q47 26 120 35q21 2 39 2q52 0 78 -19q9 -7 23 -30q16 -27 22 -33q60 -65 64 -65q1 0 0 1q8 -23 8 -49q0 -69 -58 -160q0 -31 -0.5 -117.5t0.5 -229.5v-59q0 -171 -5 -281 q-152 -34 -346 -168q-211 125 -295 154q4 -21 5 -41q0 -52 -28 -104q-17 -33 -38 -36h-4q-23 0 -44 36q-8 -1 -20 -13q-10 -9 -26 -5q-37 6 -43 62q-1 17 -1 55q0 41 -1 60q-2 26 -11 72q-10 48 -11 67zM83 321q0 1 1 1q4 0 13 -129l-2 -96v-6q0 -49 15 -70q14 -3 20 9 q10 16 12 18q0 -20 22 -28q38 -14 37 -13q-1 -2 -2 -2q-4 0 -3 33q0 65 14 260q1 10 10 30q8 20 8 29v5q0 32 -22 66q-8 11 -22 28q-15 17 -19 24q-28 -24 -27 -67q0 -18 4 -38q-4 -14 -28 -26q-25 -13 -31 -28zM126 1458q-1 -4 -1 -8q0 -20 17 -33q7 -3 34 -5q22 -2 30 -9 q1 -5 3 -60q2 -37 24 -40q16 -2 20 19q4 24 12 27q4 -23 21 -33q15 -9 33 -4q35 10 35 45q0 10 -3 23q7 26 49 51q50 30 60 45q19 28 19 53q0 28 -24 54q-34 34 -86 34q-21 0 -45 -5q-67 44 -86 46h-8q-50 0 -66 -45q-5 -16 -11 -50q-6 -38 -11 -55q-2 -8 -9 -27 q-5 -15 -7 -23zM529 914q10 -5 30 2q30 10 47 10q12 0 18 -5q2 -93 4 -105q8 -54 41 -54h5q26 3 32 31q2 8 2 20q0 18 -4 47q-6 44 -6 74q0 45 13 60q26 2 40 -26q17 -30 32 -33q12 0 25 18q11 16 34 9q-4 -37 -4 -64q0 -58 18 -68q22 -5 30 18q3 6 6 21q3 14 5 20 q30 76 30 118q0 13 -3 23q-5 18 -51 57q-45 38 -49 61h-22q-130 0 -169 -22q-17 -10 -68 -88q-50 -75 -50 -89q0 -29 14 -35z" />
<glyph unicode="c" horiz-adv-x="905" d="M55 180q65 66 76 215q1 14 1 314q0 346 -11 403q20 30 27 109q7 75 28 101q9 10 49 28t56 38t40 76q21 50 37 62q25 19 72 21h12q34 0 54 -10q15 -7 30 -32q17 -28 26 -34q18 -14 83 -36q61 -19 88 -47q33 -34 48 -91v1q-1 0 23 -125q-101 -150 -132 -182 q-219 125 -243 143q-6 -102 -6 -266v-48q1 -175 1 -259v-61q18 5 36 5q67 0 124 -72q44 10 84 10q38 0 72 -9q77 -22 86 -83q1 -3 1 -7q0 -15 -9 -42q-7 -26 8 -45q0 -1 -66 -50q0 -25 4 -116q2 -40 2 -71.5t-2 -52.5q-9 -130 -83 -130h-9q-53 6 -60 93q-12 153 -12 150 q-23 -11 -63 -41q-39 -31 -64 -41q-303 164 -408 182zM215 1068q24 -3 35 21q12 30 20 34q10 0 28 -8q16 -6 33 -3q15 17 52 107q28 66 75 81q9 3 37 2q29 -2 46 3q5 -16 33 -45q28 -28 33 -49q2 -7 -5 -48q-6 -33 10 -51q8 -2 15 -2q29 0 33 34q9 64 9 72q0 1 -0.5 1.5 t-0.5 -0.5q29 5 41 -31t36 -35q19 12 19 39.5t-19 70.5q-29 66 -61 94q-22 20 -122 59q-76 29 -88 79q-14 3 -28 3q-56 0 -86 -56q-53 -101 -79 -118q-10 -7 -29 -15q-22 -10 -37 -18q-22 -86 -22 -141t22 -80zM388 295q34 -49 81 -49h5q3 -13 4 -38q0 -33 1 -40 q4 -46 34 -49q15 1 22 19q10 30 11 31q18 -3 34 9q17 14 32 13q26 -37 33 -150q7 -117 28 -154q34 37 34 131q0 12 -1 26q-6 116 -6 159q0 16 1 21q62 12 62 99q0 15 -2 33q-17 34 -72 34q-8 0 -18 -1q-65 -7 -94 -7q-15 0 -20 2q-21 5 -35 25q-25 35 -31 41q-23 8 -43 8 q-21 0 -39 -9q-23 -11 -23 -30q0 -13 11 -30q-25 -22 -25 -48q0 -21 16 -46z" />
<glyph unicode="d" horiz-adv-x="1135" d="M44 315q-4 16 -4 31q0 41 30 66q-9 28 -9 55q0 34 15 66q28 57 86 67v509q43 10 120 44q99 43 126 52q-60 46 -343 225v284q23 -7 102 -59q27 -3 61 9q38 13 57 13q56 -1 114 -59q66 -68 89 -75q19 -6 52 -4q36 2 50 -2q52 -12 110 -57q13 -10 47 -39q29 -25 47 -38h4 q33 0 75 31q38 28 69 28h7q38 -3 73 -64q34 -60 34 -110q0 -23 -13 -61q-17 -48 -19 -70q-8 -82 -8 -222q0 -112 5 -262q7 -196 7 -320q0 -96 -4 -149q-257 -86 -423 -220q-187 126 -343 177v-70q0 -48 -4 -78q-12 -88 -66 -88q-55 0 -65 129q-12 165 -20 182q-45 19 -59 79 zM92 314q13 -49 59 -62q11 -35 18 -137q6 -94 25 -131q15 31 15 86q0 15 -1 31q-4 83 -4 118v17q9 -2 27 -19q15 -14 38 -8q15 13 8 35q-1 4 -7 20q-5 12 -7 20q-5 27 -12 124q-5 75 -20 106q-31 28 -46 34q-30 13 -56 -7q-14 -22 -14 -76q0 -30 4 -69q-30 -24 -31 -59 q1 -11 4 -23zM226 1612q-3 -8 -3 -16q0 -27 33 -47q46 -28 45 -60h1q40 0 79 -61q27 -44 65 -44q10 0 21 3q3 -24 29 -35q-2 1 51 -13q11 -15 11 -68q0 -15 -1 -33v-15q0 -56 28 -61q4 -1 8 -1q40 0 40 82q26 29 64 29q42 0 97 -35q-2 -35 5 -53q33 -4 55 -36q4 -5 17 -28 q11 -18 19 -27q0 -88 1 -93q8 -50 53 -52q12 35 12 111q1 96 4 119q46 26 46 88q0 15 -3 33q-13 84 -65 115q-14 -7 -40 -23q-25 -15 -37 -21q-33 -16 -63 -16q-8 0 -15 1q-30 5 -60 39q-38 44 -53 52q-50 31 -155 43q-55 6 -144 92q-35 33 -62 42q-12 4 -26 4 q-26 0 -57 -15z" />
<glyph unicode="e" horiz-adv-x="1046" d="M62 214q0 16 16 46q21 40 27 61q4 13 6 42q1 26 5 35q9 18 38 36q26 17 28 30q9 68 9 178q0 71 -4 161q-7 169 -7 264q0 47 2 76q4 71 29 106q16 23 75 64q24 16 61 53q52 52 63 61q69 62 130 62q8 0 15 -1q36 -5 80 -37q42 -30 62 -62q6 -9 11 -32q4 -23 11 -33 q19 -30 126 -94q104 -62 131 -115q20 -37 22 -83v-7q0 -53 -27 -96q-31 -22 -49 -5q-65 -50 -228 -172q-145 -109 -227 -173v-252q16 -1 52 21q38 24 63 28q14 2 47 -2q35 -5 51 -4q15 2 44 12q27 10 39 10q37 0 100 -43q60 -41 64 -61q1 -6 1 -12q0 -29 -34 -48 q-53 -30 -60 -44q7 -56 6 -105q0 -62 -10 -114q-23 -115 -94 -115h-1q-49 1 -61 76q-3 17 -7 67q-3 44 -8 65q-31 -8 -76 -42q-56 -42 -72 -51q-93 51 -208 93q-16 -95 -29 -129q-24 -58 -71 -58q-5 0 -10 1q-45 5 -57 83q-4 27 -4 75q0 27 1 61q-71 73 -71 123zM111 168 q8 -9 22 -19q18 -12 21 -15q23 -19 28 -48q1 -6 1 -26t-1 -55v-10q0 -44 16 -68q50 25 50 104v15q-1 18 -10 87q-7 58 -7 95v50q0 80 -5 109q-17 12 -31 12q-16 0 -28 -17q-14 -21 -14 -51q0 -12 2 -26q-45 -49 -45 -116q0 -10 1 -21zM242 1072q16 -1 27 13q14 17 23 19 q26 -13 36 -94q4 -36 11 -50q11 -21 35 -20q31 2 40 50q3 17 3 37q0 26 -5 56q2 1 66 32q32 113 29 109q20 39 59 39q15 0 32 -5q12 -10 21 -40q10 -33 18 -42q11 -3 25 2t24 3q43 -45 66 -55v-54q7 -13 35 -23q28 -11 36 -21q-10 -34 -2 -62q8 -25 25 -34q16 -8 29 5 q14 15 14 52q19 7 33 0t21 -5q1 11 1 22q0 61 -33 105q-27 35 -94 77q-79 50 -103 71q-51 46 -61 108q2 -1 -57 46q-33 26 -63 26q-51 -2 -142 -98q-93 -99 -138 -105q-21 -67 -21 -112q0 -32 10 -52zM494 268q0 -25 47 -56q44 -28 69 -28h5q0 -19 16 -44q18 -2 36 6 q24 10 30 11q6 -31 14 -121q8 -81 19 -126q56 13 59 118v12q0 33 -4 83q-5 75 -6 89q9 6 25 14q18 10 24 13q24 15 22 38q-2 47 -66 51h-12q-19 0 -46 -2q-51 -5 -56 -5q-90 -4 -112 -8q-64 -11 -64 -45z" />
<glyph unicode="f" horiz-adv-x="889" d="M74 1015q8 20 10 53q2 41 5 54q12 59 12 125q0 31 -3 63q-1 17 -14 70q-7 27 -7 48q0 10 2 18q4 19 26 46q24 29 27 36v-1q-1 0 20 75q12 42 43 62q89 55 174 67q17 3 31 3q23 0 39 -7q13 -5 51 -34q47 -36 49 -39t8 -39q4 -25 26 -29q7 10 17 28q10 17 16 25 q20 26 59 29q7 1 15 1q26 0 59 -10q50 -14 61 -39q0 1 -1 1t-1 -13q0 -32 7 -143q6 -100 6 -132v-12q-7 -83 -63 -83h-1q-33 0 -48 40q-4 12 -10 37q-6 28 -10 39q-32 12 -98 25q-72 15 -100 23q-6 -36 -6 -99v-19q1 -68 1 -100v-24h88h101q-1 5 -15 -140q-44 -8 -87 -8 l-87 8v-639q14 2 57 3q36 1 59 7q10 2 37 17q23 12 36 12q53 -3 82 -74q22 -54 24 -125q-39 -43 -123 -116q-86 -75 -124 -116q-34 17 -93 53q-61 38 -91 53q-36 19 -95 45q-83 36 -98 43q3 18 43 72q16 116 16 308v63q-2 202 -2 301q0 67 1 88q-13 1 -60 0h-71zM123 1441 q2 -11 24 -324q12 -5 33 -27q19 -19 39 -22q22 13 22 45q0 12 -3 27q-4 21 -28 78q-1 15 -1 29q0 83 25 126q10 -2 20 2q12 4 19 3q13 -47 28 -47q13 0 27 32q8 18 23 65q13 42 18 52q20 0 87 34q34 -41 29 -39q29 15 88 21q77 7 101 13q77 -196 77 -224q0 -5 -2 -5 q-1 0 -2 1q27 20 27 68v10q-1 16 -7 51q-5 34 -6 50q-1 12 -1 30t1 40q1 23 1 39.5t-1 26.5q-21 18 -56 24q-13 3 -26 3q-21 0 -39 -8q-5 -6 -12 -31q-6 -21 -17 -27q-6 -1 -12 -1q-33 0 -59 19q-18 13 -46 50q-50 64 -105 64q-7 0 -15 -1q-24 -4 -90 -32t-79 -41 q-15 -15 -19 -46q-5 -43 -10 -55q-6 -17 -27 -38t-26 -35zM476 323q-7 -18 -7 -34q0 -50 70 -77q5 -44 34 -44h4q12 3 16 21q6 24 9 27q9 -4 22 -26q11 -20 26 -22q72 39 73 39q7 21 7 42q0 27 -12 55q-20 47 -58 67q-23 -17 -90 -26q-71 -8 -94 -22z" />
<glyph unicode="g" horiz-adv-x="1138" d="M50 -58q0 11 7 31q10 26 12 39t-1 37q-2 21 1 30q15 46 85 73q96 35 113 48q-87 68 -169 120v767q2 11 -9 17q-12 6 -10 17q0 12 13 29q16 20 20 33q0 -1 15 68q8 36 29 53q12 9 60 19q55 10 84 24q21 10 49 27q34 20 45 26q53 27 109 29q8 0 23 -3q14 -2 20 -2 q15 1 72 17q32 8 53 8q8 0 15 -1q18 -4 51 -38q33 -36 55 -44q14 -4 45 -5q30 0 42 -4q36 -13 59 -68q29 -68 37 -77q9 4 49 29q29 18 53 24v-251q-53 0 -193 25q1 -23 1 -52q0 -95 -10 -261q-5 -79 -5 -145q0 -91 9 -159q10 -79 91 -208q69 -107 75 -122q11 -29 11 -54 q0 -44 -33 -79q-18 -20 -279 -164q-184 54 -341 54q-71 0 -136 -11q2 -38 2 -69q0 -69 -8 -107q-17 -85 -69 -85q-6 0 -12 1q-31 5 -42 44q-7 22 -11 85q-3 60 -13 85q-14 40 -50 46q15 20 3 51q-17 44 -17 53zM93 -56v1q4 0 53 -107q14 -30 20 -109q6 -71 28 -103 q34 42 34 141q0 23 -3 87q-2 41 -2 68v17q37 46 44 102q3 6 50 57q24 26 24 55q0 9 -2 18q1 0 1 -1q0 -7 -117 -42q-99 -31 -111 -68q-2 -7 0 -28q2 -23 0 -35q-1 -10 -10 -28q-9 -17 -9 -25zM117 1111q10 -12 30 -9q5 1 17 5q11 3 16 4q2 -37 34 -34q9 5 15 42q6 31 33 26 q20 -79 19 -79v1q16 -45 39 -43t30 45q3 20 3 85q21 8 75 80q31 41 68 41q13 0 26 -5v-24q-1 -16 0 -24q3 -25 24 -24q17 -2 21 22q5 25 18 26v-5q0 -33 24 -53q7 -6 24 -17q17 -10 24 -17q-7 -34 3 -57q9 -20 26 -22q17 -3 29 12q14 17 14 48q6 1 15 1q22 0 61 -4 q17 -2 31 -2q23 0 38 5q3 -8 6 -22t5 -19q6 -20 23 -22q31 -3 34 42v17v26q-2 30 0 45q-20 24 -68 107q-106 13 -140 38q-10 8 -32 35q-17 20 -30 23q-7 1 -14 1q-21 0 -48 -9q-47 -15 -59 -16q-8 -1 -23 2q-17 3 -25 3q-51 -2 -103 -30q-12 -6 -43 -24q-26 -16 -42 -23 q-23 -11 -69 -22q-44 -11 -66 -22q-5 -30 -34 -80q-28 -48 -29 -74zM300 21q20 4 58 4q31 0 48 6q26 9 51 41q31 39 41 46q21 15 62 15q23 0 53 -5q45 -8 79 -8t57 8q-83 105 -121 260q-60 -73 -162 -185q-133 -144 -166 -182zM450 21q13 -71 19 -82q21 -4 31 10 q18 25 17 24q18 -4 35 2q19 6 33 3q17 -4 36 -26q18 -21 31 -22h4l40 17q5 4 19 18q11 12 19 18h29q4 -3 16 -23q9 -14 23 -16q16 5 30 5q20 0 37 -10q21 8 27 41q2 10 4 30q2 22 3 31q-25 43 -96 63q-25 7 -44 7q-42 0 -62 -32q-13 -4 -30 -4q-23 0 -53 7q-38 8 -61 8 q-9 0 -16 -1q-21 -5 -49 -31q-32 -31 -42 -37z" />
<glyph unicode="h" horiz-adv-x="1057" d="M71 1033q0 6 0.5 24.5t-0.5 49.5v13q0 37 5 56q98 -5 116 -5q5 0 3 0q2 39 2 74q0 235 -92 316q1 14 20 10q13 -3 23 -10q14 5 43 25q26 18 47 23q4 40 46 51q13 4 43 7q33 5 49 8q16 4 35 11q23 9 27 11q10 3 19 3q17 0 33 -10q18 -12 30 -42q12 -29 32 -39 q-95 -121 -105 -200q-4 -37 -4 -97q0 -53 3 -123q4 -86 4 -145q0 -51 -3 -83q11 10 87 54q65 38 85 70q7 12 13 40q5 25 15 36q5 5 26 13q25 9 36 16q14 8 38 35q22 23 34 27q36 13 67 13q48 0 80 -33q38 -38 62 -137q12 -50 12 -89q0 -68 -36 -106q-3 -43 -3 -108 q0 -87 5 -213q4 -92 4 -163q0 -89 -6 -145q-10 -111 -77 -200q-35 -46 -137 -138q6 -129 5 -187v-34q-11 -141 -76 -141q-5 0 -10 1q-48 6 -57 116q-12 163 -14 169q-208 -82 -299 -82q-11 0 -20 1q8 26 50 40q8 3 36 11q22 6 33 11q116 52 119 53q-19 104 -19 113 q0 91 133 177q16 86 86 128q-3 36 -3 100q0 82 5 208q4 95 4 164q0 87 -6 133q-4 33 -81 100q-36 -23 -96 -69q-65 -49 -95 -69v-614q62 -71 62 -72q-29 -35 -94 -89q-69 -57 -96 -87q-72 45 -200 162q43 62 67 76v781h-115zM186 1547q-2 -7 -2 -14q0 -28 35 -43 q12 -5 39 -12q27 -8 37 -12q-4 -22 -4 -41q0 -22 5 -41q12 -42 47 -47q24 11 24 64q0 23 -5 55q9 6 37 51q19 30 52 30h6q31 64 33 86q-14 27 -49 27q-16 0 -37 -6q-91 -26 -112 -26h-2q-2 -4 -5 -27q-3 -18 -14 -20q-88 -27 -85 -24zM542 -26q0 -55 44 -88q11 0 25 10 q13 10 27 9q6 -33 15 -147q7 -94 23 -139q40 41 40 150v25q-1 23 -8 110q-4 47 -4 78q0 13 1 23q40 21 61 24q15 27 15 62q0 16 -3 34q-2 10 -12 50q-7 32 -9 53q-22 22 -37 22q-14 0 -22 -20q-3 -6 -12 -40q-7 -26 -15 -38t-45 -34q-36 -22 -50 -42q-34 -51 -34 -102z M666 1095q13 -2 25 -16q12 -15 23 -18q6 -1 21 -1q19 0 53 2q45 3 59 -15v1q-1 0 3 -81q3 -62 26 -77h1q31 0 31 46q1 58 6 64q4 -4 8 -11q6 -9 8 -11q10 -13 32 -7q4 14 4 31q0 37 -19 83q-35 88 -38 114q-29 16 -59 16l-69 -22q-99 -63 -105 -65q0 -7 -5 -17 q-4 -10 -5 -16z" />
<glyph unicode="i" horiz-adv-x="592" d="M39 1033q5 -16 34 -41t34 -42v-777q11 -66 61 -114q26 -25 104 -75q147 104 243 199q-18 29 -41 22q-6 -2 -23 -10q-17 -9 -28 -12q-50 59 -54 78v689q-6 -5 31 35q18 21 42 24q18 35 18 69q0 27 -11 54q-39 97 -41 110q-28 36 -82 47q-16 3 -30 3q-38 0 -68 -21 q-11 -8 -24 -31q-11 -21 -24 -27q-4 0 -7 1q-63 0 -89 -66q-45 -114 -45 -115zM117 1096q-2 29 29 68h8q40 0 84 46q37 39 75 39q9 0 17 -2q7 -2 16 -11q11 -10 18 -14q-4 -29 42 -98q21 -32 21 -58q0 -21 -14 -38q-29 -34 -112 -63q-7 5 -9 32q-3 24 -15 26q-14 0 -22 -24 q-7 -23 -27 -19q-13 9 -29 92q-27 14 -82 24zM180 1300h53q18 26 156 189q27 -33 59 -33q11 0 23 4q44 16 49 73q1 6 0 12q0 65 -59 144q-23 30 -93 35q-10 1 -20 0q-58 0 -86 -26q-24 -23 -27 -76q-1 -15 -1 -48t-1 -51q-2 -40 -25 -112q-24 -76 -28 -111zM272 1577 q9 68 24 92q43 12 73 12q40 0 58 -22q5 -14 18 -37q17 -30 20 -39q10 -22 10 -41q0 -23 -14 -43q-16 0 -38 11q-21 10 -39 9q0 -1 -18 -17q-8 -8 -21 -8h-5q0 2 -10 5q-12 15 -9 54q-30 26 -49 24z" />
<glyph unicode="j" horiz-adv-x="534" d="M38 1021q6 -2 5 -10q24 -9 50 9q33 23 48 24q10 -17 74 -75q-73 -131 -73 -335q0 -183 59 -425q-22 -1 -32 -34q-14 -52 -19 -59q-5 -9 -25 -21q-18 -12 -22 -21q-8 -21 -8 -49q0 -55 32 -138q-6 -7 -34 -36q-21 -22 -32 -39q9 0 14 -14q4 -14 14 -14q-1 0 47 19 q1 -3 18 -141q10 -83 61 -83h5q59 5 62 129v20q0 28 -1 88v21q0 51 4 78q127 100 127 341q0 46 -5 98q-20 210 -20 290q0 19 1 31q13 136 121 332q-4 16 -14 26q-11 12 -14 20q-6 20 -5 51q2 35 0 43q-7 43 -31 87q-26 47 -52 57q-18 7 -33 7q-28 0 -50 -21q-55 -53 -62 -56 q-12 -5 -67 -7q-47 -3 -64 -21q-8 -9 -14 -107q3 2 -38 -27q-23 -16 -27 -38zM141 -24q-3 25 -3 42.5t3 27.5q3 11 21 26q21 17 25 25q35 65 35 74q0 1 -1 1h-1q51 -216 56 -216v1q-3 -11 -16 -28q-14 -18 -17 -28q1 1 1 -7q0 -26 -5 -138q-1 -12 1 -39q3 -27 3 -39 q-1 -44 -32 -57q-17 12 -18 40q-1 7 -1 24q1 16 0 25q-2 17 -14 93q-5 30 -20 91q-14 56 -17 82zM145 1139q2 25 14 31q17 -7 35 -7q48 0 103 49q35 32 50 38q26 10 50 -15q22 -22 34 -85q16 -82 27 -106q-1 0 -10 -13q-6 -8 -18 -6q-13 -1 -18 13q-5 17 -10 20 q-16 1 -22 -20q-6 -22 -19 -22h-1q-31 4 -28 37q-6 6 -14 3q-11 -4 -19 -3q-16 26 -14 42q-12 4 -53 -5q-28 -6 -40 19q-6 0 -20 -6q-11 -4 -22 -3q-6 11 -6 27q0 5 1 12zM225 1319h51q29 38 106 128q68 80 104 129q-1 5 -11 8q-9 3 -8 10q1 9 1 17q0 36 -19 61 q-13 18 -52 44h-9q-103 0 -142 -86q-22 -50 -22 -123q0 -35 5 -76q10 -13 24 -23q-8 -12 -14 -45q-7 -32 -14 -44zM262 1529q2 29 21 74q19 46 35 57q19 13 42 13q11 0 23 -3q36 -10 42 -38q3 -12 3 -24q0 -38 -33 -68q-11 -10 -37 -28q-23 -16 -31 -25q-9 -38 -7 -35 q-6 -15 -21 -16h-2q-19 0 -29 32q-6 23 -6 48v13z" />
<glyph unicode="k" horiz-adv-x="1127" d="M27 993v42q0 77 3 100q11 71 58 88q3 42 61 84q2 15 2 29q0 53 -27 95q-6 11 -31 43q-19 26 -29 45q14 1 28 -6q16 -7 24 -8q19 14 64 129q34 87 90 87h6q54 -5 89 -75q44 -2 68 -40q8 -13 18 -36q13 -29 17 -37q-67 -166 -70 -166v1q-5 -41 -5 -110q0 -53 3 -123 q5 -97 5 -161q0 -49 -3 -80q8 2 19 12q10 9 18 11q1 114 123 226q34 32 103 56q13 5 48 24q26 15 41 14q21 -1 69 -36q61 -45 67 -49q8 -4 22 -5q12 -1 16 -4q31 -22 44 -74q7 -27 6 -53q0 -19 -3 -37q-1 -7 -17 -29q-11 -17 -7 -37q-59 -45 -225 -202q141 -111 164 -301 q111 -55 108 -52q4 -18 38 -86q20 -41 20 -85q0 -10 -1 -21q-5 -10 -38 -28q-7 -33 -8 -98q-3 -92 -4 -108q-9 -124 -72 -128h-4q-50 0 -61 74q-3 22 -5 70q-3 48 -5 68q-9 4 -24 -9q-17 -15 -28 -15q-104 113 -113 235q-38 -38 -115 -120q-74 -80 -115 -120 q-342 154 -367 160q5 15 31 57q22 37 26 61v723h-12q-16 0 -52 -1q-40 0 -58 6zM74 1138v1q3 0 28 -57q2 -6 5 -18q3 -14 4 -19q8 -20 28 -15q45 46 47 47q5 22 5 42q0 31 -12 56q-34 73 -35 76q2 -34 -33 -62q-37 -28 -37 -51zM158 1491q0 -15 19 -54q22 -44 24 -50 q12 1 34 14q16 9 31 0v1q-1 0 -11 -66q-6 -34 21 -38h3q31 0 53 99q18 16 43 67q25 47 46 64q-16 50 -37 71q-10 0 -24 4q-14 5 -23 5q-4 4 -28 52q-22 16 -38 16q-17 0 -30 -17q1 1 -36 -84q-7 -16 -29 -49q-17 -26 -18 -35zM398 241q7 -2 141 -70q8 26 70 76q57 47 61 79 q1 4 1 9q0 44 -51 119q-54 78 -91 92q-48 -41 -131 -103v-202zM487 908q22 -2 43 8q30 14 37 16q16 56 56 65q29 -17 38 -9q13 9 12 35q-1 32 2 40q25 6 38 5q3 -7 5 -89q0 -62 42 -62q18 5 16 35q-2 34 7 41q6 -3 14 -27q6 -18 24 -16q13 3 13 29q1 31 5 37q39 -14 66 -56 q25 13 25 60v13q-4 57 -30 72q-32 4 -78 44q-45 39 -72 41h-2q-19 0 -51 -20q-30 -18 -56 -18h-8q-109 -103 -106 -100q-44 -53 -44 -111q0 -16 4 -33zM854 269q1 -18 19 -62q19 -46 23 -74q3 -24 3 -108v-46v-8q0 -83 20 -120q-3 -1 -5 -1q-9 0 -9 24q0 61 61 278 q37 24 37 64q0 14 -5 30q-3 9 -51 98q-26 21 -45 21q-16 0 -28 -13q-21 -22 -20 -67q-1 -8 0 -16z" />
<glyph unicode="l" horiz-adv-x="769" d="M-6 1486q17 58 81 108q63 51 125 57q18 48 76 51h8q50 0 80 -36q43 27 155 46l-40 -48q-27 -30 -41 -51q-45 -64 -53 -137q-9 -85 -9 -231q0 -120 6 -282q8 -209 8 -346q0 -107 -5 -170q16 6 33 6q43 0 90 -42q30 8 55 8q67 0 102 -54q24 -37 24 -82q0 -37 -16 -78 q-53 -53 -242 -211q-172 131 -396 206q9 28 46 67q31 92 31 535q0 38 3 133q2 65 2 108v26q-2 149 -41 211q-10 17 -34 40q-27 26 -36 39q-22 29 -22 69q0 27 10 58zM35 1388q58 -53 103 -133q25 -5 57 20q0 5 3 5q8 0 38 -46q1 -52 0 -51q4 -25 25 -26q31 29 31 108 q0 28 -4 63q-6 53 -6 91q0 61 15 83q21 -9 42 0q16 61 17 85v6q0 41 -28 58q-15 9 -29 9q-17 0 -34 -12q-10 -7 -27 -23q-20 -19 -28 -26q-79 -7 -126 -60q-49 -54 -50 -141q1 -5 1 -10zM364 390q-7 -34 -7 -65q0 -62 28 -115q31 -1 72 -31q16 10 38 10q19 0 41 -8 q27 -9 48 -9q18 0 32 7q42 97 43 101q3 13 3 24q0 42 -40 66q-9 2 -20 2q-21 0 -45 -7q-37 -9 -54 -6q-5 1 -64 38q-16 10 -33 10q-21 0 -42 -17z" />
<glyph unicode="m" horiz-adv-x="1990" d="M42 1172q66 85 147 141q12 51 42 89q38 47 88 47q18 0 47 -21q31 -22 49 -24q13 -2 39 7q28 10 40 10q73 0 138 -53q57 -47 76 -105q7 16 20 60q13 46 23 68q33 80 98 91q-2 0 67.5 0h209.5q142 0 141 0q19 7 50 40q42 44 54 54q38 31 79 31q39 0 82 -28q19 -13 37 -48 q23 -44 31 -54q25 4 48 4q84 0 138 -55q27 -27 41 -77q2 -8 10 -43q6 -27 11 -43q8 7 -135 -181v-649q13 5 27 4q25 0 51 -15q40 -24 46 -68q6 -7 23 -20q17 -14 25 -22q25 -25 25 -61v-10q-1 -11 -15 -30q-15 -20 -19 -32q-2 -11 -8 -217q-3 -131 -76 -144q-11 -2 -20 -2 q-50 0 -75 53q-21 43 -21 111q0 24 3 52q-21 -10 -57 -45q-179 75 -203 333q-6 64 -6 169q0 84 4 196q5 147 5 246q0 76 -3 123q-16 22 -56 56q-41 35 -57 57q-130 -104 -203 -147v-728q72 -102 73 -107q-24 -28 -214 -198q-37 27 -118 97q-74 64 -119 95q26 52 90 102v773 q-7 34 -45 67q-8 7 -33 26q-20 16 -29 25q-32 -22 -112 -82q-71 -53 -114 -81v-717q6 -19 42 -55q34 -34 37 -58q-45 -34 -114 -95q-85 -75 -111 -97q-169 139 -232 203q18 16 43 47q30 37 42 49v390q0 34 3 144q2 53 2 92q0 26 -1 46q-6 150 -66 203q-7 5 -22 -11 q-17 -17 -29 -17q-25 12 -34 39zM251 1347q-2 -15 -2 -32q0 -64 30 -154q22 -6 33 9q14 18 24 19q6 -13 7 -82q2 -55 26 -65q35 2 37 60q2 70 14 82h28q2 -8 6 -27q3 -18 6 -27q8 -29 28 -37q7 3 81 55q33 24 71 24q17 0 34 -5q9 13 9 27q0 17 -14 36q-31 41 -29 66 q-11 4 -66 42q-45 32 -80 32q-9 0 -27 -8q-19 -8 -30 -9h-5q-27 0 -63 19q-40 22 -56 20q-18 -1 -35 -20q-20 -22 -27 -25zM753 1313q3 -9 6 -59q2 -38 17 -48q15 -3 30 -3q34 0 66 17q73 39 67 37q58 -92 58 -113q0 -6 -5 -6h-2q18 0 24 22q8 32 10 35q22 -5 28 -43 q8 -44 17 -53q55 13 125 61q79 54 118 69q24 -33 67 -33q46 0 114 38q17 -9 17 -52v-9v-24q0 -39 5 -50q11 -3 11 -6h8q37 0 41 45q10 91 8 85q22 -3 33 -57q8 -40 39 -40q6 0 13 1q8 8 10 34q3 32 6 40q17 2 42 20q23 18 43 19q22 33 22 65q0 41 -37 79q-45 47 -98 47 q-24 0 -51 -10h-3q-28 0 -55 48q-33 61 -49 70q-30 17 -57 17q-37 0 -65 -34q-72 -83 -92 -90q2 1 -9 1q-35 0 -194 -7q-46 -2 -84.5 -2t-68.5 2q-9 1 -18 1q-61 0 -97 -30q-23 -19 -60 -84zM1670 309q-1 -12 -1 -26q0 -53 21 -127q25 -10 32 -58q4 -25 5 -98q1 -66 8 -92 q10 -39 37 -39h3q46 1 46 108v9q-2 104 -2 149q0 30 1 33q2 10 16 31q15 22 18 36q0 3 -2 16q-1 7 7 13q-69 52 -96 118q-10 1 -19 1q-64 0 -74 -74z" />
<glyph unicode="n" horiz-adv-x="1337" d="M39 1174q12 27 64 66q59 46 77 69q8 10 18 29q13 22 18 29q21 32 48 38q15 3 47 -4q37 -8 55 -7q42 1 145 29q81 22 123 22q7 0 13 -1q12 -1 35 -8q22 -8 33 -9h10q50 0 112 27q107 46 109 47q6 2 14 2q22 0 54 -18q56 -32 67 -35q17 -37 17 -51q50 -5 82 -50 q10 -15 24 -42q17 -32 24 -43q-44 -42 -136 -186v-760q55 -76 74 -90q40 28 65 28q27 0 36 -34q-60 -59 -270 -225q-131 62 -186 231v-1l1 17q0 103 -12 817q-87 82 -119 102q-37 -21 -101 -71q-65 -50 -102 -70v-721q8 -8 85 -107q-33 -34 -107 -99q-73 -63 -107 -98 q-53 28 -124 90q-94 83 -118 101q-1 -2 78 96v794q-3 17 -56 90q-7 -2 -25 -17q-14 -12 -31 -11q-10 2 -18 17t-16 17zM225 1304q8 -9 16 -60q7 -41 35 -42q14 -1 22 18q7 18 23 16q2 -4 6 -61q3 -39 33 -35q21 11 26 45q2 13 2 45v23q24 -8 51 -6q6 -10 18 -77 q9 -50 38 -58q34 9 86 63q47 49 100 50q33 25 45 28q-7 2 102 5q-5 -30 5 -49q8 -16 24 -18q15 -2 28 11q14 15 16 40q11 -3 37 1q21 3 25 -1q1 -12 -2 -44q-4 -36 -4 -51q1 -48 35 -48q7 0 16 2q20 7 22 57q2 52 17 61q15 -27 40 -27q18 0 41 15q49 32 49 68v6 q-4 40 -101 68q-21 19 -34 62q-32 31 -70 31h-3q-28 0 -71 -19q-121 -52 -169 -52h-3q-13 1 -39 11q-27 11 -40 12q-9 1 -18 1q-50 0 -126 -22q-100 -29 -137 -30q-17 0 -47 3t-41 2q-41 -1 -53 -44z" />
<glyph unicode="o" horiz-adv-x="1190" d="M50 238q72 77 85 254q3 31 3 356v363q4 15 38 41q42 31 50 41q11 13 46 63q30 42 52 62q44 44 98 44q27 0 56 -11q16 6 45 37q25 26 54 28h2q26 0 57 -27q35 -30 53 -32h7q29 0 90 29q54 26 91 26q9 0 17 -2q28 -6 49 -36q7 -9 33 -58q69 -2 115 -40q45 -37 44 -95 q0 -11 -1 -23q-2 -15 -25 -42q-23 -29 -28 -46v-932q-286 -91 -463 -240q-325 200 -568 240zM214 1199q-1 -8 -1 -16q0 -21 9 -46q14 -40 39 -43q16 25 48 47q33 22 57 23q5 -12 7 -125q2 -80 37 -80h3q37 3 39 126q0 34 -2 98q-2 59 -2 75q15 23 66 43q54 20 69 39 q77 -41 76 -41q3 -9 6 -25q3 -20 5 -26q8 -29 30 -31q14 0 22 20q8 19 19 21q-2 0 20.5 0h67.5q3 -16 6 -56q3 -36 7 -55q11 -60 52 -71q23 19 23 67v8q0 3 -11 89q26 -43 82 -64q-2 -33 5 -48q9 -20 36 -17q18 16 19 46q0 42 4 54q5 13 26 38q15 16 15 34q0 45 -60 65 q-8 3 -52 15q-33 9 -52 18q-4 7 -9 21q-7 17 -9 22q-11 25 -29 33q-4 1 -9 1q-38 0 -104 -35q-46 -24 -83 -24q-17 0 -32 5q-13 5 -38 32q-20 21 -37 21h-2q-15 -1 -42 -28q-27 -28 -40 -31q-14 -2 -39 6q-26 9 -43 6q-43 -7 -89 -68q-12 -15 -34 -50q-20 -29 -29 -40 q-2 -3 -28 -24q-16 -13 -19 -29z" />
<glyph unicode="p" horiz-adv-x="1088" d="M32 990q41 40 168 153q6 5 31 23q19 14 26 23q6 9 12 33q6 25 13 34q9 11 36 23t35 23q3 2 50 153q24 77 77 77q15 0 32 -6q10 -4 51 -66q24 7 48 7q80 0 144 -82q66 -82 66 -177q0 -19 -3 -39q1 -7 9 -11q9 -6 11 -9h15q90 0 108 -11q16 -10 24 -35q19 -58 17 -51 q4 -11 20 -35q13 -20 15 -32q1 -5 1 -12q0 -14 -4 -35q-7 -36 -7 -50q0 -19 3 -54q3 -39 3 -58q0 -58 -26 -82v-510q-213 -142 -255 -178l-77 -67q-4 -1 -8 -1q-36 0 -101 40q-81 49 -105 53q-12 -62 -12 -118q0 -111 47 -203q8 -16 43 -64q28 -37 34 -64q-166 6 -276 163 q-18 -11 -45 -33q-32 -25 -43 -34q-54 -38 -116 -40q100 142 100 346q0 57 -8 119q-19 6 -61 5h-44h-22q-10 37 -10 61q0 30 15 41q-22 34 -22 75q0 25 8 52q21 70 70 92q4 78 76 107q-1 23 -1 55t1 73q2 102 2 132q-2 150 -53 205q-15 -4 -34 -17q-21 -15 -32 -19 q-12 1 -25 11q-15 12 -21 14zM100 338q-13 -27 -13 -53q0 -28 16 -55q18 -2 41 10q-3 6 13 -51q8 -30 33 -30q36 53 36 133t-36 188q-25 -15 -25 -66q-44 -33 -65 -76zM257 1123q15 -16 15 -64q0 -10 -1 -22q-1 -20 -1 -36q0 -39 7 -51q34 -5 43 28q2 7 6 30q3 19 7 28 q18 -3 35 -26q18 -25 31 -30q14 -22 14 -115v-35v-13q0 -93 43 -107q19 11 15 51q-6 58 -5 66q26 13 26 72q0 12 -1 25q3 3 72 36q-1 -9 -1 -17q0 -47 21 -55q28 0 31 33q1 11 0 32q-1 23 0 32q18 -3 35 10q2 3 10 65q5 40 36 38q7 -11 5 -54q-1 -40 11 -49q5 -1 9 -1 q30 0 32 42q2 72 5 77q5 -3 17 -24q9 -16 29 -12q26 16 14 48q-4 10 -30 49q-15 113 -71 184q-48 61 -109 61q-31 0 -65 -15q-11 4 -31 51q-12 29 -28 29q-6 0 -12 -4q-22 -12 -57 -138q-31 -112 -89 -112h-2q-14 -13 -32 -54q-17 -40 -34 -53zM869 1059q0 -7 4 -23 q6 -21 6 -30q0 -13 -2 -36q-3 -26 -3 -35q-2 -38 15 -52q12 -8 26 1t20 4q15 -19 15 -77v-15q0 -49 6 -61h30q13 23 13 54q0 16 -3 34l-15 86q0 10 6 33q6 21 4 33q-2 15 -26 53q-21 30 -14 54q-24 23 -45 23q-5 0 -9 -1q-28 -7 -28 -45z" />
<glyph unicode="q" horiz-adv-x="1215" d="M81 299v894q16 19 41 52q27 36 40 52l73 91q45 40 125 43h6q33 0 113 -10q59 -8 92 -8q12 0 21 1q37 3 121 54q45 28 85 28q20 0 38 -7q23 -10 39 -42q20 -37 36 -51q5 -4 94 -55q57 -34 69 -73q3 -8 0 -59q-1 -39 17 -57q-8 -19 -30 -45q-26 -29 -33 -42v-1196 q6 -46 48 -113q48 -75 56 -102q-71 4 -133 44q-20 14 -50 39q-37 30 -49 39q-173 -186 -306 -186h-8q126 264 128 279q5 41 5 97q0 51 -4 115q-8 117 -8 176q0 18 1 30q14 11 -418 -302q-162 83 -209 314zM174 1245q9 -18 10 -77q1 -55 13 -74q6 -1 11 -1q29 0 35 37 q8 56 18 63q11 -24 34 -24q25 0 65 30q12 -30 71 -86q51 -48 56 -100q123 38 123 41v0h-1q20 -59 24 -64q11 -4 21 -4q36 0 48 52q4 16 9 59q4 39 9 55q13 -6 39 -2q24 4 36 -4q-1 -10 -1 -19q0 -50 33 -50h3q16 1 41 67q18 47 39 47q7 0 13 -4v-17q0 -69 23 -82 q73 18 76 163q-23 29 -108 86q-74 50 -96 100q-10 2 -21 2q-44 0 -98 -35q-75 -48 -119 -49q-9 0 -28 8q-21 9 -30 10q-71 9 -124 9q-92 0 -131 -27q-19 -12 -43 -52t-50 -58z" />
<glyph unicode="r" horiz-adv-x="969" d="M30 1059q19 24 56 55l60 50q11 108 116 132q11 3 40 1q26 -2 39 5q19 8 39 51q17 38 46 44q91 17 154 17q22 0 41 -2t42 -21q33 -29 47 -37q11 -6 40 -20q24 -12 36 -20q39 -25 51 -65q73 -18 79 -27q6 -18 6 -47q0 -17 -2 -38q-5 -43 -5 -64q0 -9 1 -14q-34 -25 -95 -79 q-62 -55 -95 -79q-62 48 -163 158q-61 -36 -106 -79v-501q21 9 39 9q32 0 56 -27q4 -5 30 -40q18 -26 34 -37q12 -9 46 -21q29 -11 38 -22q26 -31 26 -144v-9q-41 -45 -125 -114q-94 -79 -128 -112q-48 14 -111 79q-261 131 -263 132q31 35 68 116q0 18 14 308q4 96 4 171 q0 97 -7 159q-10 77 -58 116q-14 2 -24 -8q-11 -12 -19 -13q-16 1 -27 14zM246 1164h6q17 1 30 1q35 0 43 -6q5 -11 5 -52q0 -21 -1 -50v-12q0 -58 28 -65q31 5 32 60q1 77 5 87q-2 -22 26 -31q30 -10 32 -27q36 17 99 67q60 49 101 65q1 -38 43 -168h26q18 7 21 39 q1 11 0 30v31q57 -12 53 -6v-21q-1 -15 0 -21q0 -24 10 -31q20 -4 32 5q2 2 16 21q7 -7 17 -10q12 -3 20 5q7 20 7 41q0 40 -28 80q-7 -1 -14 -1q-35 0 -60 33q-47 63 -48 63q-11 8 -62 28q-38 15 -54 41q-46 -2 -205 -16q-6 -7 -21 -44q-11 -27 -37 -41q-8 -4 -106 -21 q-63 -11 -63 -42q0 -32 47 -32zM410 299q8 -17 34 -34q32 -20 40 -29q-9 -51 -9 -72q0 -39 30 -39h5q17 2 23 24q6 24 25 29q7 -4 11 -29q2 -22 15 -24q66 33 90 76q12 21 12 44q0 34 -28 70q-35 3 -64 29q-4 3 -46 51q-27 29 -51 37q-10 3 -22 3q-25 0 -55 -14 q-6 -12 -10 -122z" />
<glyph unicode="s" horiz-adv-x="1124" d="M40 37q58 98 166 249q130 183 171 245q-43 28 -138 78q-94 50 -137 79v454q-1 17 33 17q-3 12 -3 24q0 43 37 87q27 33 107 96q11 10 28 27q19 21 27 28q35 30 79 35q20 2 62 3q31 0 75 -2h40q65 0 98 5q14 2 37 7q22 6 31 7t17 1q23 0 44 -10q-3 2 90 -112 q46 -57 50 -57v1q1 -5 1 -11q0 -25 -18 -73q-15 -39 -15 -71q0 -16 4 -30q-22 -30 -64 -87q-44 -59 -65 -87q55 18 98 19q64 0 102 -40q52 -55 62 -194q2 -25 2 -64q0 -77 -7 -207q-4 -84 -4 -146q0 -68 5 -108q-189 -73 -370 -208q-16 5 -83 30q-51 19 -86 28 q-73 19 -151 19q-36 0 -73 -4q-11 -1 -150 -47q-30 -10 -51 -10q-38 0 -51 29zM191 1176q13 -5 17 -17q8 -1 16 -1q64 0 130 51q2 -3 5 -12q3 -8 5 -12q7 -12 24 -9q13 12 44 76q24 51 62 58q1 -10 0 -29v-30q0 -35 12 -47q6 -1 12 -1q28 0 31 35q8 74 7 72q7 -9 22 -9 q19 0 51 15q6 -5 33 -37q20 -22 40 -30q14 -3 19 14q6 17 20 14q9 -4 28 -26q15 -18 34 -19q-15 -33 -15 -59q0 -6 1 -12q5 -37 43 -37q5 0 10 1q22 15 21 58q0 55 7 71q-4 -1 20 0q12 0 8 11q-35 79 -118 163h1q0 -3 -85 -17q-34 -5 -90 -5q-24 0 -52 1q-43 2 -75 2 q-40 0 -63 -3q-30 -4 -55 -31q-49 -51 -46 -48q-10 -8 -40 -27q-29 -18 -43 -31q-42 -35 -42 -79q0 -7 1 -14zM803 890q3 -52 22 -85q18 -4 32 8t30 9q24 -34 24 -106v-6q-1 -22 -4 -65q-3 -41 -3 -58q12 -6 25 -6q17 0 36 11q15 22 15 58q0 9 -2 34q-2 23 -1 37 q26 34 26 72q0 7 -1 15q-6 41 -38 72q-33 31 -75 35q-7 1 -13 1q-40 0 -73 -26z" />
<glyph unicode="t" horiz-adv-x="714" d="M29 1237q30 32 35 47q5 16 7 58q1 41 8 61q12 29 52 76q38 46 46 68q3 9 5 33q1 23 5 34q16 36 55 66q34 26 59 26h5q33 -3 68 -59q35 -55 35 -100q-1 -22 -21 -96q-10 -35 -10 -65q0 -21 5 -40h10q24 0 81 6q20 2 37 2q33 0 52 -8q29 -12 49 -65q20 -55 44 -69v-134 q2 -10 -13 -11q-15 0 -13 -9q10 -41 10 -81q0 -56 -20 -109q-25 -66 -66 -66q-19 0 -42 14q-29 18 -29 93v14q2 46 2 78q0 47 -4 62q-13 7 -46 6q-44 -2 -52 -1v-761q27 30 68 30q24 0 54 -10q70 -25 70 -89q0 -11 -2 -24q5 -6 14 6q10 14 22 9q0 -10 10 -18q10 -10 11 -18 q-28 -35 -77 -72q-3 -18 -7 -77q-3 -55 -8 -84q-16 -96 -67 -96h-1q-52 1 -52 104q0 14 1 30q-6 4 -18 -9q-14 -16 -28 -12q-117 99 -340 211q62 73 72 165q7 59 7 159q0 83 -5 194q-6 143 -6 239q0 77 4 123q-7 1 -40 0q-38 -1 -53 0q6 22 -2 58q-8 37 -8 52q0 29 27 59z M50 1185q-9 -13 -9 -24q0 -24 43 -36q30 70 83 82q6 -11 6 -37q0 -22 -4 -54q-2 -13 -2 -23q0 -36 20 -40h4q34 0 41 112q2 28 2 67v27v46.5v19.5q6 9 20 32q12 21 21 30q57 25 72 41q8 64 8 104q0 16 -1 28q-9 65 -59 95q-40 -14 -61 -57q-5 -10 -6 -29q-2 -23 -5 -33 q-11 -38 -54 -91q-44 -53 -49 -68q-6 -20 -7 -62q-1 -40 -8 -56q-5 -13 -25 -37q-24 -27 -30 -37zM360 208q10 -22 59 -25q37 -17 37 -105q0 -14 -1 -31q-1 -18 -1 -34q0 -85 32 -103q19 39 22 153q2 108 24 141q-32 70 -32 76q0 1 1 1q-17 8 -37 8q-16 0 -33 -5 q-35 -10 -57 -34q-16 -18 -16 -32q0 -5 2 -10zM378 1184q13 -64 72 -70q14 3 19 28q4 29 12 34q45 -29 46 -145q1 -136 21 -174q37 15 39 90q0 20 -2 68q-1 31 -1 51v18q1 25 1 47q0 139 -43 174q-16 1 -32 1q-67 0 -117 -11q-19 -38 -19 -77q0 -17 4 -34z" />
<glyph unicode="u" horiz-adv-x="1306" d="M15 1162q27 33 95 73q2 88 39 123q8 7 28 13q23 8 34 15q10 6 24 24q13 17 21 21q22 11 86 14q57 4 82 25h11q8 -9 30 -30q21 -21 32 -33q36 -41 39 -83q6 -64 5 -93q0 -25 -3 -25q-1 0 -2 1q-17 -27 -84 -73v-404q0 -33 -4 -161q-2 -49 -2 -87t2 -65q10 -159 94 -191 q42 25 115 78q76 56 115 79v734q-8 17 -32 44q-23 27 -30 46q16 17 10 33q-11 26 -10 39q3 57 71 91q-5 -2 131 50q91 34 124 34q6 0 10 -1q24 -6 43 -42q31 -58 36 -64q51 -69 56 -69v1q2 -32 -40 -84q-1 -2 -78 -61v-695q42 -8 83 -55q45 -52 74 -63q18 -16 14 -58 q-5 -44 3 -54q-183 -156 -269 -224q-184 109 -196 303q-239 -172 -410 -292q-108 46 -158 173q-41 104 -47 283q-1 28 -1 71q0 96 6 264q3 102 3 181q0 90 -4 149q-7 5 -19 20q-12 14 -21 19q-13 -2 -33 -17q-19 -14 -34 -16q-24 5 -39 39zM138 1268q5 -22 23 -73 q20 0 45 -13q27 -14 44 -15q2 7 12 6q8 77 28 101t59 24q21 0 47 -7q0 -66 17 -73q19 2 39 17q25 18 34 22q1 9 1 19q0 35 -15 70q-19 47 -54 62q-24 -12 -64 -12h-6q-44 0 -64 -10q-10 -5 -25 -22q-17 -18 -25 -23q-10 -5 -29 -14q-19 -8 -27 -13q-30 -17 -40 -46z M760 1268q21 15 40 1q30 -21 39 -23q-2 -28 9 -40q10 -10 26 -7q15 4 26 18q12 16 12 34q47 -12 44 -5q14 -132 14 -160q0 -10 -2 -8h8q42 0 43 63q1 103 5 110q17 -10 36 -10q31 0 65 27q-5 16 -20 27q-19 15 -25 24q-5 6 -13 25q-10 23 -15 31q-16 29 -36 29q-4 0 -9 -1 q-127 -43 -140 -49q-86 -38 -107 -86zM1018 316q-1 -9 -1 -19q0 -28 8 -68q12 -62 32 -65q21 6 26 33q4 15 2 57q6 -3 40 -28q24 -17 44 -23q23 10 23 66v13q-34 7 -63 44q-38 48 -49 57q-22 -1 -41 -21q-18 -20 -21 -46z" />
<glyph unicode="v" horiz-adv-x="1041" d="M28 1373q17 86 107 162q9 7 160 110q3 1 5 1q8 0 11 -8q5 -13 10 -14q-11 -27 -65 -85q-45 -48 -45 -93q-1 -44 43 -100q58 -73 67 -93q56 9 71 47q4 10 10 40t13 49q15 39 63 67q46 27 93 27h6q10 -1 28 -7q19 -7 30 -9q24 -3 71 -6q46 -2 67 -5q73 -11 97 -62 q3 -6 7 -26q4 -21 9 -32q3 -8 18 -35q11 -22 16 -37t5 -31q0 -30 -18 -59q65 -58 72 -228q2 -28 1.5 -68t-1.5 -90q-4 -127 -4 -164v-423q-253 -89 -414 -215q-260 173 -502 215q83 85 83 355v19q-3 493 -4 479q-74 112 -88 143q-28 61 -28 121q0 28 6 55zM347 1211 q-6 -23 -6 -46q0 -31 11 -60q6 -16 20 -44q16 -30 22 -44q14 -10 40 -3t33 3q3 -18 1 -53q-2 -42 -1 -55q2 -61 42 -65q16 7 22 36q9 47 10 48q23 -21 47 -5q-6 72 -6 100v12q7 60 53 60h5q22 -1 33 -26q12 -25 40 -26q16 8 20 43q6 42 12 51q7 4 32 7q23 2 30 9 q12 -41 37 -42q42 62 42 98q0 32 -29 83q-33 58 -34 86q-48 45 -130 45q-34 0 -74 -8q-15 21 -44 21q-21 0 -50 -12q-65 -26 -68 -62q-12 -126 -110 -151z" />
<glyph unicode="w" horiz-adv-x="1605" d="M30 1392q29 132 248 259q18 11 31 11q19 0 27 -22q-12 -17 -38 -44q-30 -31 -40 -43q-35 -44 -35 -91q0 -11 2 -22q6 -36 44 -82q47 -58 56 -77q62 14 148 69q9 6 70 47q41 28 67 43q29 16 82 23q22 3 40 3q32 0 52 -10q17 -9 49 -50q28 -35 46 -35q16 0 31 17 q19 21 28 25q15 8 50 13q34 6 50 14q23 12 45 38q27 32 39 41q45 5 82 5q150 0 177 -84q75 -17 114 -106q18 -41 18 -79q0 -45 -26 -85q19 -31 58 -126v-834q-236 -72 -396 -217q-17 5 -156 63q-103 43 -177 43q-118 -1 -243 -106q-173 97 -295 159q-44 6 -106 29 q-74 27 -100 34q84 98 84 367v13q-4 484 -5 470q-76 108 -97 151q-30 64 -30 124q0 26 6 52zM346 1164q13 -44 13 -68q0 -9 -2 -15q21 -27 47 -48q26 -54 37 -132q2 -13 2 -38q-1 -29 0 -39q2 -44 30 -55q31 22 32 132q1 107 37 127q2 -4 7 -25q3 -16 14 -17q24 0 34 22 q6 15 8 49q4 74 32 82q47 7 83 7q18 0 33 -2q7 7 11 37q3 27 15 32q37 -7 58 -16q0 -6 4 -22q4 -14 2 -26q27 -14 39 -91q12 -71 45 -72q14 -1 37 26q23 26 53 21q20 -27 20 -65q0 -16 -4 -35q-12 -63 -12 -95q0 -10 1 -16q11 -3 11 -5q40 13 53 79q3 16 7 58q4 39 8 58 q32 -7 48 5q1 6 6 38q3 23 7 36q12 38 45 43q1 -11 3 -38q1 -25 4 -38q7 -39 40 -41q23 7 22 55v16q0 46 5 56q15 -3 27 4q19 12 20 12q6 -2 15 -17q7 -12 22 -9q8 5 18 15q12 12 17 16q22 17 50 16q16 24 16 56q0 18 -5 38l-32 86q-30 18 -90 47q-11 51 -71 64q-19 4 -48 4 q-32 0 -77 -5q-76 -95 -184 -100q-46 -52 -74 -53h-2q-34 0 -65 39q-37 48 -60 56q-19 7 -40 7q-43 0 -96 -29q-25 -13 -62 -39q-39 -27 -50 -34q-71 -40 -74 -42q-80 -37 -79 -37q-16 -16 -16 -42q0 -15 5 -33z" />
<glyph unicode="x" horiz-adv-x="1315" d="M59 1169q5 7 154 127q2 72 56 109q33 22 72 22q26 0 54 -10q49 34 105 35q51 0 90 -28t46 -72q2 -10 2 -20q0 -39 -28 -81q18 -40 18 -79.5t-18 -79.5q14 -26 48 -80q32 -50 46 -80q10 19 105 237q-22 72 -22 125q0 25 5 46q10 8 37 24q24 14 35 25v11q0 23 6 56 q36 26 78 35q18 4 34 4q27 0 48 -12q19 -11 59 -81q42 -74 61 -90v-49q4 -7 20 -14q15 -7 19 -14q-15 -40 -46 -111q-34 -75 -47 -110q-40 12 -117 50q-73 36 -109 44q-79 -160 -127 -270q38 -61 91 -161q77 -148 87 -166q107 -194 219 -285q43 18 66 44q23 -1 44 -39 q-38 -46 -117 -115q-89 -78 -120 -111q-128 68 -240 254q-27 46 -89 162q-56 104 -90 158q-37 -90 -122 -287q-80 -184 -121 -287q-57 26 -142 76q-106 62 -139 79q8 48 40 117q34 76 43 114q26 2 33 -5q13 36 58 63q-1 -1 85 42q11 5 35 21t37 22q19 8 36 8q25 0 47 -18 q9 16 31 67q19 44 35 65q-31 52 -79 147q-55 109 -78 149q-95 170 -207 244q-14 -9 -47 -30q-31 -18 -47 -30q-14 0 -22 11q3 -3 -11 22zM246 270q14 0 37 14q19 11 41 8q-10 -34 1 -58q9 -21 27 -24h5q14 0 23 14q12 20 4 57q50 70 60 88q24 45 24 90q0 10 -1 21 q-14 10 -30 10q-15 0 -31 -9q-9 -5 -26 -18q-15 -13 -23 -17q-71 -9 -110 -62q-21 -28 -21 -57q0 -28 20 -57zM252 1307q7 -21 34 -21q47 -1 49 -1q28 -24 93 -34v-17q0 -64 28 -76q-7 1 -7 6q0 17 57 76q18 -14 26 -86q8 -64 40 -73q18 21 18 56q0 17 -4 37q-4 16 -14 50 q-9 31 -11 44q23 30 23 67t-23 60q-15 8 -34 8q-20 0 -44 -9q-68 -26 -77 -27q-15 -2 -49 0q-33 2 -48 0q-51 -6 -57 -60zM837 1312v-26q0 -35 4 -49q10 -35 45 -35q10 1 14 17q4 18 8 21q16 0 72 -11q0 -62 38 -71q4 4 18 21q10 13 18 21q22 21 53 24q1 10 1 20 q0 49 -37 97q-62 79 -69 98q-16 3 -30 3q-37 0 -58 -20q1 -8 1 -15q0 -36 -21 -58q-14 -16 -57 -37z" />
<glyph unicode="y" horiz-adv-x="1107" d="M48 -173q11 67 119 206q91 118 92 144q4 63 4 176q0 56 -1 125q-3 198 -3 286v37v15q0 143 -56 192q-21 -7 -46 -27q-32 -24 -42 -30q-11 4 -22 20q-12 17 -19 21q79 86 165 145q50 111 129 139q23 8 69 12q43 4 65 14q28 12 101 102q52 64 122 64q7 0 14 -1 q52 -38 55 -41q28 -26 33 -62q70 -13 109 -87q27 -53 27 -111q0 -17 -2 -34q85 -120 94 -294q1 -19 1 -38q0 -152 -64 -272l-62 -82t-196 -181q-61 -44 -371 -211q-157 -85 -212 -150q-39 -47 -39 -102q0 -16 3 -32q11 -60 87 -91q51 -20 112 -20q24 0 49 3q52 6 137 66 q61 44 112 44q10 0 19 -2q15 -21 15 -40q0 -41 -64 -79q-75 -45 -168 -56q-51 -7 -96 -7q-104 0 -175 36q-99 49 -99 157q0 22 4 46zM306 1163q12 -12 17 -53q5 -43 14 -56q23 -4 35 11q4 5 8 15q6 11 8 15q4 -10 18 -23q14 -14 19 -23q1 -18 -2 -54q-5 -50 -5 -59v-11 q0 -60 32 -72q29 10 30 89q0 78 32 86q8 -15 3 -55q-3 -36 7 -48h-1q-2 0 151 42q14 -27 53 -34q31 -5 61 3v-27q-1 -21 -1 -28q1 -31 16 -38q38 0 38 57q0 113 -2 103q16 14 38 15q40 0 39 0q25 79 25 134q0 33 -9 57q-3 9 -18 24q-19 21 -23 27q-26 36 -103 78 q0 -1 -16 51q-29 32 -56 32q-21 0 -40 -18q-14 -12 -37 -44q-26 -35 -37 -47q-35 -36 -156 -71q-111 -32 -138 -78z" />
<glyph unicode="z" horiz-adv-x="894" d="M46 1161q90 68 154 102q8 128 141 170q49 15 275 36q26 -13 42 -52q4 -8 13 -35q8 -21 14 -33q86 -40 91 -188q-42 -41 -179 -178q-110 -111 -180 -176q163 -2 258 -70q90 -64 135 -198q1 -17 1 -33q0 -131 -57 -224q-51 -84 -161 -152q-19 -12 -206 -109 q-125 -64 -187 -126q-22 -38 -22 -83q0 -15 2 -30q11 -65 60 -81q4 -1 10 0q26 0 92 10q16 2 29 2q37 0 57 -18q1 -5 1 -10q0 -32 -23 -54q-21 -21 -52 -27q-19 -3 -36 -3q-90 0 -145 87q-42 67 -42 147q0 43 12 89q39 56 192 179q128 103 167 203q-1 -9 0 40q0 24 12 28 q-1 214 -262 214q-32 0 -69 -3q-17 -10 -114 -17q77 88 416 410q-43 48 -118 116q-102 93 -121 112q-49 -24 -160 -102q-17 3 -26 22q-3 6 -7 18q-4 11 -7 17zM263 1286q34 0 61 -27q38 -37 47 -41q16 -2 22 18q6 21 18 22l23 -91q34 -10 41 24q9 45 16 50q7 -4 12 -28 q5 -20 22 -18q18 -4 26 11q11 16 20 18q1 -67 1 -65q5 -32 33 -32h-1t-1 2q0 12 36 83q23 0 33 -25q9 -23 30 -20q26 3 26 32q0 5 -1 10q-4 33 -25 66q-42 10 -66 57q-7 13 -18 43q-12 29 -19 42q-21 3 -42 3l-70 -9q-14 -4 -44 -15q-28 -9 -43 -13l-102 -25 q-35 -16 -35 -64v-8z" />
<glyph unicode="{" d="M84 629q-2 30 19 28q-16 71 29 117q41 42 106 40q31 137 52 174q5 10 100 127q-3 147 9 204q7 35 -1 141q-6 89 14 120q33 52 130 57q4 0 18 -3q13 -2 17 -1q12 2 61 28q36 19 74 15q77 -9 87 -61q37 -2 39 -4q-1 2 5 -61q-158 -22 -174 -31q-92 -48 -95 -235 q0 -34 5 -167q4 -107 -2 -168q-13 -144 -88 -223q-71 -75 -208 -103q123 -44 186 -95q84 -69 101 -180q-1 -24 5 -49t4 -46q53 -17 72 -86q6 -20 14 -66q8 -47 14 -70q4 -14 18 -45q13 -30 17 -47q3 -13 10 -51q5 -32 12 -49q55 -149 56 -139q15 3 29 -2q16 -7 24 -7v-61 q-448 -19 -444 314q3 8 -4 12q-7 3 -5 9q-2 25 3 279q2 158 -42 226q-35 54 -107 78q-38 12 -159 31q1 3 -1 50zM138 679q0 -4 5 -11q6 -7 8 -11q1 -4 3 -15q3 -11 4 -16q6 -18 23 -16q11 -2 15 10q5 14 11 16q44 2 101 36q57 35 99 38q6 18 18 61q10 40 17 61 q-16 38 -4 213q-8 12 -27 12q-15 -1 -25 -8q-55 -35 -83 -113q-4 -12 -17 -100q-9 -56 -35 -65q-7 -2 -22 1q-16 4 -22 3q-31 -5 -52 -36q-20 -30 -17 -60zM447 1437q14 1 34 10q15 6 31 3q5 3 9 23q4 17 17 16q1 -1 11 -21q7 -13 24 -10q16 8 17 74q31 6 83 24q53 19 83 24 q5 37 4 40q-35 26 -89 14q-50 -11 -72 -41q-85 17 -134 -26q-52 -47 -18 -130zM540 87q13 -104 11 -135q-1 -11 -6 -40q-5 -22 -3 -29q4 -13 24 -26q19 -13 20 -22q1 -4 0 -56q0 -40 13 -53q10 -6 20 -1q15 9 19 10q28 -45 26 -44q20 12 43 1q27 -13 40 -10q12 30 -6 64 q-4 8 -19 30q-13 20 -19 33q-4 9 -26 104q-4 19 -17 50q-14 35 -18 46q-5 20 -12 64q-6 48 -11 68q-19 74 -77 68q-13 -37 -2 -122z" />
<glyph unicode="|" d="M369 1614q4 31 36 52q18 12 57 3q9 -3 35 -10q22 -7 35 -9q82 -16 94 -42q4 -14 -4 -35q-9 -26 -10 -37q-1 -18 3 -49q4 -37 4 -47q2 -52 -33 -60l23 -1753l-144 -2l-24 1768q-3 16 -24 38q-22 24 -27 37q-4 11 -7 33q-3 29 -5 39q-11 55 -9 74zM397 1593q0 -4 14 -74 q11 -60 33 -68q9 -5 26 0q16 4 25 -3q5 -8 11 -52q6 -37 22 -38q23 -2 25 51q19 -3 36 11q5 26 -6 92q-9 53 11 81q-21 13 -81 32q-66 21 -86 16q-32 -7 -30 -48z" />
<glyph unicode="}" d="M154 -302q126 8 181 44q68 46 75 159q12 207 0 274q-4 22 -24 61q-28 56 -34 70q-38 91 1 163q7 13 40 40q33 28 43 43q4 6 18 45q12 32 25 41q15 11 50 15q42 5 59 11q-88 51 -127 116q-41 68 -51 188q1 -17 3 298q1 172 -55 226q-31 30 -89 42q-17 4 -55 9 q-39 6 -60 10q6 63 4 61q41 -6 233 57q63 20 96 11q42 -13 57 -77q96 -6 118 -118q3 -15 12 -224q-4 -17 -32 -43q-30 -28 -37 -48q-7 -21 -8 -69q0 -63 -1 -70q-5 -49 9 -156q13 -108 96 -160q70 -44 207 -57v-78q-146 -17 -210 -56q-80 -49 -93 -156q-7 -62 -4 -178 q4 -148 2 -190q-6 -222 -111 -300q-71 -52 -338 -65v61zM232 1579q189 -58 182 -55q91 -47 65 -162q20 -3 25 -34q0 -5 2 -27q1 -16 3 -25q3 -11 16 -11t15 -7q0 -69 40 -45q27 16 55 58q-4 32 -4 86v84q-4 93 -52 116q-9 5 -28 5q-18 1 -24 4q-17 10 -26 36q-10 30 -22 42 q-50 5 -122 -28q-79 -35 -125 -37zM384 443q-22 -55 5 -125q5 -12 26 -58q15 -34 21 -55q66 -16 81 67q5 25 8 79q3 57 6 79q8 50 35 78q-3 2 13 -12q8 -8 22 -5q20 24 17 69q7 9 58 21q39 9 37 40q-40 27 -104 12q-12 -3 -54 -16q-34 -10 -54 -13q-6 -11 -19 -44 q-11 -28 -25 -47q-9 -13 -40 -36q-28 -20 -33 -34z" />
<glyph unicode="~" d="M31 409q24 79 75 153q38 55 104 125q34 2 68 34q39 38 62 46q26 10 72 4q55 -6 77 -4q28 4 81 31q45 22 79 19q52 -5 87 -40q12 -11 30 -34q21 -26 32 -37q3 -4 47 -35q29 -21 33 -46q16 6 26 27q2 3 8 18q5 11 9 17q24 3 45 -5q5 -2 18 -7q11 -4 18 -7 q-71 -140 -90 -167q-59 -86 -145 -111q-126 -3 -312 44q-193 49 -307 49q-9 -15 -21 -46q-14 -33 -22 -47q-15 2 -38 9q-25 8 -36 10zM260 638q38 -34 140 -30q6 0 163 17q15 -39 25 -49q14 -6 31 7q9 6 10 7q5 2 8 -2q17 -22 17 -84q1 -61 20 -83q20 -1 31 9q9 9 13 28 l5 35q2 22 7 33q16 4 25 -3q5 -4 11 -16q6 -14 10 -18q8 -8 22 -6q33 46 34 49q17 31 15 68q-44 19 -80 67q-43 56 -62 69q-34 24 -74 21q-25 -2 -75 -20q-55 -21 -84 -25q-52 -9 -101 6q-15 -13 -57 -39q-37 -24 -54 -41z" />
<glyph unicode="&#xa1;" horiz-adv-x="672" d="M60 -235q4 -22 53 -74q51 -54 78 -57q172 -24 259 10q108 41 95 174q11 3 22 20q11 18 20 22q-169 630 -201 1190q-15 14 -72 12q-111 -856 -200 -1153q-30 -20 -45 -62q-16 -42 -9 -82zM81 1401q187 -199 271 -236q36 42 237 248q-1 26 14 80q13 46 7 76q-14 66 -66 98 q-25 16 -131 15q-100 -1 -150 -13q-74 -18 -87 -161q-12 -20 -48 -53q-35 -32 -47 -54zM108 -211q-7 43 42 126q45 4 42 -60q42 -17 53 -96q64 -15 84 -30q4 16 2 47q-2 41 -2 50q3 56 60 52q32 -102 24 -95q57 20 78 -1q0 1 -42 -89q-102 -27 -207 -6q-122 24 -134 102z M224 1517q2 82 90 97q26 5 88 7q64 3 97 8q37 -14 53 -67q17 -55 -15 -87q-13 2 -28 22q-14 19 -34 17q-3 -8 -9 -25q-5 -16 -9 -23q-11 -22 -32 -21q-19 1 -32 40q-13 37 -44 33q1 2 -8 -85q-5 -46 -32 -49q-26 -2 -36 33q-12 38 -40 41q1 15 -4 32q-6 18 -5 27z" />
<glyph unicode="&#xa2;" horiz-adv-x="1139" />
<glyph unicode="&#xa3;" />
<glyph unicode="&#xa4;" />
<glyph unicode="&#xa5;" horiz-adv-x="1262" />
<glyph unicode="&#xa6;" />
<glyph unicode="&#xa7;" />
<glyph unicode="&#xa8;" horiz-adv-x="1024" />
<glyph unicode="&#xa9;" horiz-adv-x="7950" d="M192 701q18 -3 18 -4q25 45 29 50q19 24 48 28q18 3 73 -2q44 -3 66 8q-26 -15 -41 -27q-6 5 -18 3q-27 -2 -45 -16q-21 -16 -17 -40q-23 -7 -42 -25q-21 -19 -25 -40q-3 -15 2 -41q6 -29 5 -41q0 -3 -3 -10q-4 -7 -4 -9q-24 -124 38 -213q64 -92 183 -87q1 -9 2 -30 q2 -23 3 -34q5 -39 25 -39q22 0 28 48q1 15 2 41q1 27 2 35q36 16 106 97q35 -62 72 -88q49 -34 129 -29q62 20 71 27q1 -3 10 -83q5 -40 5 -42q7 -30 20 -29q15 2 18 48q1 18 -4 66q-4 42 0 65q43 41 64 54q19 -82 81 -106q77 69 92 85q-7 19 -23 12q3 1 -25 -19 q-15 28 -18 51v370q5 42 46 88q-10 51 -47 40q-17 25 -39 11q-4 -3 -18 -15q-12 -10 -19 -13q-8 12 -16 14q-13 -16 -45 -48q-30 -31 -43 -49q13 -16 19 -18q1 1 25 27q14 -14 26 -27v-72q-12 -4 -31 -3q-24 1 -29 1q-14 -1 -25 -12q-3 -3 -9 -10l-10 -10v219q-18 32 -20 36 q-13 17 -33 19q-6 1 -16 -1q-10 -3 -14 -3q-5 1 -12 3l-9 3q-31 2 -50 -9q-2 -1 -9 -10q-6 -8 -12 -10q-6 -1 -15 2q-11 2 -15 2q-14 -2 -24 -14q-3 -4 -7 -12q-5 -8 -8 -11q-74 -26 -83 -131q9 -2 14 -2q25 53 82 59q17 1 65 0q42 0 58 3q-69 -41 -120 -102 q-63 -77 -76 -147q-14 -77 14 -155q-31 -33 -53 -46v528q-14 0 -28 10q-17 13 -27 15q-7 1 -21 -1q-19 -3 -24 -3t-15 1q-9 1 -14 1q-6 -1 -18 -8q-11 -6 -17 -6q-19 -1 -42 10q-5 2 -12 11q-6 7 -11 9q-54 14 -89 -46v-18q-50 -49 -51 -134zM254 632q9 40 65 58q3 5 4 17 q0 15 1 19q3 1 12 5l12 6q16 6 26 1q8 -14 2 -32q-2 0 -29 -16q0 -2 2 -6q1 -4 0 -8q-2 -2 -9 -6q-6 -4 -8 -8q-1 -3 1 -9q1 -6 0 -10q-11 -14 -21 -14q-11 -25 -19 -31q-1 -3 0 -11v-12q-1 -12 -9 -14q-19 17 -26 29q-9 18 -4 42zM259 846q14 40 69 37q8 -13 48 -25l23 -7 q6 0 17 7q12 8 18 9q5 1 14 0q9 -2 13 -2q5 0 18 2q12 1 19 1q20 -1 33 -12q5 -10 0 -21q-24 -7 -51 -39q2 -30 -1 -42q-4 -24 -22 -25q-5 10 -2 25q5 20 4 26q-1 3 -6 16q-4 10 -1 18q-11 7 -22 7q-13 2 -19 -7q2 0 -14 18q-8 0 -17 -1q-11 -3 -15 -3q1 -20 -9 -25 q-12 1 -14 25q-6 4 -15 3l-17 -3q0 -2 -1 -6q-1 -5 -1 -6q-3 -7 -10 -6q-6 1 -7 8q1 -3 0 14q-34 19 -32 14zM390 368q3 4 7 3q44 32 61 54q28 35 33 87q3 39 1 118q-3 86 -1 113q2 38 40 67q3 -85 2 -224v-226q-4 -3 -9 1q-7 7 -9 8t-11 2q-9 0 -13 1q-24 6 -22 6 q-6 0 -18 -6q-13 -6 -19 -7q-4 0 -10 1q-7 1 -9 1q-1 0 -12 -4q-7 -3 -9 2q-6 0 -2 3zM400 305q-7 24 2 48q15 -7 37 -1q27 8 34 8q24 -1 62 -23q10 -51 -7 -53q-6 0 -7 7v12q-10 -1 -20 -10q3 -119 -10 -143q-12 18 -15 61q-4 68 -5 71q-1 1 -6 -2t-10 -1q-4 5 -3 19 q-9 0 -14 -9q-6 -12 -9 -14q-22 4 -29 30zM683 858q2 15 20 14q28 -2 31 -1q8 2 16 11q8 10 11 11q11 6 28 4q36 -4 32 -4q4 0 13 3q9 2 15 1q17 -2 26 -17q10 -15 1 -31q-1 -3 5 -72q3 -35 -11 -35q-12 -1 -15 38q-3 41 -13 43q-6 1 -11 -5q-7 -7 -12 -8q-4 0 -8 2 q-5 3 -8 4q-5 1 -16 2q-14 1 -18 2q-22 2 -29 12q-31 -6 -39 -13q-5 1 -6 7q0 9 -1 11q-11 22 -11 21zM690 434q2 7 11 9q2 1 9 3q6 1 10 2q4 2 11 5t11 5q12 4 22 -3q14 -8 16 -39q1 -32 -14 -38q1 -22 -9 -23q-7 0 -9 8q0 2 -1 7t-2 8q-5 -10 0 -38q4 -22 -9 -26 q-18 -5 -18 14q1 5 2 16q2 11 2 14q0 7 -10 19q-10 13 -13 20q-1 3 -1 9q0 7 -1 9q-6 21 -7 19zM694 457q-22 76 2 154q0 2 3 4q3 3 4 5q14 41 19 51q34 62 88 95q0 2 1 3q1 2 1 3q3 0 4 -2q-52 -70 -59 -141q-3 -29 0 -77q2 -63 2 -79q-16 4 -34 -4q-23 -11 -31 -12z M902 325q4 6 5 21q1 20 2 25q7 -2 33 -7q21 -4 34 -6q6 -18 6 -21q-11 -4 -50 -53q0 -19 7 -106q3 -27 3 -23q-1 -14 -12 -16q-7 21 -9 62q-3 48 -6 65q-1 2 -3 7t-3 7q0 -1 0 25q-1 14 -7 20zM904 388v101q48 16 104 2v-115q-4 -1 -8 -4q-5 -4 -8 -5q-18 9 -88 21zM911 614 q18 30 17 28q9 12 24 13q3 0 11 -3q9 -3 13 -2q4 0 16 5q10 4 16 2q7 -7 7 -40q0 -34 -9 -41q-5 -1 -9 5q-5 6 -8 7q-2 -4 -2 -22q1 -16 -7 -17q-11 0 -11 16q-1 1 -5 -2q-5 -3 -9 -2l-9 13q-7 -1 -10 -10q-4 -11 -7 -13q-15 3 -12 29q3 28 -6 34zM1056 828q1 9 15 18 q15 10 17 17q8 0 14 -7q8 -9 12 -10q4 0 10 2t11 1q2 -1 13 -19q-2 -9 -14 -21q-13 -14 -16 -22q-17 -43 -13 -40q-1 -30 -10 -34q-11 3 -9 19q2 26 2 29q-26 14 -16 37q-16 33 -16 30zM1238 399q106 -17 248 -105q77 65 202 105v406q2 8 12 20t11 18q4 33 -19 52 q-20 17 -50 17q-20 38 -36 41q-18 4 -47 -10q-30 -14 -42 -13q-8 1 -23 14q-14 12 -26 12q-13 -1 -23 -12q-13 -14 -20 -16q-38 14 -67 -15q-10 -9 -23 -27q-15 -21 -20 -27q-4 -4 -22 -18q-14 -11 -16 -18v-158q0 -142 -1 -156q-6 -76 -38 -110zM1310 818q0 -1 20 23 q4 5 13 17q10 16 15 22q20 27 39 30q7 1 18 -3q12 -3 18 -2q5 1 17 13q11 12 18 12q8 1 17 -9q11 -12 17 -14q20 -7 50 8q32 18 49 15q8 -3 13 -14q1 -2 4 -10q2 -6 4 -9q8 -4 22 -8q20 -5 23 -6q25 -9 26 -27q1 -8 -6 -16q-10 -11 -12 -17q-1 -5 -2 -23q0 -14 -8 -20 q-19 -3 -18 28q-24 9 -36 28q5 -38 5 -39q1 -24 -10 -33q-17 5 -22 31q-2 8 -3 24q-2 17 -3 24q-40 1 -38 0q-5 0 -9 -9q-3 -8 -9 -8q-10 1 -13 13q-1 3 -2 11q-2 8 -3 11l-33 18q-7 -8 -30 -17q-23 -8 -29 -19q0 -7 1 -32q1 -28 1 -43q-1 -54 -17 -55q-17 -1 -18 35 q-1 49 -3 55q-27 -2 -46 -31q-11 1 -17 19q-5 15 -3 27zM1835 399q106 -17 248 -105q77 65 202 105v406q2 8 12 20t11 18q4 33 -19 52q-20 17 -50 17q-20 38 -36 41q-18 4 -47 -10q-30 -14 -42 -13q-8 1 -23 14q-14 12 -26 12q-13 -1 -24 -12q-12 -14 -19 -16 q-39 14 -68 -15q-9 -9 -22 -27q-15 -21 -20 -27q-4 -4 -22 -18q-14 -11 -16 -18v-158q0 -142 -2 -156q-5 -76 -37 -110zM1907 818q0 -1 20 23q4 5 13 17q10 16 15 22q20 27 39 30q7 1 18 -3q11 -3 17 -2t18 13q11 12 18 12q8 1 17 -9q11 -12 16 -14q21 -7 51 8q32 18 49 15 q8 -3 13 -14q1 -2 3 -10q3 -6 4 -9q9 -4 23 -8q19 -5 23 -6q25 -9 26 -27q1 -8 -6 -16q-10 -11 -12 -17q-2 -5 -2 -23q0 -14 -8 -20q-19 -3 -18 28q-24 9 -36 28q5 -38 5 -39q1 -24 -10 -33q-18 5 -23 31q-1 8 -2 24q-2 17 -3 24q-40 1 -38 0q-5 0 -9 -9q-3 -8 -9 -8 q-10 1 -13 13q-1 3 -3 11q-1 8 -2 11l-33 18q-7 -8 -31 -17q-22 -8 -28 -19q0 -7 1 -32q1 -28 0 -43q0 -54 -16 -55q-17 -1 -18 35q-1 49 -3 55q-27 -2 -46 -31q-11 1 -17 19q-5 15 -3 27zM2483 469q37 19 42 21q27 9 50 -2q25 -20 30 -65q2 2 -3 -20q-7 -24 -31 -59 q-23 -33 -42 -47q-2 -2 -8 -3q-6 -2 -8 -4q-20 -18 -25 -39q-2 -12 1 -43q3 -32 8 -36q10 -9 20 -4q8 5 14 18q13 31 0 51q116 60 214 67q115 8 249 -39q67 64 148 99q0 8 4 93q3 58 0 96q-4 38 -4 37q1 8 14 43q10 27 6 49q-1 5 -7 13q-5 8 -6 12q0 5 3 19q3 13 1 20 q-1 4 -10 12q-9 10 -11 14q-4 7 -10 26q-5 17 -10 24q-13 18 -58 23q-5 3 -10 14q-5 12 -11 18q-12 9 -43 9h-28q-18 -1 -28 -1q-11 1 -28 5q-16 5 -20 4q-12 0 -21 -13q-15 -19 -14 -19q-19 24 -32 25q-3 1 -11 -1q-8 -1 -12 -1q-5 1 -14 7q-8 5 -13 6q2 0 -38 -4h-24 q-13 0 -19 -1q-13 -4 -20 -19q-2 -3 -6 -13q-3 -7 -6 -11h-17q-3 9 -14 25q-11 -1 -31 4q-19 5 -28 3q-6 -1 -13 -10q-7 -7 -13 -6q-6 4 -34 39h-3v-51q26 -113 182 -99q10 3 35 4q30 1 33 1q-17 -7 -49 -35q-38 -33 -41 -46q-2 -10 0 -40q2 -27 -3 -41q-5 -3 -15 -2 q-11 1 -17 0q-16 -4 -36 -22q-23 -20 -31 -24q-5 -3 -20 -7q-13 -3 -19 -7q-29 -19 -39 -67zM2504 248q3 14 21 28q6 5 16 11l15 10q85 60 118 103q45 57 51 109q4 31 1 82q-3 54 -1 77q4 39 23 60q12 14 50 34q-2 -7 -13 -35q-8 -23 -9 -39q0 -34 10 -118q10 -78 8 -121 q-43 10 -72 -14q-3 -2 -7 -9q-4 -9 -7 -12q-4 -5 -14 -14q-10 -11 -14 -16q-18 -19 -20 -36q-23 -24 -150 -102q8 -27 9 -33q3 -22 -11 -27q2 12 -2 32q-4 19 -2 30zM2559 855q6 12 23 9q26 -5 34 -3q1 -2 4 -5q4 -3 5 -6q-2 -10 -16 -9q-12 -34 -9 -28q-7 -15 -18 -16 q-15 -1 -18 20q-5 40 -5 38zM2596 557q21 17 67 21q-1 -10 0 -34q1 -34 1 -42q0 -49 -22 -48q-16 2 -16 34q-20 1 -25 24q-2 8 -3 22q-1 20 -2 23zM2660 324q8 14 72 100q38 16 62 7q0 -7 2 -24q3 -22 4 -30q2 -36 -13 -39q-13 -3 -18 13q-1 5 -2 15q-2 10 -3 14q-1 1 -5 -3 q-5 -5 -9 -4q-12 6 -14 16q-10 -3 -21 -20q-11 -16 -23 -19q-2 -4 -4 -28q-2 -17 -10 -21q-11 1 -18 23zM2676 854q10 19 16 23q13 -3 38 2q24 4 36 3q5 -1 15 -6q9 -6 13 -6q4 -1 13 -1q10 1 14 0q15 -1 16 -17q-1 0 -2 -4q-6 -1 -17 -1q-10 -1 -17 -2q3 -40 -17 -41 q-9 0 -13 9q-7 11 -10 14q-2 -2 -4 -7q-3 -5 -4 -7q-6 -7 -17 -5q-7 4 -11 23q-2 -12 -10 -16q-7 -4 -15 -1q-21 9 -12 38q0 -2 -12 2zM2865 850q1 8 9 17t16 10q6 0 18 -3q14 -4 19 -4q6 -1 49 0q29 1 46 -6q3 -3 10 -16q6 -12 11 -16q11 -6 32 -9q18 -2 25 -12 q3 -5 14 -37q8 -24 23 -32q1 -8 -2 -22q-3 -13 -2 -20q1 -4 11 -23q9 -17 9 -30q-1 -14 -11 -27q-8 0 -16 2q2 -37 -14 -35q-10 1 -12 28v25v23q-1 10 -11 63q-3 2 -7 -3q-6 -6 -11 -5q11 -5 -17 88q-6 3 -20 11q-13 7 -21 10q-1 -7 -1 -19v-19q-1 -21 -15 -24 q-15 -3 -22 17q-7 24 -17 27q-6 -5 -8 -54q-1 -43 -18 -43q-16 0 -19 45q-4 60 -6 65q-1 -2 -8 -13q-5 -7 -13 -7q-10 1 -17 19q-6 17 -4 29zM3298 516q1 -8 6 -27q5 -17 5 -26q0 -4 -3 -18t-3 -22q1 -102 13 -112q18 -14 35 9q14 20 12 35q39 -53 117 -75q3 -1 8 -4t8 -4 q7 -1 62 -7q99 -9 174 43q66 45 98 123q-13 -1 -53 -31q-50 -38 -85 -43l-20 19q-13 12 -24 11q-14 -1 -28 -16q-3 -2 -6 -11t-7 -12q-5 37 -5 216q0 182 2 221q10 -5 48 -18q31 -10 47 -19q1 -7 1 -24q1 -15 2 -22q3 -23 20 -25q25 -3 31 29q1 5 3 65l26 26q19 18 21 32 q3 22 -13 34q-17 13 -45 10q-8 5 -22 22q-12 15 -22 19q-21 8 -48 4q-7 -2 -23 -6q-15 -4 -23 -5q-4 -1 -13 -1t-13 -1q-8 -2 -39 -20q-5 -2 -19 -13q-10 -8 -16 -10q-4 -1 -10 0q-8 1 -10 0q-28 -4 -42 -21q-5 -5 -9 -19q-3 -16 -7 -21q-3 -5 -10 -8q-7 -4 -10 -8 q-15 17 -42 8q-25 -9 -34 -29q-1 -3 -1 -12q-1 -10 -2 -13q-2 -5 -9 -13q-7 -9 -9 -14q-6 -13 -9 -31q-13 -83 -5 -165zM3323 373q-2 38 2 133q3 88 0 134q-4 51 0 62q9 6 23 47q12 32 40 30q-2 -31 -28 -74q-2 -3 -11 -14q-7 -9 -9 -14q1 0 4 -44q0 -3 -2 -48 q-2 -43 1 -104q4 -76 5 -99q0 -53 -20 -57q-3 5 -5 48zM3380 473q0 6 1 19t0 19q-4 65 0 124q4 52 51 125q4 5 2 5q1 -4 5 -15q5 -10 6 -16q3 -29 -1 -99q-4 -71 -1 -103q-23 -9 -36 -32q-12 -23 -12 -53q-14 5 -15 26zM3415 472q-3 24 17 31q7 2 13 -2t7 -15q0 -4 -5 -11 t-6 -12q-2 -11 3 -59q4 -37 -8 -47q-13 12 -14 55q-1 47 -7 60zM3445 802q1 18 9 27q9 11 29 15q4 0 17 2q9 1 14 2q6 2 16 10q12 11 17 13q30 18 46 20h9q6 -1 9 0q7 1 21 5q15 4 23 5q26 5 42 -3q7 -4 19 -20q12 -15 22 -19q-2 1 31 -4q16 -3 17 -17q-1 3 -11 -6 q8 -17 -5 -26q-14 -9 -23 5q1 -3 -3 -6q-4 -4 -4 -6q-3 -9 -1 -59q2 -37 -13 -47q-14 13 -11 65q4 62 0 76q-3 10 -21 20q-1 -6 0 -17q1 -15 1 -19q1 -23 -12 -28q-13 6 -15 31q-1 6 -1 21q-1 15 -1 22q-12 9 -29 7q0 -2 2 -12q2 -9 2 -14q-1 -15 -16 -13q-3 4 -4 15 q0 14 -1 17q-8 -3 -30 -20q-18 -14 -32 -15q-4 -3 -10 -8q-8 -6 -10 -8q0 -45 -12 -55q-8 0 -11 9q-1 2 -2 8t-1 8q-10 -11 -7 -57q2 -42 -16 -51q-5 -2 -12 3q-9 5 -15 4q5 25 -7 63q-11 41 -10 57zM3625 350q5 19 25 18q18 -2 28 -16q-2 -4 -1 -17q2 -11 -3 -15h-7 q-6 0 -7 11q-18 -20 -14 -20q-9 0 -12 16q-4 19 -9 23zM3854 708q5 -12 13 -14q6 1 12 6q7 5 11 6q3 -2 7 -7l7 -7q3 -38 0 -113q-3 -83 -1 -115q4 -128 70 -156q59 41 140 100q5 -66 68 -104q29 24 92 77q-3 4 -1 19q1 14 -5 20q-10 3 -25 21q-14 16 -29 19v238 q26 20 27 21q14 18 14 29q0 -2 -20 23q-1 2 -12 22q-6 13 -15 15t-46 -12q-46 -18 -44 -17q-24 -12 -25 -31q0 -4 4 -13q2 -6 -4 -12q3 -6 11 -15q8 -10 10 -16v-251q-13 -8 -39 -27q-25 -18 -39 -27q-29 11 -33 66q-1 18 0 52q2 43 2 55v138q23 16 29 25q3 -3 0 41 q-2 14 -14 28l-11 11l-10 10h-4q-8 -7 -28 -8q-22 -1 -29 -5q-3 -1 -8 -7q-4 -6 -8 -8q-4 -3 -12 -5q-6 -3 -9 -5q-13 -12 -13 -42q-24 -14 -33 -25zM3896 744q3 10 14 16q3 2 9 5q7 2 10 4t8 8q6 6 9 8q7 3 22 3t24 4q12 -5 19 -21q6 -15 4 -31q-3 -1 -11 -7q-7 -5 -14 -6 q-6 3 -5 25q-27 7 -37 -6q-7 -8 -10 -34q-3 0 -3 -2q-6 0 -15 5q-9 4 -16 4q-6 18 -8 25zM4109 744q8 17 37 30q4 2 48 16q9 3 15 -9q2 -3 5 -11q3 -6 5 -8q2 -3 9 -8q5 -4 6 -10q-18 -15 -34 -5q-1 -3 -2 -38q0 -24 -17 -22q2 -3 -4 58q0 -3 -16 2q1 -15 -13 -18 q-13 -3 -12 16q-3 0 -13 8q-7 4 -14 -1zM4198 418q1 9 7 16q6 6 14 7q4 -3 17 -20q10 -12 21 -15q2 -23 -7 -27q4 -1 -29 18q1 -28 -10 -31q-7 1 -11 22q-3 19 -2 30zM4416 775q0 -5 3 -20q3 -14 1 -22h20q12 1 15 0q-4 -39 0 -135q4 -91 0 -132q-4 -34 -27 -61 q83 -42 126 -79q6 -2 11 4q5 5 7 4q-3 -50 19 -50q19 -1 25 35q2 11 3 32q2 22 3 29q18 14 29 27q-1 3 -5 6q-3 3 -3 7q-5 2 -9 -3q-3 -5 -5 -3q6 31 -25 42q-30 11 -46 -7v284h20q12 1 17 -2q2 -9 1 -52q-1 -32 10 -40q27 -17 41 20q12 33 4 70q-1 4 5 4q5 0 4 4v50 q-8 5 -16 26q-8 19 -18 24q-11 5 -33 2q-28 -3 -35 -2q-4 17 2 39q8 28 8 36q0 17 -13 37q-13 21 -25 22q-10 1 -24 -9q-15 -11 -21 -25q-1 -4 -2 -13q0 -9 -2 -12q-2 -8 -17 -25q-15 -18 -19 -29q-3 -7 -3 -22q-1 -16 -3 -22t-13 -18q-9 -10 -10 -21zM4434 777q2 3 11 14 q8 9 10 13q2 7 3 21q0 16 2 23q2 6 19 26q16 20 20 34q1 4 1 12q1 7 3 11q7 16 23 21q18 -11 21 -35q2 -15 -2 -49q-6 -6 -27 -16q-3 -3 -8 -11q-5 -9 -7 -12v-24t-1 -36q-2 -44 -17 -42q-9 2 -6 24q3 26 -1 34q-20 -5 -31 -31q-23 7 -13 23zM4550 412q-3 7 5 16t21 12 q15 5 27 -1q-3 2 11 -29q-8 -12 -9 -52q-1 -43 -8 -57q-14 8 -12 51q3 43 -13 51q-18 1 -22 9zM4556 776q-4 22 6 42q23 5 56 4q18 -16 15 -83q0 -8 1 -25q1 -19 0 -26q0 -28 -14 -34q-7 15 -8 66q0 43 -17 54q-3 -2 -5 -13q-1 -10 -7 -11q-22 2 -27 26zM4808 753 q-1 -6 3 -21q3 -13 1 -21q5 -1 19 0h15q-3 -39 1 -136q4 -91 -1 -131q-4 -35 -27 -62q83 -42 127 -79q5 -1 11 5q4 5 6 3q-3 -50 20 -50q19 0 25 36q2 11 3 31q1 22 2 29q19 14 29 27q0 3 -4 6q-4 4 -4 7q-4 2 -8 -3q-3 -4 -5 -2q5 31 -26 42q-30 10 -45 -8v285q3 -1 19 0 q12 0 17 -2q3 -10 1 -53q-1 -32 11 -40q27 -17 40 20q13 33 4 71q0 3 5 3q6 0 5 4v50q-9 5 -17 26q-7 20 -18 24q-11 5 -33 2q-27 -3 -34 -2q-5 17 2 39q7 28 7 36q1 17 -12 38q-14 21 -26 22q-9 1 -24 -10q-14 -11 -20 -25q-2 -4 -2 -12q-1 -9 -2 -13q-3 -8 -17 -25 q-15 -17 -19 -29q-3 -7 -4 -22q0 -16 -2 -22q-2 -5 -13 -17q-10 -11 -10 -21zM4825 754q3 4 12 14q7 9 9 14q3 6 3 21q1 15 3 23q2 6 18 25q16 20 20 34q1 4 2 12q0 8 2 11q8 17 23 22q19 -12 22 -36q2 -15 -3 -49q-5 -6 -26 -15q-4 -4 -8 -12q-5 -8 -8 -11v-25v-35 q-3 -45 -17 -42q-10 2 -7 23q3 27 -1 34q-19 -4 -31 -30q-23 6 -13 22zM4941 389q-3 7 6 16q8 9 21 13q14 4 26 -1q-2 1 12 -29q-9 -12 -10 -53q0 -42 -8 -57q-14 8 -11 52q3 43 -14 50q-18 1 -22 9zM4948 754q-4 21 6 41q22 5 55 4q19 -15 16 -83q-1 -8 0 -25q1 -18 1 -26 q-1 -28 -15 -33q-7 14 -7 65q-1 43 -18 54q-2 -2 -4 -13q-2 -9 -7 -10q-22 2 -27 26zM5093 543q13 -123 115 -189q32 -21 82 -36q35 -10 128 -7q138 23 204 166q-10 2 -29 -12q-44 -33 -74 -46q-16 20 -56 14q-10 8 -32 13q-25 5 -34 10v191q26 -2 71 -2h72q5 10 24 50 q16 31 22 53q2 -2 -30 1q-2 10 -15 18q-15 10 -17 12l59 64q20 22 17 39h-15q-5 3 -9 15q-5 13 -11 17q-2 1 -12 2q-11 0 -18 3q-3 1 -8 6t-8 6q-15 5 -32 -2q-22 -10 -24 -10l-12 11q-9 8 -13 15q-1 2 -3 8q-2 5 -4 7q-10 8 -26 5q-15 -2 -24 -12q-21 13 -41 -8 q-5 -5 -15 -20q-9 -12 -14 -17q-5 0 -13 1q-6 1 -10 -1q-30 -38 -36 -46q-152 -74 -159 -265q-3 -17 0 -54zM5156 610q-1 23 10 33q11 4 33 0q21 -4 34 2q2 -24 -1 -88q-3 -67 -1 -94q0 -3 2 -14q2 -10 2 -16q0 -18 -11 -19q-14 -1 -17 27v25q0 19 -1 22q-2 2 -6 -1 q-4 -5 -9 -3q-5 5 -4 36q-5 2 -8 -3q-4 -5 -10 -4q-7 5 -8 21v16v17q-1 6 -3 22q-2 14 -2 21zM5171 665q16 124 111 203q1 -5 13 24q27 -4 41 19q17 28 28 31q13 -12 25 -4q19 11 28 11q4 -7 39 -41q12 -4 24 2q17 7 20 7q8 1 24 -9q16 -9 30 -7q11 -20 11 -19q-4 -8 -18 -9 q7 -25 -10 -35q-7 -4 -13 -1q-7 4 -10 15q-13 -14 -25 -1q-12 12 -7 33q-12 -2 -26 4q-12 5 -20 3q-9 -3 -11 -15q-2 -6 -1 -23q1 -15 -2 -22q-4 -9 -16 -9q-3 0 -18 12q-6 -8 -8 -64q-2 -45 -25 -45q-16 0 -19 22q1 -4 -1 38q-6 -11 -14 -12t-15 6q-16 18 -8 50 q-12 -6 -32 -24q-25 -22 -33 -27v-115q-13 -6 -62 2zM5396 391q-9 21 0 38q9 18 26 -1q4 -1 7 0q5 2 7 2q7 -11 33 -11q30 -1 38 -5v-32q-5 -5 -14 -4q-2 -28 -11 -30q-6 1 -9 10q-3 11 -5 13q-13 -5 -19 0q-22 -23 -36 -9v18q-2 3 -8 6q-7 2 -9 5zM5484 732q-3 12 5 20 q8 7 21 9q13 1 22 -3q11 -5 12 -14q0 -8 -18 -18q-4 -40 -16 -49q-11 1 -12 15q-1 11 3 24q-3 5 -10 8q-6 3 -7 8zM5620 284q-8 -1 95 27q63 17 109 12q40 -4 144 -58q18 16 48 47q34 35 49 48q-2 4 -14 35q-9 21 -16 32q-38 5 -85 22v104q11 -1 26 -4q20 -6 23 -7 q46 -31 87 -132q43 -108 79 -140h20q12 17 40 43q30 27 41 42q-11 13 -16 14q-13 -13 -19 -16q-24 28 -46 84q-34 92 -35 95q-41 57 -103 97q12 8 64 45q39 29 62 43q-10 94 -13 99q-1 2 -7 7q-5 3 -7 7t-2 13q0 8 -2 12q-15 36 -49 37q-4 4 -6 15q-2 13 -5 17q-3 5 -25 15 t-29 10q-11 0 -24 -12q-14 -11 -24 -11q-7 -1 -18 4q-14 6 -19 6q-8 1 -22 1q-15 -1 -21 -1q-5 0 -25 3q-15 1 -24 1q-2 0 -67 -21q-10 -4 -31 -15q-19 -9 -31 -12l-9 -11q-17 -5 -63 -37l1 -19q32 13 85 11q24 -9 37 -27q14 -21 9 -49q-13 0 -24 -12q-16 -19 -18 -20 q-5 -4 -16 -7q-14 -5 -17 -6q-19 -9 -19 -28q-11 -5 -17 -10q-4 -8 -3 -24q2 -19 1 -24q-27 -18 -35 -27q7 -4 29 -18q18 -11 29 -19q72 -50 88 -113q-32 -19 -35 -35q-37 -13 -71 -69q-17 -11 -37 -34q-17 -20 -17 -30zM5685 653v15q15 2 25 32q6 3 21 7q13 4 19 8 q-2 -1 17 19q10 12 24 10q21 -64 3 -87q-12 2 -10 14q-14 -1 -25 -21t-21 -19q1 0 -23 14q-19 10 -27 -2q-4 1 -3 10zM5699 355q14 29 60 53q2 14 12 20q10 8 23 1q0 -7 3 -19q4 -12 3 -18q-1 -4 -5 -8q-5 -5 -6 -8q-11 -27 -7 -25q-12 -1 -11 20q-6 -1 -34 -14 q-19 -9 -38 -2zM5724 878q34 12 85 32q35 14 51 14q42 1 79 -4q4 0 26 -7q14 -5 27 -1q5 1 17 10q11 9 17 9q9 1 23 -7q15 -8 19 -9q5 -42 44 -44q2 -6 8 -13q7 -7 8 -12q2 -4 2 -13t2 -13t9 -9t9 -9q5 -11 7 -35q2 -28 5 -39q-8 -9 -12 -9q-6 2 -8 12q-2 14 -3 16 q-11 -30 -25 -14q5 12 1 20q-1 3 -3 8q-3 6 -5 9q-16 0 -44 25q-9 -18 -23 -9q-13 9 -7 32q-5 0 -9 -7q-5 -7 -10 -7q6 0 -23 26q-8 -7 -24 -6l-31 1q-8 -8 -26 -19q-20 -11 -27 -18q-2 5 -19 27q-12 17 -11 31q-14 6 -25 -3q0 -5 1 -17t1 -18q0 -21 -11 -22q-13 -1 -13 28 q-1 36 -4 43q-13 -1 -36 -7q-5 -1 -8 4q-4 6 -6 6q-16 0 -21 2q-9 4 -7 16zM5886 412q-4 17 8 33q12 15 29 16q9 -10 6 -59q-3 -50 -16 -51q-12 0 -14 15q-1 14 5 26q-2 5 -10 9q-6 5 -8 11zM5888 465v296q2 2 17 11q11 7 17 12q2 -57 2 -151q-1 -127 -1 -154q-7 -1 -19 -8 q-12 -6 -16 -6zM5952 431q53 -17 70 -16q21 -36 20 -51q-7 -15 -28 -16q-3 -17 -20 -20q-16 -4 -9 22q-8 7 -30 3q-13 21 -3 78zM6333 291q-1 -13 19 -34l17 -17q12 -11 15 -15q50 -53 64 -58q11 11 64 58q39 36 62 60q-3 6 -11 12q-9 7 -12 11q16 34 7 63q-8 25 -33 40 q-24 15 -53 14q-31 0 -53 -16q-15 -12 -29 -61q-5 -6 -34 -27q-22 -15 -23 -30zM6410 337q-1 27 20 44q19 16 46 17q27 0 44 -16q19 -18 14 -51q-2 -2 -17 -20q-12 -17 -20 -24q-25 -21 -21 30q-10 3 -29 6q-24 3 -31 5q-1 1 -2 5q-1 3 -4 4zM6736 378q0 -24 33 -57 q-2 -45 1 -65q5 -36 26 -39q26 -3 39 27q6 15 14 60q54 -20 97 -44q8 4 35 24q21 15 35 19q3 -10 4 -30q2 -24 3 -32q6 -36 29 -36q33 -1 45 54q9 43 2 103q4 6 29 20q19 11 16 28q-2 10 -30 29q-30 21 -47 21q-6 0 -19 -5q-13 -4 -20 -5q-8 -1 -24 2q-16 2 -23 1 q-11 -2 -29 -13q-17 -10 -25 -10l1 119q39 30 108 80q77 58 107 81q9 -8 24 2q27 41 3 88q-13 24 -62 54q-50 31 -59 45q-2 4 -5 15q-2 11 -5 16q-9 15 -29 29q-20 15 -37 18q-32 4 -69 -28l-29 -29q-18 -17 -29 -25q-28 -19 -36 -30q-12 -16 -14 -49q-3 -41 1 -161 q3 -107 -3 -159q-2 -6 -14 -14q-13 -8 -18 -17q-2 -4 -3 -16q0 -14 -2 -20q-3 -10 -13 -29q-8 -15 -8 -22zM6759 357q-3 37 21 64q-3 23 6 36q11 15 28 2q3 -18 2 -74q-1 -18 3 -45q3 -33 4 -41q2 -43 -24 -56q-8 12 -7 37q1 33 0 38q-2 14 -13 23q-1 1 -10 7q-6 5 -10 9z M6824 782q-12 24 6 77q21 3 65 49q43 45 67 46q14 0 30 -13q28 -22 27 -21q4 -30 28 -52q11 -10 48 -34q32 -19 44 -36q18 -25 15 -60q-4 -1 -10 2q-7 4 -16 1q0 -18 -6 -25q-6 -6 -14 -2t-12 16q-4 13 1 29q-3 5 -17 10q-12 5 -16 11v26q-11 4 -31 26q-4 0 -11 -2 q-6 -2 -12 -1q-4 5 -8 21q-4 14 -10 18q-30 10 -42 -16q1 3 -15 -50q-30 -15 -31 -16q4 -25 1 -43q-5 -23 -19 -24q-18 0 -22 33q-4 39 -17 45q-4 -1 -10 -9q-6 -6 -13 -6zM6940 404q2 15 30 20q10 1 53 3q2 0 26 2q17 1 27 1q30 -2 31 -24q1 -11 -10 -18q-3 -2 -11 -6 t-12 -7q0 -7 2 -42q2 -28 2 -44q-2 -50 -29 -56q-5 21 -8 60q-4 42 -6 56q-3 0 -14 -5q-9 -3 -17 -2q-8 12 -8 21q-12 -2 -34 13q-24 16 -22 28zM7268 128q10 -21 47 -9q64 21 70 21q53 6 102 -8q16 -4 40 -13q30 -11 38 -14q84 62 171 94q-4 35 0 117q5 90 3 125 q-3 64 -27 89q-29 31 -92 11q10 12 30 40q19 26 30 39q-5 20 5 47q11 27 8 38q1 -3 -23 26q-42 53 -40 52q-13 7 -28 4q-5 0 -15 -3q-10 -2 -17 -3q-20 -3 -63 -2q-47 2 -63 0q-21 -2 -37 -16l-12 -12q-8 -8 -13 -12q-37 -29 -50 -44q-22 -26 -16 -51q-15 0 -15 -8 q-1 -139 -2 -209q20 -13 63 -36q43 -24 63 -37q-19 -28 -79 -112q-50 -69 -78 -114zM7342 651q-3 25 19 43q7 6 20 14q14 9 18 12q-1 -1 22 23q12 12 25 13q20 3 64 1q43 -3 65 1q43 6 39 7q38 -39 53 -75q2 -5 -3 -5q-12 -1 -9 0q-4 -7 -4 -33q0 -20 -10 -26q-22 -3 -24 16 q-2 14 7 33q-9 0 -16 9q-8 10 -13 12q-6 1 -9 -7q-3 -7 -9 -6q-9 4 -18 14q-13 15 -15 17q-26 -12 -34 -2q1 0 -3 -33q-2 -20 -20 -16q-3 3 -5 49q-18 -3 -29 -26q-14 -30 -21 -35q-7 -2 -10 4l-3 6q-1 4 -2 5q-34 -26 -67 -23q-2 6 -8 8zM7622 518q18 13 40 11 q19 -2 34 -16q15 -15 17 -34q3 -21 -11 -39q-2 -54 -6 -60q-16 -9 -28 -2q0 8 1 27q2 20 2 29q1 36 -10 52q-7 2 -14 -4q-6 -5 -15 -3q-8 15 -10 39z" />
<glyph unicode="&#xaa;" horiz-adv-x="648" d="M107 1295q7 47 43 95q12 16 31 37q23 25 27 30q-8 26 -49 138q84 0 118 32q5 33 32 47q26 15 63 4q32 24 71 -11q37 -33 35 -66q0 -12 -16 -37q-18 -27 -21 -44q-7 -39 -1 -117q6 -82 1 -116q37 -22 43 -28q22 -21 20 -56q0 -3 -3 -10q-4 -7 -5 -10q-5 -18 -8 -54 q-3 -40 -6 -54q-10 -56 -50 -51q-21 3 -26 31q0 3 -2 59q-37 30 -47 43q-23 29 -25 66q-21 -11 -51 -38q-34 -29 -50 -40q-2 -1 -19 -19q-11 -11 -25 -9q-13 1 -49 49q-42 57 -31 129zM193 1569q7 -12 18 -44q10 -30 20 -43q54 42 101 23q-8 20 -32 26q-46 13 -43 12 q-24 20 -64 26zM231 1436q2 -15 22 -15q23 -1 30 -11q-2 -44 -3 -40q1 -6 9 -9q9 -5 11 -8q-2 -35 11 -41q16 4 19 26q0 -1 2 38q0 15 -1 49q0 33 1 49q-22 19 -64 3q-18 -7 -28 -17q-11 -12 -9 -24zM300 1632q-1 -14 14 -20q27 -10 29 -11q8 -6 17 -21q8 -12 15 -14 q1 -5 2 -17q0 -12 1 -17q3 -19 20 -18q12 4 12 30l-1 36q39 11 46 21q-11 32 -31 48q-26 20 -55 1q-20 11 -44 5q-24 -7 -25 -23zM421 1223q1 4 6 -46q2 -20 2 -63q1 -41 3 -61q29 7 34 63q2 15 2 45q1 27 2 36q0 3 4 15q3 8 2 14q-6 26 -28 25t-27 -28z" />
<glyph unicode="&#xab;" horiz-adv-x="944" />
<glyph unicode="&#xac;" />
<glyph unicode="&#xad;" horiz-adv-x="1716" d="M183 157q-5 79 7 112q12 31 44 49q27 15 74 24q27 5 92 12q63 7 97 14q29 5 104 37q60 25 104 23q21 -1 62 -18q42 -18 64 -20q30 -4 78 10q71 20 86 22q33 6 197 22q27 3 61 -16q49 -26 70 -33q25 -8 66 -11q40 -3 49 -5q51 -16 114 -71q82 -72 89 -77v-186h-1456 q4 24 -2 112zM196 198q4 -21 17 -30q11 -6 30 -5q11 1 39 7q26 5 40 6q11 1 34 -3q22 -3 31 -2q29 2 84 24t81 25q33 3 147 0q85 -3 137 16q6 -3 10 -12q1 -3 3 -8t3 -8q8 -19 28 -16q16 30 68 40q17 3 47 5q42 4 49 5q9 -12 8 -40q0 -9 -1 -25q-2 -18 -2 -25q-1 -30 5 -44 q9 -19 34 -20q18 6 21 43q3 48 6 56q71 -4 172 4q10 0 81 7q47 4 76 5q11 1 43 0q28 0 43 1q49 5 62 38q-5 19 -28 26q-3 1 -22 5q-13 3 -21 7q-14 6 -47 30q-29 20 -47 25q-14 4 -64 5q-46 2 -72 11q-12 4 -41 24q-25 18 -41 20q-58 8 -160 -18q-129 -33 -163 -37 q-38 -4 -95 16q-64 21 -86 23q-34 2 -88 -20q-72 -29 -98 -35q-39 -9 -116 -13q-71 -4 -103 -15q-38 -12 -70 -37q-39 -32 -34 -61z" />
</font>
</defs>
</svg>
